<?xml version="1.0" encoding="UTF-8" standalone="no"?>
<!-- Created with Inkscape (http://www.inkscape.org/) -->

<svg
   xmlns:dc="http://purl.org/dc/elements/1.1/"
   xmlns:cc="http://creativecommons.org/ns#"
   xmlns:rdf="http://www.w3.org/1999/02/22-rdf-syntax-ns#"
   xmlns:svg="http://www.w3.org/2000/svg"
   xmlns="http://www.w3.org/2000/svg"
   xmlns:sodipodi="http://sodipodi.sourceforge.net/DTD/sodipodi-0.dtd"
   xmlns:inkscape="http://www.inkscape.org/namespaces/inkscape"
   width="60mm"
   height="60mm"
   viewBox="0 0 60 60"
   version="1.1"
   id="svg1551"
   inkscape:version="0.92.3 (2405546, 2018-03-11)"
   sodipodi:docname="M1B.svg">
  <defs
     id="defs1545">
    <clipPath
       clipPathUnits="userSpaceOnUse"
       id="clipPath570">
      <path
         d="M 124.95,485.76 H 242.46 V 598.77 H 124.95 Z"
         id="path568"
         inkscape:connector-curvature="0"
         style="clip-rule:evenodd" />
    </clipPath>
    <clipPath
       clipPathUnits="userSpaceOnUse"
       id="clipPath580">
      <path
         d="M 0,0 H 162.04 V 161.75 H 0 Z"
         id="path578"
         inkscape:connector-curvature="0" />
    </clipPath>
  </defs>
  <sodipodi:namedview
     id="base"
     pagecolor="#ffffff"
     bordercolor="#666666"
     borderopacity="1.0"
     inkscape:pageopacity="0.0"
     inkscape:pageshadow="2"
     inkscape:zoom="2.2533681"
     inkscape:cx="113.38583"
     inkscape:cy="113.38583"
     inkscape:document-units="mm"
     inkscape:current-layer="layer1"
     showgrid="false"
     fit-margin-top="0"
     fit-margin-left="0"
     fit-margin-right="0"
     fit-margin-bottom="0"
     inkscape:window-width="1366"
     inkscape:window-height="704"
     inkscape:window-x="0"
     inkscape:window-y="27"
     inkscape:window-maximized="1" />
  <metadata
     id="metadata1548">
    <rdf:RDF>
      <cc:Work
         rdf:about="">
        <dc:format>image/svg+xml</dc:format>
        <dc:type
           rdf:resource="http://purl.org/dc/dcmitype/StillImage" />
        <dc:title></dc:title>
        <cc:license
           rdf:resource="http://creativecommons.org/publicdomain/zero/1.0/" />
      </cc:Work>
      <cc:License
         rdf:about="http://creativecommons.org/publicdomain/zero/1.0/">
        <cc:permits
           rdf:resource="http://creativecommons.org/ns#Reproduction" />
        <cc:permits
           rdf:resource="http://creativecommons.org/ns#Distribution" />
        <cc:permits
           rdf:resource="http://creativecommons.org/ns#DerivativeWorks" />
      </cc:License>
    </rdf:RDF>
  </metadata>
  <g
     inkscape:label="Layer 1"
     inkscape:groupmode="layer"
     id="layer1"
     transform="translate(-64.674199,-52.622242)">
    <g
       transform="matrix(0.52931701,0,0,-0.53646656,-2.6172218,373.41876)"
       id="g564">
      <g
         id="g566"
         clip-path="url(#clipPath570)">
        <g
           id="g572"
           transform="matrix(1.5931,0,0,1.5694,126.35,485.76)">
          <g
             id="g574"
             transform="scale(0.4444,0.4451)">
            <g
               id="g576"
               clip-path="url(#clipPath580)">
              <g
                 id="g582">
                <g
                   id="g584">
                  <g
                     id="g586" />
                </g>
                <path
                   d="m 81.171,160.55 c 44.139,0 79.939,-35.8 79.939,-79.938 C 161.11,36.44 125.31,0.64043 81.171,0.64043 37,0.64043 1.2,36.44 1.2,80.612 1.2,124.75 37,160.55 81.171,160.55 Z m 0,-5.71 c 40.999,0 74.229,-33.23 74.229,-74.228 0,-41 -33.23,-74.2573 -74.229,-74.2573 -41.028,0 -74.2567,33.2573 -74.2567,74.2573 0,40.998 33.2287,74.228 74.2567,74.228 z"
                   style="fill:#fefefe;fill-opacity:1;fill-rule:evenodd;stroke:none"
                   id="path588"
                   inkscape:connector-curvature="0" />
                <path
                   d="m 81.171,160.55 c 44.139,0 79.939,-35.8 79.939,-79.938 C 161.11,36.44 125.31,0.64043 81.171,0.64043 37,0.64043 1.2,36.44 1.2,80.612 1.2,124.75 37,160.55 81.171,160.55 Z m 0,-5.71 c 40.999,0 74.229,-33.23 74.229,-74.228 0,-41 -33.23,-74.2573 -74.229,-74.2573 -41.028,0 -74.2567,33.2573 -74.2567,74.2573 0,40.998 33.2287,74.228 74.2567,74.228 z"
                   style="fill:none;stroke:#221f20;stroke-width:0.2;stroke-linecap:butt;stroke-linejoin:miter;stroke-miterlimit:10;stroke-dasharray:none;stroke-opacity:1"
                   id="path590"
                   inkscape:connector-curvature="0" />
                <path
                   d="m 81.171,154.84 c 40.999,0 74.229,-33.23 74.229,-74.228 0,-41 -33.23,-74.2573 -74.229,-74.2573 -41.028,0 -74.2567,33.2573 -74.2567,74.2573 0,40.998 33.2287,74.228 74.2567,74.228 z"
                   style="fill:#0000ff;fill-opacity:1;fill-rule:evenodd;stroke:none"
                   id="path592"
                   inkscape:connector-curvature="0" />
                <path
                   d="m 30.2,80.869 v 22.481 l 60.914,-3.852 -9.6,26.142 c -0.6,1.6 3.086,3.86 4.4,2.74 L 141.63,80.869 85.914,33.383 c -1.314,-1.143 -5,1.115 -4.4,2.715 l 9.6,26.171 L 30.2,58.412 Z"
                   style="fill:#fefefe;fill-opacity:1;fill-rule:evenodd;stroke:none"
                   id="path594"
                   inkscape:connector-curvature="0" />
              </g>
            </g>
          </g>
        </g>
      </g>
    </g>
  </g>
</svg>
