<?xml version="1.0" encoding="UTF-8" standalone="no"?>
<!-- Created with Inkscape (http://www.inkscape.org/) -->

<svg
   xmlns:dc="http://purl.org/dc/elements/1.1/"
   xmlns:cc="http://creativecommons.org/ns#"
   xmlns:rdf="http://www.w3.org/1999/02/22-rdf-syntax-ns#"
   xmlns:svg="http://www.w3.org/2000/svg"
   xmlns="http://www.w3.org/2000/svg"
   xmlns:sodipodi="http://sodipodi.sourceforge.net/DTD/sodipodi-0.dtd"
   xmlns:inkscape="http://www.inkscape.org/namespaces/inkscape"
   width="210mm"
   height="297mm"
   viewBox="0 0 210 297"
   version="1.1"
   id="svg3336"
   inkscape:version="0.92.3 (2405546, 2018-03-11)"
   sodipodi:docname="M1D.svg">
  <defs
     id="defs3330">
    <clipPath
       clipPathUnits="userSpaceOnUse"
       id="clipPath634">
      <path
         d="M 124.95,259.77 H 242.46 V 372.75 H 124.95 Z"
         id="path632"
         inkscape:connector-curvature="0"
         style="clip-rule:evenodd" />
    </clipPath>
    <clipPath
       clipPathUnits="userSpaceOnUse"
       id="clipPath644">
      <path
         d="M 0,0 H 162.04 V 161.75 H 0 Z"
         id="path642"
         inkscape:connector-curvature="0" />
    </clipPath>
  </defs>
  <sodipodi:namedview
     id="base"
     pagecolor="#ffffff"
     bordercolor="#666666"
     borderopacity="1.0"
     inkscape:pageopacity="0.0"
     inkscape:pageshadow="2"
     inkscape:zoom="0.45522587"
     inkscape:cx="396.85039"
     inkscape:cy="561.25984"
     inkscape:document-units="mm"
     inkscape:current-layer="layer1"
     showgrid="false"
     inkscape:window-width="1366"
     inkscape:window-height="704"
     inkscape:window-x="0"
     inkscape:window-y="27"
     inkscape:window-maximized="1" />
  <metadata
     id="metadata3333">
    <rdf:RDF>
      <cc:Work
         rdf:about="">
        <dc:format>image/svg+xml</dc:format>
        <dc:type
           rdf:resource="http://purl.org/dc/dcmitype/StillImage" />
        <dc:title></dc:title>
        <cc:license
           rdf:resource="http://creativecommons.org/publicdomain/zero/1.0/" />
      </cc:Work>
      <cc:License
         rdf:about="http://creativecommons.org/publicdomain/zero/1.0/">
        <cc:permits
           rdf:resource="http://creativecommons.org/ns#Reproduction" />
        <cc:permits
           rdf:resource="http://creativecommons.org/ns#Distribution" />
        <cc:permits
           rdf:resource="http://creativecommons.org/ns#DerivativeWorks" />
      </cc:License>
    </rdf:RDF>
  </metadata>
  <g
     inkscape:label="Layer 1"
     inkscape:groupmode="layer"
     id="layer1">
    <g
       transform="matrix(0.52947807,0,0,-0.53662991,7.6789653,318.1067)"
       id="g628"
       style="stroke-width:0.66181982">
      <g
         id="g630"
         clip-path="url(#clipPath634)"
         style="stroke-width:0.66181982">
        <g
           id="g636"
           transform="matrix(1.5931,0,0,1.5694,126.35,259.76)"
           style="stroke-width:0.66181982">
          <g
             id="g638"
             transform="scale(0.4444,0.4451)"
             style="stroke-width:0.66181982">
            <g
               id="g640"
               clip-path="url(#clipPath644)"
               style="stroke-width:0.66181982">
              <g
                 id="g646"
                 style="stroke-width:0.66181982">
                <g
                   id="g648"
                   style="stroke-width:0.66181982">
                  <g
                     id="g650"
                     style="stroke-width:0.66181982" />
                </g>
                <path
                   d="m 81.171,160.55 c 44.139,0 79.939,-35.8 79.939,-79.938 C 161.11,36.44 125.31,0.64043 81.171,0.64043 37,0.64043 1.2,36.44 1.2,80.612 1.2,124.75 37,160.55 81.171,160.55 Z m 0,-5.71 c 40.999,0 74.229,-33.23 74.229,-74.228 0,-41 -33.23,-74.2573 -74.229,-74.2573 -41.028,0 -74.2567,33.2573 -74.2567,74.2573 0,40.998 33.2287,74.228 74.2567,74.228 z"
                   style="fill:#fefefe;fill-opacity:1;fill-rule:evenodd;stroke:none;stroke-width:0.66181982"
                   id="path652"
                   inkscape:connector-curvature="0" />
                <path
                   d="m 81.171,160.55 c 44.139,0 79.939,-35.8 79.939,-79.938 C 161.11,36.44 125.31,0.64043 81.171,0.64043 37,0.64043 1.2,36.44 1.2,80.612 1.2,124.75 37,160.55 81.171,160.55 Z m 0,-5.71 c 40.999,0 74.229,-33.23 74.229,-74.228 0,-41 -33.23,-74.2573 -74.229,-74.2573 -41.028,0 -74.2567,33.2573 -74.2567,74.2573 0,40.998 33.2287,74.228 74.2567,74.228 z"
                   style="fill:none;stroke:#221f20;stroke-width:0.15127216;stroke-linecap:butt;stroke-linejoin:miter;stroke-miterlimit:10;stroke-dasharray:none;stroke-opacity:1"
                   id="path654"
                   inkscape:connector-curvature="0" />
                <path
                   d="m 81.171,154.84 c 40.999,0 74.229,-33.23 74.229,-74.228 0,-41 -33.23,-74.2573 -74.229,-74.2573 -41.028,0 -74.2567,33.2573 -74.2567,74.2573 0,40.998 33.2287,74.228 74.2567,74.228 z"
                   style="fill:#0000ff;fill-opacity:1;fill-rule:evenodd;stroke:none;stroke-width:0.66181982"
                   id="path656"
                   inkscape:connector-curvature="0" />
                <path
                   d="m 132.77,105.47 -40.113,23.68 c -3.286,1.92 -7.743,-1.4 -5.771,-5.02 l 4.371,-7.95 H 52.629 c -10.858,0 -15.829,-3.83 -15.829,-15 V 41.669 h 20.657 v 47.086 c 0,3.8 0.857,6.028 5.286,6.028 H 91.257 V 94.755 L 86.886,86.84 c -1.972,-3.628 2.485,-6.971 5.771,-5.028 z"
                   style="fill:#fefefe;fill-opacity:1;fill-rule:evenodd;stroke:none;stroke-width:0.66181982"
                   id="path658"
                   inkscape:connector-curvature="0" />
              </g>
            </g>
          </g>
        </g>
      </g>
    </g>
  </g>
</svg>
