<?xml version="1.0" encoding="UTF-8" standalone="no"?>
<!-- Created with Inkscape (http://www.inkscape.org/) -->

<svg
   xmlns:dc="http://purl.org/dc/elements/1.1/"
   xmlns:cc="http://creativecommons.org/ns#"
   xmlns:rdf="http://www.w3.org/1999/02/22-rdf-syntax-ns#"
   xmlns:svg="http://www.w3.org/2000/svg"
   xmlns="http://www.w3.org/2000/svg"
   xmlns:xlink="http://www.w3.org/1999/xlink"
   xmlns:sodipodi="http://sodipodi.sourceforge.net/DTD/sodipodi-0.dtd"
   xmlns:inkscape="http://www.inkscape.org/namespaces/inkscape"
   width="120mm"
   height="90mm"
   viewBox="0 0 120 90"
   version="1.1"
   id="svg8"
   inkscape:version="0.92.3 (2405546, 2018-03-11)"
   sodipodi:docname="D1A-b.svg">
  <defs
     id="defs2">
    <clipPath
       clipPathUnits="userSpaceOnUse"
       id="clipPath820">
      <path
         sodipodi:type="inkscape:offset"
         inkscape:radius="0"
         inkscape:original="M 34 157 C 31.784 157 30 158.784 30 161 L 30 243 C 30 245.216 31.784 247 34 247 L 146 247 C 148.216 247 150 245.216 150 243 L 150 161 C 150 158.784 148.216 157 146 157 L 34 157 z "
         xlink:href="#rect812"
         style="fill:#009900;fill-opacity:1;stroke:none;stroke-width:0.99999994;stroke-linejoin:round;stroke-miterlimit:4;stroke-dasharray:none"
         id="path822"
         inkscape:href="#rect812"
         d="m 34,157 c -2.216,0 -4,1.784 -4,4 v 82 c 0,2.216 1.784,4 4,4 h 112 c 2.216,0 4,-1.784 4,-4 v -82 c 0,-2.216 -1.784,-4 -4,-4 z" />
    </clipPath>
  </defs>
  <sodipodi:namedview
     id="base"
     pagecolor="#ffffff"
     bordercolor="#666666"
     borderopacity="1.0"
     inkscape:pageopacity="0.0"
     inkscape:pageshadow="2"
     inkscape:zoom="1.5022454"
     inkscape:cx="226.77165"
     inkscape:cy="170.07873"
     inkscape:document-units="mm"
     inkscape:current-layer="layer1"
     showgrid="false"
     inkscape:window-width="1366"
     inkscape:window-height="704"
     inkscape:window-x="0"
     inkscape:window-y="27"
     inkscape:window-maximized="1"
     showguides="true"
     inkscape:guide-bbox="true"
     inkscape:snap-bbox="true"
     inkscape:bbox-paths="true"
     inkscape:bbox-nodes="true">
    <sodipodi:guide
       position="2,59.784741"
       orientation="1,0"
       id="guide819"
       inkscape:locked="false"
       inkscape:label="signAreaW"
       inkscape:color="rgb(0,0,255)" />
    <sodipodi:guide
       position="44.951077,1.9999999"
       orientation="0,1"
       id="guide821"
       inkscape:locked="false"
       inkscape:label="signAreaS"
       inkscape:color="rgb(0,0,255)" />
    <sodipodi:guide
       position="58.062623,88.000001"
       orientation="0,1"
       id="guide823"
       inkscape:locked="false"
       inkscape:label="signAreaN"
       inkscape:color="rgb(0,0,255)" />
    <sodipodi:guide
       position="118,59.980441"
       orientation="1,0"
       id="guide825"
       inkscape:locked="false"
       inkscape:label="signAreaE"
       inkscape:color="rgb(0,0,255)" />
  </sodipodi:namedview>
  <metadata
     id="metadata5">
    <rdf:RDF>
      <cc:Work
         rdf:about="">
        <dc:format>image/svg+xml</dc:format>
        <dc:type
           rdf:resource="http://purl.org/dc/dcmitype/StillImage" />
        <dc:title />
        <cc:license
           rdf:resource="http://creativecommons.org/publicdomain/zero/1.0/" />
      </cc:Work>
      <cc:License
         rdf:about="http://creativecommons.org/publicdomain/zero/1.0/">
        <cc:permits
           rdf:resource="http://creativecommons.org/ns#Reproduction" />
        <cc:permits
           rdf:resource="http://creativecommons.org/ns#Distribution" />
        <cc:permits
           rdf:resource="http://creativecommons.org/ns#DerivativeWorks" />
      </cc:License>
    </rdf:RDF>
  </metadata>
  <g
     inkscape:label="Layer 1"
     inkscape:groupmode="layer"
     id="layer1"
     transform="translate(-30,-157)">
    <rect
       style="fill:#009900;fill-opacity:1;stroke:none;stroke-width:1;stroke-linejoin:round;stroke-miterlimit:4;stroke-dasharray:none"
       id="rect812"
       width="120"
       height="90"
       x="30"
       y="157"
       rx="4"
       ry="4" />
    <path
       sodipodi:type="inkscape:offset"
       inkscape:radius="-0.82499999"
       inkscape:original="M 34 157 C 31.784 157 30 158.784 30 161 L 30 243 C 30 245.216 31.784 247 34 247 L 146 247 C 148.216 247 150 245.216 150 243 L 150 161 C 150 158.784 148.216 157 146 157 L 34 157 z "
       xlink:href="#rect812"
       style="fill:none;fill-opacity:1;stroke:#ffffff;stroke-width:1.25;stroke-linejoin:round;stroke-miterlimit:4;stroke-dasharray:none"
       id="path816"
       inkscape:href="#rect812"
       d="m 34,157.82422 c -1.77322,0 -3.175781,1.40256 -3.175781,3.17578 v 82 c 0,1.77322 1.402561,3.17578 3.175781,3.17578 h 112 c 1.77322,0 3.17578,-1.40256 3.17578,-3.17578 v -82 c 0,-1.77322 -1.40256,-3.17578 -3.17578,-3.17578 z"
       clip-path="url(#clipPath820)" />
    <path
       d="m 68.760312,212.38917 c 0.09743,-0.0675 0.216019,-0.10979 0.345205,-0.10979 0.336736,0 0.609934,0.26811 0.609934,0.60378 0,0.0633 -0.01476,0.11396 -0.0254,0.17097 l -0.584521,1.98439 h 2.789179 c 0.857722,0 1.711206,0.12871 2.537158,0.38209 0.535811,0.16468 1.06315,0.39266 1.55872,0.65442 0.239317,-5.7547 3.947633,-10.62274 9.091838,-12.54589 1.984404,-0.83599 3.29534,-2.80978 3.29534,-4.97149 v -2.78446 l -1.982288,0.57632 c -0.05295,0.0169 -0.110122,0.0274 -0.171544,0.0274 -0.334617,0 -0.609934,-0.27443 -0.609934,-0.61431 0,-0.12454 0.04659,-0.24278 0.114369,-0.33989 l 4.271651,-6.255 v 0 l 4.271659,6.255 c 0.072,0.0971 0.108008,0.21533 0.108008,0.33989 0,0.33988 -0.2732,0.61431 -0.60358,0.61431 -0.06142,0 -0.118603,-0.0112 -0.171544,-0.0274 l -1.988639,-0.57632 v 2.78446 c 0,0.85496 -0.129179,1.71204 -0.381207,2.52692 -0.165191,0.54674 -0.383328,1.07238 -0.656526,1.57271 5.764727,0.2322 10.62513,3.93918 12.55235,9.0859 0.83654,1.98015 2.82096,3.29534 4.97903,3.29534 h 2.78493 l -0.57816,-1.98439 c -0.0211,-0.0571 -0.0254,-0.10768 -0.0254,-0.17099 0,-0.33567 0.27318,-0.60376 0.60358,-0.60376 0.12917,0 0.24779,0.0422 0.34521,0.10979 l 6.26028,4.26853 -6.26028,4.27059 c -0.0975,0.0781 -0.21604,0.11398 -0.34521,0.11398 -0.3304,0 -0.60358,-0.27442 -0.60358,-0.60798 0,-0.0632 0.005,-0.11397 0.0254,-0.17099 l 0.57816,-1.98647 h -2.78494 c -0.86197,0 -1.70909,-0.12872 -2.53505,-0.37998 -0.54215,-0.16468 -1.06527,-0.38212 -1.56508,-0.65654 -0.0996,2.50792 -0.86407,4.84905 -2.11782,6.8503 l 1.99287,0.55522 c 0.0529,0.0169 0.10802,0.0422 0.15461,0.0739 0.28379,0.17522 0.37273,0.55097 0.19695,0.83385 -0.072,0.10979 -0.17153,0.18578 -0.27955,0.23857 l -6.942224,3.04199 -0.304966,-7.57651 c -0.01054,-0.11189 0.02116,-0.23644 0.08892,-0.3441 0.180015,-0.285 0.556985,-0.37787 0.836537,-0.19632 0.05718,0.0315 0.09744,0.0675 0.133432,0.11396 l 1.374478,1.54106 c 1.044073,-1.65504 1.643433,-3.60987 1.643433,-5.71457 0,-5.95523 -4.830769,-10.77685 -10.786101,-10.77685 -5.961686,0 -10.786094,4.82162 -10.786094,10.77685 0,4.58096 2.856946,8.49903 6.891409,10.06119 1.658258,0.6405 3.05179,1.75427 4.038699,3.22398 0.480744,0.70657 0.842893,1.48006 1.090681,2.28985 0.252022,0.82498 0.381207,1.67595 0.381207,2.53198 V 242 h -3.238159 v -7.23536 c 0,-2.21239 -1.332112,-4.22357 -3.399115,-5.01246 -3.740091,-1.43381 -6.709284,-4.43085 -8.113404,-8.18428 -0.838662,-1.97593 -2.810357,-3.29111 -4.970542,-3.29111 h -2.789179 l 0.584521,1.9865 c 0.01055,0.0571 0.02541,0.10769 0.02541,0.17099 0,0.33356 -0.273201,0.60798 -0.609936,0.60798 -0.129181,0 -0.247785,-0.0359 -0.345205,-0.11398 l -6.260298,-4.27061 v 0 z"
       style="fill:#fefefe;fill-opacity:1;fill-rule:nonzero;stroke:none;stroke-width:0.13190943"
       id="path394"
       inkscape:connector-curvature="0" />
    <text
       xml:space="preserve"
       style="font-style:normal;font-variant:normal;font-weight:normal;font-stretch:normal;font-size:10.58333302px;line-height:1.25;font-family:'Roadgeek 2005 Series 1B';-inkscape-font-specification:'Roadgeek 2005 Series 1B';text-align:center;letter-spacing:0px;word-spacing:0px;text-anchor:middle;fill:#ffffff;fill-opacity:1;stroke:none;stroke-width:0.26458332"
       x="33.182499"
       y="211.6994"
       id="text828"><tspan
         sodipodi:role="line"
         id="tspan826"
         x="33.182499"
         y="211.6994"
         style="font-size:7.9375px;text-align:start;text-anchor:start;fill:#ffffff;stroke-width:0.26458332"
         dy="3">Simpang</tspan><tspan
         sodipodi:role="line"
         x="33.182499"
         y="224.92857"
         style="font-size:7.9375px;text-align:start;text-anchor:start;fill:#ffffff;stroke-width:0.26458332"
         id="tspan830">Dewa Ruci</tspan></text>
    <text
       xml:space="preserve"
       style="font-style:normal;font-variant:normal;font-weight:normal;font-stretch:normal;font-size:10.58333302px;line-height:1.25;font-family:'Roadgeek 2005 Series 1B';-inkscape-font-specification:'Roadgeek 2005 Series 1B';text-align:center;letter-spacing:0px;word-spacing:0px;text-anchor:middle;fill:#ffffff;fill-opacity:1;stroke:none;stroke-width:0.26458332"
       x="119.6825"
       y="219.40475"
       id="text834"><tspan
         sodipodi:role="line"
         id="tspan832"
         x="119.6825"
         y="219.40475"
         style="font-size:7.9375px;text-align:start;text-anchor:start;fill:#ffffff;stroke-width:0.26458332">Jimbaran</tspan></text>
    <text
       xml:space="preserve"
       style="font-style:normal;font-variant:normal;font-weight:normal;font-stretch:normal;font-size:10.58333302px;line-height:1.25;font-family:'Roadgeek 2005 Series 1B';-inkscape-font-specification:'Roadgeek 2005 Series 1B';text-align:center;letter-spacing:0px;word-spacing:0px;text-anchor:middle;fill:#ffffff;fill-opacity:1;stroke:none;stroke-width:0.26458332"
       x="99.184532"
       y="167.37282"
       id="text829"><tspan
         sodipodi:role="line"
         x="99.184532"
         y="167.37282"
         style="font-size:7.9375px;text-align:start;text-anchor:start;fill:#ffffff;stroke-width:0.26458332"
         id="tspan839">Denpasar</tspan></text>
    <text
       xml:space="preserve"
       style="font-style:normal;font-variant:normal;font-weight:normal;font-stretch:normal;font-size:10.58333302px;line-height:1.25;font-family:'Roadgeek 2005 Series 1B';-inkscape-font-specification:'Roadgeek 2005 Series 1B';text-align:center;letter-spacing:0px;word-spacing:0px;text-anchor:middle;fill:#ffffff;fill-opacity:1;stroke:none;stroke-width:0.26458332"
       x="107.82841"
       y="185.80368"
       id="text845"><tspan
         sodipodi:role="line"
         id="tspan843"
         x="107.82841"
         y="185.80368"
         style="font-size:7.9375px;fill:#ffffff;stroke-width:0.26458332">Sanur</tspan></text>
    <text
       xml:space="preserve"
       style="font-style:normal;font-variant:normal;font-weight:normal;font-stretch:normal;font-size:10.58333302px;line-height:1.25;font-family:'Roadgeek 2005 Series 1B';-inkscape-font-specification:'Roadgeek 2005 Series 1B';text-align:center;letter-spacing:0px;word-spacing:0px;text-anchor:middle;fill:#ffffff;fill-opacity:1;stroke:none;stroke-width:0.26458332"
       x="112.48586"
       y="177.35895"
       id="text849"><tspan
         sodipodi:role="line"
         id="tspan847"
         x="112.48586"
         y="177.35895"
         style="font-size:7.9375px;fill:#ffffff;stroke-width:0.26458332">Nusa Dua</tspan></text>
    <rect
       style="fill:#ffffff;fill-opacity:1;stroke:#ffffff;stroke-width:1.25;stroke-linejoin:round;stroke-miterlimit:4;stroke-dasharray:none"
       id="rect836"
       width="45.019001"
       height="6.1160002"
       x="98.625"
       y="188.75601" />
    <text
       xml:space="preserve"
       style="font-style:normal;font-variant:normal;font-weight:normal;font-stretch:normal;font-size:10.58333302px;line-height:1.25;font-family:'Roadgeek 2005 Series 1B';-inkscape-font-specification:'Roadgeek 2005 Series 1B';text-align:center;letter-spacing:0px;word-spacing:0px;text-anchor:middle;fill:#000000;fill-opacity:1;stroke:none;stroke-width:0.26458332"
       x="120.95064"
       y="194.65167"
       id="text835"><tspan
         sodipodi:role="line"
         id="tspan833"
         x="120.95064"
         y="194.65167"
         style="font-size:7.9375px;stroke-width:0.26458332">Lewat Jalan Tol</tspan></text>
  </g>
</svg>
