<?xml version="1.0" encoding="UTF-8" standalone="no"?>
<!-- Created with Inkscape (http://www.inkscape.org/) -->

<svg
   xmlns:dc="http://purl.org/dc/elements/1.1/"
   xmlns:cc="http://creativecommons.org/ns#"
   xmlns:rdf="http://www.w3.org/1999/02/22-rdf-syntax-ns#"
   xmlns:svg="http://www.w3.org/2000/svg"
   xmlns="http://www.w3.org/2000/svg"
   xmlns:xlink="http://www.w3.org/1999/xlink"
   xmlns:sodipodi="http://sodipodi.sourceforge.net/DTD/sodipodi-0.dtd"
   xmlns:inkscape="http://www.inkscape.org/namespaces/inkscape"
   width="210mm"
   height="297mm"
   viewBox="0 0 210 297"
   version="1.1"
   id="svg8"
   inkscape:version="0.92.3 (2405546, 2018-03-11)"
   sodipodi:docname="D1A-c.svg">
  <defs
     id="defs2">
    <clipPath
       clipPathUnits="userSpaceOnUse"
       id="clipPath820">
      <path
         sodipodi:type="inkscape:offset"
         inkscape:radius="0"
         inkscape:original="M 24 57 C 21.784001 57 20 58.784001 20 61 L 20 113 C 20 115.216 21.784001 117 24 117 L 116 117 C 118.216 117 120 115.216 120 113 L 120 61 C 120 58.784001 118.216 57 116 57 L 24 57 z "
         xlink:href="#rect834"
         style="fill:#009900;fill-opacity:1;stroke:none;stroke-width:0.99999994;stroke-linejoin:round;stroke-miterlimit:4;stroke-dasharray:none"
         id="path822"
         inkscape:href="#rect834"
         d="m 24,57 c -2.215999,0 -4,1.784001 -4,4 v 52 c 0,2.216 1.784001,4 4,4 h 92 c 2.216,0 4,-1.784 4,-4 V 61 c 0,-2.215999 -1.784,-4 -4,-4 z" />
    </clipPath>
    <clipPath
       clipPathUnits="userSpaceOnUse"
       id="clipPath828">
      <path
         sodipodi:type="inkscape:offset"
         inkscape:radius="0"
         inkscape:original="M 24 57 C 21.784001 57 20 58.784001 20 61 L 20 113 C 20 115.216 21.784001 117 24 117 L 116 117 C 118.216 117 120 115.216 120 113 L 120 61 C 120 58.784001 118.216 57 116 57 L 24 57 z "
         xlink:href="#rect834"
         style="fill:#009900;fill-opacity:1;stroke:none;stroke-width:0.99999994;stroke-linejoin:round;stroke-miterlimit:4;stroke-dasharray:none"
         id="path830"
         inkscape:href="#rect834"
         d="m 24,57 c -2.215999,0 -4,1.784001 -4,4 v 52 c 0,2.216 1.784001,4 4,4 h 92 c 2.216,0 4,-1.784 4,-4 V 61 c 0,-2.215999 -1.784,-4 -4,-4 z" />
    </clipPath>
  </defs>
  <sodipodi:namedview
     id="base"
     pagecolor="#ffffff"
     bordercolor="#666666"
     borderopacity="1.0"
     inkscape:pageopacity="0.0"
     inkscape:pageshadow="2"
     inkscape:zoom="2.2533681"
     inkscape:cx="257.68834"
     inkscape:cy="791.92567"
     inkscape:document-units="mm"
     inkscape:current-layer="layer1"
     showgrid="false"
     inkscape:window-width="1366"
     inkscape:window-height="704"
     inkscape:window-x="0"
     inkscape:window-y="27"
     inkscape:window-maximized="1"
     showguides="true"
     inkscape:guide-bbox="true"
     inkscape:object-nodes="false"
     inkscape:snap-bbox="true"
     inkscape:bbox-paths="true"
     inkscape:bbox-nodes="true">
    <sodipodi:guide
       position="25.825,214.40313"
       orientation="1,0"
       id="guide818"
       inkscape:locked="false"
       inkscape:label="paddingW"
       inkscape:color="rgb(136,255,233)" />
    <sodipodi:guide
       position="37.455967,185.825"
       orientation="0,1"
       id="guide820"
       inkscape:locked="false"
       inkscape:label="paddingS"
       inkscape:color="rgb(136,255,233)" />
    <sodipodi:guide
       position="61.408999,234.175"
       orientation="0,1"
       id="guide822"
       inkscape:locked="false"
       inkscape:label="paddingN"
       inkscape:color="rgb(136,255,233)" />
    <sodipodi:guide
       position="114.175,214.875"
       orientation="1,0"
       id="guide824"
       inkscape:locked="false"
       inkscape:label="paddingE"
       inkscape:color="rgb(136,255,233)" />
  </sodipodi:namedview>
  <metadata
     id="metadata5">
    <rdf:RDF>
      <cc:Work
         rdf:about="">
        <dc:format>image/svg+xml</dc:format>
        <dc:type
           rdf:resource="http://purl.org/dc/dcmitype/StillImage" />
        <dc:title />
        <cc:license
           rdf:resource="http://creativecommons.org/publicdomain/zero/1.0/" />
      </cc:Work>
      <cc:License
         rdf:about="http://creativecommons.org/publicdomain/zero/1.0/">
        <cc:permits
           rdf:resource="http://creativecommons.org/ns#Reproduction" />
        <cc:permits
           rdf:resource="http://creativecommons.org/ns#Distribution" />
        <cc:permits
           rdf:resource="http://creativecommons.org/ns#DerivativeWorks" />
      </cc:License>
    </rdf:RDF>
  </metadata>
  <g
     inkscape:label="Layer 1"
     inkscape:groupmode="layer"
     id="layer1">
    <rect
       style="fill:#009900;fill-opacity:1;stroke:none;stroke-width:1;stroke-linejoin:round;stroke-miterlimit:4;stroke-dasharray:none"
       id="rect834"
       width="100"
       height="60"
       x="20"
       y="57"
       rx="3.9999974"
       ry="3.9999974" />
    <path
       sodipodi:type="inkscape:offset"
       inkscape:radius="-0.82499999"
       inkscape:original="M 24 57 C 21.784001 57 20 58.784001 20 61 L 20 113 C 20 115.216 21.784001 117 24 117 L 116 117 C 118.216 117 120 115.216 120 113 L 120 61 C 120 58.784001 118.216 57 116 57 L 24 57 z "
       xlink:href="#rect834"
       style="fill:none;fill-opacity:1;stroke:#ffffff;stroke-width:1.25;stroke-linejoin:round;stroke-miterlimit:4;stroke-dasharray:none"
       id="path824"
       inkscape:href="#rect834"
       d="m 24,57.824219 c -1.773219,0 -3.175781,1.402562 -3.175781,3.175781 v 52 c 0,1.77322 1.402562,3.17578 3.175781,3.17578 h 92 c 1.77322,0 3.17578,-1.40256 3.17578,-3.17578 V 61 c 0,-1.773219 -1.40256,-3.175781 -3.17578,-3.175781 z"
       clip-path="url(#clipPath828)" />
    <path
       d="m 55.976102,96.118254 0.524409,1.801537 c 0.0179,0.05244 0.02685,0.100597 0.02685,0.153037 0,0.301776 -0.245202,0.550931 -0.554836,0.550931 -0.112761,0 -0.218354,-0.03938 -0.309633,-0.100597 l -5.662891,-3.874596 5.662892,-3.873345 c 0.09128,-0.06085 0.196878,-0.100231 0.309635,-0.100231 0.309634,0 0.554834,0.248796 0.554834,0.554869 0,0.05191 -0.0089,0.105609 -0.02685,0.153931 l -0.524409,1.800641 h 12.55537 v -9.121337 l -1.798738,0.529811 c -0.04296,0.0089 -0.09485,0.02149 -0.152133,0.02149 -0.300685,0 -0.545885,-0.248798 -0.545885,-0.551291 0,-0.118139 0.034,-0.221948 0.09665,-0.309652 l 3.867728,-5.681149 3.867735,5.681147 c 0.06085,0.0877 0.09485,0.19152 0.09485,0.309654 0,0.302493 -0.243411,0.551289 -0.549464,0.551289 -0.04832,0 -0.100231,-0.01246 -0.152133,-0.02148 L 71.46135,84.063102 v 9.121338 c 4.186317,0 8.376214,0 12.55895,0 L 83.492314,91.3838 c -0.01432,-0.04832 -0.01789,-0.102019 -0.01789,-0.153932 0,-0.306072 0.243411,-0.55487 0.545885,-0.55487 0.118126,0 0.227305,0.03938 0.313214,0.100231 l 5.666476,3.873347 -5.666474,3.874601 c -0.08591,0.06122 -0.195087,0.100596 -0.313214,0.100596 -0.302474,0 -0.545886,-0.249155 -0.545886,-0.550931 0,-0.05244 0.0035,-0.100597 0.0179,-0.153037 L 84.02031,96.118259 H 71.461357 V 106.175 H 68.531473 V 96.118259 Z"
       style="fill:#fefefe;fill-opacity:1;fill-rule:nonzero;stroke:none;stroke-width:0.13212556"
       id="path522"
       inkscape:connector-curvature="0" />
    <text
       xml:space="preserve"
       style="font-style:normal;font-variant:normal;font-weight:normal;font-stretch:normal;font-size:10.58333302px;line-height:1.25;font-family:'Roadgeek 2005 Series 1B';-inkscape-font-specification:'Roadgeek 2005 Series 1B';text-align:start;letter-spacing:0px;word-spacing:0px;text-anchor:start;fill:#ffffff;fill-opacity:1;stroke:none;stroke-width:0.26458332"
       x="52.843834"
       y="69.150269"
       id="text834"><tspan
         sodipodi:role="line"
         id="tspan832"
         x="52.843834"
         y="69.150269"
         style="font-style:normal;font-variant:normal;font-weight:normal;font-stretch:normal;font-size:7.05555534px;font-family:'Roadgeek 2005 Series 2B';-inkscape-font-specification:'Roadgeek 2005 Series 2B';fill:#ffffff;stroke-width:0.26458332">Kota Bekasi</tspan></text>
    <text
       xml:space="preserve"
       style="font-style:normal;font-variant:normal;font-weight:normal;font-stretch:normal;font-size:7.76111126px;line-height:1.25;font-family:'Roadgeek 2005 Series 1B';-inkscape-font-specification:'Roadgeek 2005 Series 1B';text-align:start;letter-spacing:0px;word-spacing:0px;text-anchor:start;fill:#ffffff;fill-opacity:1;stroke:none;stroke-width:0.26458332"
       x="52.843834"
       y="77.362328"
       id="text838"><tspan
         sodipodi:role="line"
         id="tspan836"
         x="52.843834"
         y="77.362328"
         style="font-style:normal;font-variant:normal;font-weight:normal;font-stretch:normal;font-size:7.05555534px;font-family:'Roadgeek 2005 Series 2B';-inkscape-font-specification:'Roadgeek 2005 Series 2B';fill:#ffffff;stroke-width:0.26458332">Bulak Kapal</tspan></text>
  </g>
</svg>
