<?xml version="1.0" encoding="UTF-8" standalone="no"?>
<!-- Created with Inkscape (http://www.inkscape.org/) -->

<svg
   xmlns:dc="http://purl.org/dc/elements/1.1/"
   xmlns:cc="http://creativecommons.org/ns#"
   xmlns:rdf="http://www.w3.org/1999/02/22-rdf-syntax-ns#"
   xmlns:svg="http://www.w3.org/2000/svg"
   xmlns="http://www.w3.org/2000/svg"
   xmlns:sodipodi="http://sodipodi.sourceforge.net/DTD/sodipodi-0.dtd"
   xmlns:inkscape="http://www.inkscape.org/namespaces/inkscape"
   width="50mm"
   height="60mm"
   viewBox="0 0 50 60"
   version="1.1"
   id="svg8"
   inkscape:version="0.92.3 (2405546, 2018-03-11)"
   sodipodi:docname="D5A1.svg">
  <defs
     id="defs2" />
  <sodipodi:namedview
     id="base"
     pagecolor="#ffffff"
     bordercolor="#666666"
     borderopacity="1.0"
     inkscape:pageopacity="0.0"
     inkscape:pageshadow="2"
     inkscape:zoom="2.2533681"
     inkscape:cx="94.488187"
     inkscape:cy="113.38582"
     inkscape:document-units="mm"
     inkscape:current-layer="layer1"
     showgrid="false"
     inkscape:window-width="1366"
     inkscape:window-height="704"
     inkscape:window-x="0"
     inkscape:window-y="27"
     inkscape:window-maximized="1"
     showguides="true"
     inkscape:guide-bbox="true">
    <sodipodi:guide
       position="24.324852,54.999999"
       orientation="0,1"
       id="guide814"
       inkscape:locked="false"
       inkscape:label="whiteBoxN"
       inkscape:color="rgb(157,250,155)" />
    <sodipodi:guide
       position="45.75,11.999999"
       orientation="0,1"
       id="guide816"
       inkscape:locked="false"
       inkscape:label="whiteBoxS"
       inkscape:color="rgb(157,250,156)" />
    <sodipodi:guide
       position="4.9999999,9.9999995"
       orientation="1,0"
       id="guide818"
       inkscape:locked="false"
       inkscape:label="whiteBoxW"
       inkscape:color="rgb(157,250,156)" />
    <sodipodi:guide
       position="45,24.999999"
       orientation="1,0"
       id="guide820"
       inkscape:locked="false"
       inkscape:label="whiteBoxE"
       inkscape:color="rgb(157,250,156)" />
  </sodipodi:namedview>
  <metadata
     id="metadata5">
    <rdf:RDF>
      <cc:Work
         rdf:about="">
        <dc:format>image/svg+xml</dc:format>
        <dc:type
           rdf:resource="http://purl.org/dc/dcmitype/StillImage" />
        <dc:title />
        <cc:license
           rdf:resource="http://creativecommons.org/publicdomain/zero/1.0/" />
      </cc:Work>
      <cc:License
         rdf:about="http://creativecommons.org/publicdomain/zero/1.0/">
        <cc:permits
           rdf:resource="http://creativecommons.org/ns#Reproduction" />
        <cc:permits
           rdf:resource="http://creativecommons.org/ns#Distribution" />
        <cc:permits
           rdf:resource="http://creativecommons.org/ns#DerivativeWorks" />
      </cc:License>
    </rdf:RDF>
  </metadata>
  <g
     inkscape:label="Layer 1"
     inkscape:groupmode="layer"
     id="layer1"
     transform="translate(-50,-57)">
    <g
       id="g830">
      <rect
         ry="3.7"
         rx="3.7"
         y="57"
         x="50"
         height="60"
         width="50"
         id="rect812"
         style="fill:#0000ff;fill-opacity:1;stroke:none;stroke-width:1.25;stroke-linejoin:round;stroke-miterlimit:4;stroke-dasharray:none" />
      <rect
         y="61.999996"
         x="54.999996"
         height="43"
         width="40"
         id="rect824"
         style="fill:#ffffff;fill-opacity:1;stroke:none;stroke-width:1.25;stroke-linejoin:round;stroke-miterlimit:4;stroke-dasharray:none" />
      <g
         transform="translate(-3.7505377,8.0431672)"
         id="g2257">
        <path
           d="m 77.366619,69.599112 c 1.367634,0 2.756919,0.69821 3.267123,2.495243 0.900738,3.216346 0.748778,6.649786 1.128676,9.985553 0.04332,0.326976 -0.02166,2.790551 -0.314554,2.899671 0.195267,0.02175 0.314554,0.163682 0.314554,0.316292 v 3.389946 h -1.63888 v 0.632205 c 0,0.403664 -0.325571,0.730641 -0.727124,0.730641 h -1.269998 c -0.401553,0 -0.727505,-0.326977 -0.727505,-0.730641 V 88.685817 H 65.209882 v 0.632205 c 0,0.403664 -0.336589,0.730641 -0.738141,0.730641 h -1.258982 c -0.401933,0 -0.727505,-0.326977 -0.727505,-0.730641 v -0.632205 h -1.63888 v -3.389946 c 0,-0.174742 0.140941,-0.305228 0.314936,-0.316292 -0.173993,-0.05456 -0.434225,-1.940491 -0.325953,-2.899671 0.379899,-3.335767 0.238956,-6.769207 1.139693,-9.985553 0.510204,-1.797033 1.899492,-2.495243 3.267123,-2.495243 6.534246,0 2.344731,0 12.124446,0 z m -15.141595,10.463998 0.59682,-5.286559 c 0.087,-0.732549 0.596819,-0.991993 1.118039,-1.037777 5.77445,-0.488366 8.94394,-0.488366 14.707372,0 0.531858,0.04579 1.031043,0.305228 1.118041,1.037777 l 0.607837,5.286559 z m 17.485945,5.156455 H 62.886806 v 0.359407 H 79.710969 Z M 77.344965,83.26801 c -0.455879,0 -0.82514,0.381536 -0.82514,0.839378 0,0.457843 0.369261,0.828696 0.82514,0.828696 0.455877,0 0.824759,-0.370853 0.824759,-0.828696 0,0.457843 0.36888,0.828696 0.835775,0.828696 0.455878,0 0.824759,-0.370853 0.824759,-0.828696 0,-0.457842 -0.368881,-0.839378 -0.824759,-0.839378 -0.466895,0 -0.835775,0.381536 -0.835775,0.839378 0,-0.457842 -0.368882,-0.839378 -0.824759,-0.839378 z M 66.1866,70.17523 h 10.235592 v 2.289214 H 66.1866 Z m -0.93341,13.09278 c 0.466896,0 0.835777,0.381536 0.835777,0.839378 0,0.457843 -0.368881,0.828696 -0.835777,0.828696 -0.455877,0 -0.824757,-0.370853 -0.824757,-0.828696 0,0.457843 -0.369261,0.828696 -0.82514,0.828696 -0.455877,0 -0.824759,-0.370853 -0.824759,-0.828696 0,-0.457842 0.368882,-0.839378 0.824759,-0.839378 0.455879,0 0.82514,0.381536 0.82514,0.839378 0,-0.457842 0.36888,-0.839378 0.824757,-0.839378 z"
           style="fill:#040404;fill-opacity:1;fill-rule:evenodd;stroke:none;stroke-width:0.22986472"
           id="path708"
           inkscape:connector-curvature="0" />
        <path
           d="m 88.38366,79.311104 v 0 c 0.835777,0 1.521113,0.686763 1.521113,1.526141 v 0.544834 2.507453 0.555897 c 0,0.414348 -0.163363,0.795883 -0.435743,1.0683 v 4.523869 h -2.160101 v -4.523869 c -0.271246,-0.272417 -0.44486,-0.653952 -0.44486,-1.0683 v -0.555897 -2.507453 -0.544834 c 0,-0.839378 0.683816,-1.526141 1.519591,-1.526141 z"
           style="fill:#040404;fill-opacity:1;fill-rule:evenodd;stroke:none;stroke-width:0.22986472"
           id="path712"
           inkscape:connector-curvature="0" />
        <path
           d="m 88.339973,77.119943 c 0.499566,0 0.901118,0.403283 0.901118,0.904622 0,0.490654 -0.401552,0.893937 -0.901118,0.893937 -0.499186,0 -0.900738,-0.403283 -0.900738,-0.893937 0,-0.501339 0.401552,-0.904622 0.900738,-0.904622 z"
           style="fill:#040404;fill-opacity:1;fill-rule:evenodd;stroke:none;stroke-width:0.22986472"
           id="path716"
           inkscape:connector-curvature="0" />
        <path
           d="m 60.750534,90.327857 h 33.44408 V 69.37307 H 80.927827 v -1.660284 l 15.822706,-7.66256 V 90.863432 H 60.750534 Z"
           style="fill:#040404;fill-opacity:1;fill-rule:evenodd;stroke:none;stroke-width:0.22986472"
           id="path720"
           inkscape:connector-curvature="0" />
      </g>
    </g>
  </g>
</svg>
