<?xml version="1.0" encoding="UTF-8" standalone="no"?>
<!-- Created with Inkscape (http://www.inkscape.org/) -->

<svg
   xmlns:dc="http://purl.org/dc/elements/1.1/"
   xmlns:cc="http://creativecommons.org/ns#"
   xmlns:rdf="http://www.w3.org/1999/02/22-rdf-syntax-ns#"
   xmlns:svg="http://www.w3.org/2000/svg"
   xmlns="http://www.w3.org/2000/svg"
   xmlns:sodipodi="http://sodipodi.sourceforge.net/DTD/sodipodi-0.dtd"
   xmlns:inkscape="http://www.inkscape.org/namespaces/inkscape"
   width="210mm"
   height="297mm"
   viewBox="0 0 210 297"
   version="1.1"
   id="svg8"
   inkscape:version="0.92.3 (2405546, 2018-03-11)"
   sodipodi:docname="D5A2.svg">
  <defs
     id="defs2" />
  <sodipodi:namedview
     id="base"
     pagecolor="#ffffff"
     bordercolor="#666666"
     borderopacity="1.0"
     inkscape:pageopacity="0.0"
     inkscape:pageshadow="2"
     inkscape:zoom="2.2533681"
     inkscape:cx="276.58598"
     inkscape:cy="791.92567"
     inkscape:document-units="mm"
     inkscape:current-layer="layer1"
     showgrid="false"
     inkscape:window-width="1366"
     inkscape:window-height="704"
     inkscape:window-x="0"
     inkscape:window-y="27"
     inkscape:window-maximized="1"
     showguides="true"
     inkscape:guide-bbox="true">
    <sodipodi:guide
       position="74.324852,235"
       orientation="0,1"
       id="guide814"
       inkscape:locked="false"
       inkscape:label="whiteBoxN"
       inkscape:color="rgb(157,250,155)" />
    <sodipodi:guide
       position="95.75,192"
       orientation="0,1"
       id="guide816"
       inkscape:locked="false"
       inkscape:label="whiteBoxS"
       inkscape:color="rgb(157,250,156)" />
    <sodipodi:guide
       position="55,190"
       orientation="1,0"
       id="guide818"
       inkscape:locked="false"
       inkscape:label="whiteBoxW"
       inkscape:color="rgb(157,250,156)" />
    <sodipodi:guide
       position="95,205"
       orientation="1,0"
       id="guide820"
       inkscape:locked="false"
       inkscape:label="whiteBoxE"
       inkscape:color="rgb(157,250,156)" />
  </sodipodi:namedview>
  <metadata
     id="metadata5">
    <rdf:RDF>
      <cc:Work
         rdf:about="">
        <dc:format>image/svg+xml</dc:format>
        <dc:type
           rdf:resource="http://purl.org/dc/dcmitype/StillImage" />
        <dc:title />
        <cc:license
           rdf:resource="http://creativecommons.org/publicdomain/zero/1.0/" />
      </cc:Work>
      <cc:License
         rdf:about="http://creativecommons.org/publicdomain/zero/1.0/">
        <cc:permits
           rdf:resource="http://creativecommons.org/ns#Reproduction" />
        <cc:permits
           rdf:resource="http://creativecommons.org/ns#Distribution" />
        <cc:permits
           rdf:resource="http://creativecommons.org/ns#DerivativeWorks" />
      </cc:License>
    </rdf:RDF>
  </metadata>
  <g
     inkscape:label="Layer 1"
     inkscape:groupmode="layer"
     id="layer1">
    <rect
       style="fill:#0000ff;fill-opacity:1;stroke:none;stroke-width:1.25;stroke-linejoin:round;stroke-miterlimit:4;stroke-dasharray:none"
       id="rect812"
       width="50"
       height="60"
       x="50"
       y="57"
       rx="3.7"
       ry="3.7" />
    <rect
       style="fill:#ffffff;fill-opacity:1;stroke:none;stroke-width:1.25;stroke-linejoin:round;stroke-miterlimit:4;stroke-dasharray:none"
       id="rect824"
       width="40"
       height="43"
       x="54.999996"
       y="61.999996" />
    <g
       id="g852"
       transform="matrix(1.4911212,0,0,1.4917405,-33.231758,-46.577553)"
       style="stroke-width:0.67049706">
      <path
         inkscape:connector-curvature="0"
         id="path748"
         style="fill:#040404;fill-opacity:1;fill-rule:evenodd;stroke:none;stroke-width:0.15412362"
         d="m 66.91189,83.139107 h 2.941008 c 0.720294,0 1.460532,0.368775 1.72898,1.322979 0.478209,1.705584 0.399577,3.523643 0.60269,5.288461 0.05892,0.513519 -0.08505,1.508059 -0.170331,1.541018 v 0.61885 c 0.104766,0.0067 0.163683,0.08574 0.163683,0.164796 v 1.178697 H 61.108735 v -1.178697 c 0,-0.07906 0.05892,-0.158112 0.163683,-0.164796 v -0.61885 c -0.08505,-0.03296 -0.222599,-1.027499 -0.170331,-1.541018 0.203113,-1.764818 0.124481,-3.582877 0.60269,-5.288461 0.268448,-0.954204 1.008686,-1.322979 1.729209,-1.322979 h 2.940779 c -0.379862,-0.06684 -0.64831,-0.283496 -0.64831,-0.539333 0,-0.05301 0.01307,-0.112938 0.03255,-0.159035 h -2.226904 v 0.09219 c 0,0.163644 -0.484628,0.163644 -0.484628,0 V 81.92676 h 7.191703 v 0.606173 c 0,0.163644 -0.484628,0.163644 -0.484628,0 v -0.09219 h -2.226904 c 0.02613,0.0461 0.0392,0.106023 0.0392,0.159034 0,0.255838 -0.275096,0.472493 -0.654958,0.539334 z m -0.268448,-1.080971 c 0.242314,0 0.438778,0.198216 0.438778,0.442529 0,0.242009 -0.196464,0.440225 -0.438778,0.440225 -0.242543,0 -0.439008,-0.198216 -0.439008,-0.440225 0,-0.244313 0.196465,-0.442529 0.439008,-0.442529 z m 4.453808,9.911514 h -8.907845 v 0.276581 h 8.907845 z m -1.251,-1.580431 c -0.242314,0 -0.438779,0.197525 -0.438779,0.434693 0,0.243622 0.196465,0.441147 0.438779,0.441147 0.242314,0 0.432359,-0.197525 0.432359,-0.441147 0,0.243622 0.196465,0.441147 0.438779,0.441147 0.242314,0 0.438778,-0.197525 0.438778,-0.441147 0,-0.237168 -0.196464,-0.434693 -0.438778,-0.434693 -0.242314,0 -0.438779,0.197525 -0.438779,0.434693 0,-0.237168 -0.190045,-0.434693 -0.432359,-0.434693 z m 1.604728,-1.705583 -0.379862,-3.306527 -3.995544,-0.341117 v 3.647644 z m -7.512649,-5.23568 h 5.416645 v 1.212347 h -5.416645 z m -0.491276,6.941263 c 0.235666,0 0.432131,0.197525 0.432131,0.434693 0,0.243622 -0.196465,0.441147 -0.432131,0.441147 -0.242314,0 -0.439007,-0.197525 -0.439007,-0.441147 0,0.243622 -0.196465,0.441147 -0.438779,0.441147 -0.242314,0 -0.438778,-0.197525 -0.438778,-0.441147 0,-0.237168 0.196464,-0.434693 0.438778,-0.434693 0.242314,0 0.438779,0.197525 0.438779,0.434693 0,-0.237168 0.196693,-0.434693 0.439007,-0.434693 z m -1.611376,-1.705583 0.379862,-3.306527 3.995544,-0.341117 v 3.647644 z" />
      <path
         inkscape:connector-curvature="0"
         id="path752"
         style="fill:#040404;fill-opacity:1;fill-rule:evenodd;stroke:none;stroke-width:0.15412362"
         d="m 62.34002,96.204106 0.34708,-0.61908 h 7.912455 l 0.34708,0.61908 z m 0.799155,-1.422548 0.281515,-0.500382 h 6.445275 l 0.281515,0.500382 z m 0.661606,-1.178697 0.196465,-0.348953 h -0.60269 l -0.196465,0.348953 h -0.720523 -0.01307 l -0.379862,0.678315 h 0.0064 0.727171 l -0.281745,0.500382 h -0.720523 -0.01307 l -0.451846,0.803468 h 0.01307 0.726942 l -0.353498,0.61908 h -0.727171 -0.0064 l -0.491276,0.888978 v 0 h 0.73359 l -0.248963,0.447831 h 0.60269 l 0.248733,-0.447831 h 9.589167 l 0.255381,0.447831 h 0.60269 l -0.25561,-0.447831 h 0.733589 v 0 l -0.491046,-0.888978 h -0.0066 -0.726942 l -0.347309,-0.61908 h 0.727171 0.0064 l -0.451846,-0.803468 h -0.01307 -0.720522 l -0.281745,-0.500382 h 0.727171 0.0064 l -0.379871,-0.678315 h -0.01307 -0.720523 l -0.189816,-0.348953 h -0.60269 l 0.190045,0.348953 z" />
      <path
         inkscape:connector-curvature="0"
         id="path756"
         style="fill:#040404;fill-opacity:1;fill-rule:evenodd;stroke:none;stroke-width:0.15412362"
         d="m 73.009857,92.061843 h 3.209455 3.576251 v -8.586229 h -4.807535 v -0.87584 l 9.667568,-5.743668 v 15.205737 3.911779 h -8.436284 v -3.167545 h -3.209455 z" />
      <path
         inkscape:connector-curvature="0"
         id="path760"
         style="fill:#040404;fill-opacity:1;fill-rule:evenodd;stroke:none;stroke-width:0.15412362"
         d="m 77.129652,86.833769 v 0 c 0.406225,0 0.740238,0.334202 0.740238,0.743542 v 0.270128 1.218109 0.270128 c 0,0.204209 -0.07863,0.388596 -0.21618,0.526887 v 2.19928 h -1.047887 v -2.19928 c -0.13113,-0.138291 -0.21618,-0.322678 -0.21618,-0.526887 v -0.270128 -1.218109 -0.270128 c 0,-0.40934 0.334012,-0.743542 0.740009,-0.743542 z" />
      <path
         inkscape:connector-curvature="0"
         id="path764"
         style="fill:#040404;fill-opacity:1;fill-rule:evenodd;stroke:none;stroke-width:0.15412362"
         d="m 77.110166,85.766627 c 0.235665,0 0.43213,0.198217 0.43213,0.440225 0,0.244314 -0.196465,0.44253 -0.43213,0.44253 -0.242314,0 -0.439008,-0.198216 -0.439008,-0.44253 0,-0.242008 0.196694,-0.440225 0.439008,-0.440225 z" />
    </g>
  </g>
</svg>
