<?xml version="1.0" encoding="UTF-8" standalone="no"?>
<!-- Created with Inkscape (http://www.inkscape.org/) -->

<svg
   xmlns:dc="http://purl.org/dc/elements/1.1/"
   xmlns:cc="http://creativecommons.org/ns#"
   xmlns:rdf="http://www.w3.org/1999/02/22-rdf-syntax-ns#"
   xmlns:svg="http://www.w3.org/2000/svg"
   xmlns="http://www.w3.org/2000/svg"
   xmlns:sodipodi="http://sodipodi.sourceforge.net/DTD/sodipodi-0.dtd"
   xmlns:inkscape="http://www.inkscape.org/namespaces/inkscape"
   width="50mm"
   height="60mm"
   viewBox="0 0 50 60"
   version="1.1"
   id="svg8"
   inkscape:version="0.92.3 (2405546, 2018-03-11)"
   sodipodi:docname="D5A3.svg">
  <defs
     id="defs2" />
  <sodipodi:namedview
     id="base"
     pagecolor="#ffffff"
     bordercolor="#666666"
     borderopacity="1.0"
     inkscape:pageopacity="0.0"
     inkscape:pageshadow="2"
     inkscape:zoom="2.2533681"
     inkscape:cx="94.488187"
     inkscape:cy="113.38582"
     inkscape:document-units="mm"
     inkscape:current-layer="layer1"
     showgrid="false"
     inkscape:window-width="1366"
     inkscape:window-height="704"
     inkscape:window-x="0"
     inkscape:window-y="27"
     inkscape:window-maximized="1"
     showguides="true"
     inkscape:guide-bbox="true">
    <sodipodi:guide
       position="24.324852,54.999999"
       orientation="0,1"
       id="guide814"
       inkscape:locked="false"
       inkscape:label="whiteBoxN"
       inkscape:color="rgb(157,250,155)" />
    <sodipodi:guide
       position="45.75,11.999999"
       orientation="0,1"
       id="guide816"
       inkscape:locked="false"
       inkscape:label="whiteBoxS"
       inkscape:color="rgb(157,250,156)" />
    <sodipodi:guide
       position="4.9999999,9.9999995"
       orientation="1,0"
       id="guide818"
       inkscape:locked="false"
       inkscape:label="whiteBoxW"
       inkscape:color="rgb(157,250,156)" />
    <sodipodi:guide
       position="45,24.999999"
       orientation="1,0"
       id="guide820"
       inkscape:locked="false"
       inkscape:label="whiteBoxE"
       inkscape:color="rgb(157,250,156)" />
  </sodipodi:namedview>
  <metadata
     id="metadata5">
    <rdf:RDF>
      <cc:Work
         rdf:about="">
        <dc:format>image/svg+xml</dc:format>
        <dc:type
           rdf:resource="http://purl.org/dc/dcmitype/StillImage" />
        <dc:title />
        <cc:license
           rdf:resource="http://creativecommons.org/publicdomain/zero/1.0/" />
      </cc:Work>
      <cc:License
         rdf:about="http://creativecommons.org/publicdomain/zero/1.0/">
        <cc:permits
           rdf:resource="http://creativecommons.org/ns#Reproduction" />
        <cc:permits
           rdf:resource="http://creativecommons.org/ns#Distribution" />
        <cc:permits
           rdf:resource="http://creativecommons.org/ns#DerivativeWorks" />
      </cc:License>
    </rdf:RDF>
  </metadata>
  <g
     inkscape:label="Layer 1"
     inkscape:groupmode="layer"
     id="layer1"
     transform="translate(-50,-57)">
    <rect
       style="fill:#0000ff;fill-opacity:1;stroke:none;stroke-width:1.25;stroke-linejoin:round;stroke-miterlimit:4;stroke-dasharray:none"
       id="rect812"
       width="50"
       height="60"
       x="50"
       y="57"
       rx="3.7"
       ry="3.7" />
    <rect
       style="fill:#ffffff;fill-opacity:1;stroke:none;stroke-width:1.25;stroke-linejoin:round;stroke-miterlimit:4;stroke-dasharray:none"
       id="rect824"
       width="40"
       height="43"
       x="54.999996"
       y="61.999996" />
    <g
       id="g831"
       transform="translate(-0.03900131,-6.8686673)">
      <path
         inkscape:connector-curvature="0"
         id="path794"
         style="fill:#040404;fill-opacity:1;fill-rule:evenodd;stroke:none;stroke-width:0.22986472"
         d="m 57.038997,92.634323 h 6.138508 c 0,13.607837 0,8.261237 0,14.432877 h -6.138508 z" />
      <path
         inkscape:connector-curvature="0"
         id="path796"
         style="fill:#040404;fill-opacity:1;fill-rule:evenodd;stroke:none;stroke-width:0.22986472"
         d="m 93.038998,103.50979 v -1.62869 c -0.723625,0.38589 -1.40622,0.90003 -2.461819,0.93228 -1.693434,-0.0641 -2.439438,-1.36092 -3.953832,-1.35005 -0.191722,0 -0.383818,0.0213 -0.55428,0.0537 l 3.538304,-11.368612 -11.243425,-4.383941 -11.23261,4.383941 3.516671,11.314982 c -1.406594,0.075 -2.163417,1.29643 -3.80463,1.35006 -1.044408,-0.0322 -1.737073,-0.54639 -2.461819,-0.93229 v 1.62869 c 0.724746,0.3859 1.417411,0.88954 2.461819,0.9323 1.694553,-0.0644 2.451376,-1.37143 3.953832,-1.36093 1.513646,-0.0114 2.25965,1.29642 3.953829,1.36093 1.70537,-0.0644 2.451376,-1.37143 3.964648,-1.36093 1.50283,-0.0114 2.259279,1.29642 3.953832,1.36093 1.694551,-0.0644 2.451002,-1.37143 3.953829,-1.36093 1.514394,-0.0114 2.260398,1.29642 3.953832,1.36093 1.055599,-0.0428 1.738194,-0.5464 2.461819,-0.9323 z M 70.669642,80.109155 H 86.452886 V 79.250368 H 70.669642 Z m 14.717574,7.541578 v -6.68654 H 71.341047 v 6.68654 l 7.022899,-2.741369 z m -9.506351,-5.794002 h -2.749404 v 1.188802 h 2.749404 z m 4.976978,0 h 2.749405 v 1.188802 h -2.749405 z m -3.868786,0 h 2.749776 v 1.188802 h -2.749776 z m 5.47792,-3.450149 -1.481194,-4.736455 h -5.232857 l -1.481196,4.736455 z" />
      <path
         inkscape:connector-curvature="0"
         id="path798"
         style="fill:#040404;fill-opacity:1;fill-rule:evenodd;stroke:none;stroke-width:0.22986472"
         d="m 93.038998,106.1349 v -1.3178 c -0.723625,0.38552 -1.40622,0.90003 -2.461819,0.9323 -1.693434,-0.0644 -2.45063,-1.36094 -3.953832,-1.35007 -1.502827,-0.0114 -2.259278,1.28556 -3.953829,1.35007 -1.694553,-0.0644 -2.451002,-1.36094 -3.953832,-1.35007 -1.513272,-0.0114 -2.259278,1.28556 -3.964648,1.35007 -1.694179,-0.0644 -2.440183,-1.36094 -3.953829,-1.35007 -1.502456,-0.0114 -2.259279,1.28556 -3.953832,1.35007 -1.044408,-0.0322 -1.737073,-0.54678 -2.461819,-0.9323 v 1.3178 c 0.724746,0.3859 1.417411,0.88954 2.461819,0.9323 1.694553,-0.0644 2.451376,-1.37143 3.953832,-1.36093 1.513646,-0.0114 2.25965,1.29642 3.953829,1.36093 1.70537,-0.0644 2.451376,-1.37143 3.964648,-1.36093 1.50283,-0.0114 2.259279,1.29642 3.953832,1.36093 1.694551,-0.0644 2.451002,-1.37143 3.953829,-1.36093 1.503202,-0.0114 2.260398,1.29642 3.953832,1.36093 1.055599,-0.0428 1.738194,-0.5464 2.461819,-0.9323 z" />
    </g>
  </g>
</svg>
