<?xml version="1.0" encoding="UTF-8" standalone="no"?>
<!-- Created with Inkscape (http://www.inkscape.org/) -->

<svg
   xmlns:dc="http://purl.org/dc/elements/1.1/"
   xmlns:cc="http://creativecommons.org/ns#"
   xmlns:rdf="http://www.w3.org/1999/02/22-rdf-syntax-ns#"
   xmlns:svg="http://www.w3.org/2000/svg"
   xmlns="http://www.w3.org/2000/svg"
   xmlns:sodipodi="http://sodipodi.sourceforge.net/DTD/sodipodi-0.dtd"
   xmlns:inkscape="http://www.inkscape.org/namespaces/inkscape"
   width="210mm"
   height="297mm"
   viewBox="0 0 210 297"
   version="1.1"
   id="svg8"
   inkscape:version="0.92.3 (2405546, 2018-03-11)"
   sodipodi:docname="D5A4.svg">
  <defs
     id="defs2" />
  <sodipodi:namedview
     id="base"
     pagecolor="#ffffff"
     bordercolor="#666666"
     borderopacity="1.0"
     inkscape:pageopacity="0.0"
     inkscape:pageshadow="2"
     inkscape:zoom="2.2533681"
     inkscape:cx="276.58598"
     inkscape:cy="791.92567"
     inkscape:document-units="mm"
     inkscape:current-layer="layer1"
     showgrid="false"
     inkscape:window-width="1366"
     inkscape:window-height="704"
     inkscape:window-x="0"
     inkscape:window-y="27"
     inkscape:window-maximized="1"
     showguides="true"
     inkscape:guide-bbox="true">
    <sodipodi:guide
       position="74.324852,235"
       orientation="0,1"
       id="guide814"
       inkscape:locked="false"
       inkscape:label="whiteBoxN"
       inkscape:color="rgb(157,250,155)" />
    <sodipodi:guide
       position="95.75,192"
       orientation="0,1"
       id="guide816"
       inkscape:locked="false"
       inkscape:label="whiteBoxS"
       inkscape:color="rgb(157,250,156)" />
    <sodipodi:guide
       position="55,190"
       orientation="1,0"
       id="guide818"
       inkscape:locked="false"
       inkscape:label="whiteBoxW"
       inkscape:color="rgb(157,250,156)" />
    <sodipodi:guide
       position="95,205"
       orientation="1,0"
       id="guide820"
       inkscape:locked="false"
       inkscape:label="whiteBoxE"
       inkscape:color="rgb(157,250,156)" />
  </sodipodi:namedview>
  <metadata
     id="metadata5">
    <rdf:RDF>
      <cc:Work
         rdf:about="">
        <dc:format>image/svg+xml</dc:format>
        <dc:type
           rdf:resource="http://purl.org/dc/dcmitype/StillImage" />
        <dc:title />
        <cc:license
           rdf:resource="http://creativecommons.org/publicdomain/zero/1.0/" />
      </cc:Work>
      <cc:License
         rdf:about="http://creativecommons.org/publicdomain/zero/1.0/">
        <cc:permits
           rdf:resource="http://creativecommons.org/ns#Reproduction" />
        <cc:permits
           rdf:resource="http://creativecommons.org/ns#Distribution" />
        <cc:permits
           rdf:resource="http://creativecommons.org/ns#DerivativeWorks" />
      </cc:License>
    </rdf:RDF>
  </metadata>
  <g
     inkscape:label="Layer 1"
     inkscape:groupmode="layer"
     id="layer1">
    <rect
       style="fill:#0000ff;fill-opacity:1;stroke:none;stroke-width:1.25;stroke-linejoin:round;stroke-miterlimit:4;stroke-dasharray:none"
       id="rect812"
       width="50"
       height="60"
       x="50"
       y="57"
       rx="3.7"
       ry="3.7" />
    <rect
       style="fill:#ffffff;fill-opacity:1;stroke:none;stroke-width:1.25;stroke-linejoin:round;stroke-miterlimit:4;stroke-dasharray:none"
       id="rect824"
       width="40"
       height="43"
       x="54.999996"
       y="61.999996" />
    <path
       d="m 69.735548,82.688181 c 0.02285,-0.155704 0.0339,-0.288064 0.0339,-0.389276 h 0.146618 c 0.101286,-0.435991 0.180112,-1.401398 0.06739,-2.226664 0,-0.132346 -0.06739,-0.276387 -0.169077,-0.276387 l -1.520115,-0.01165 c -0.101286,0.01165 -0.157647,0.155704 -0.168675,0.288066 -0.112721,0.825266 -0.0339,1.802351 0.07882,2.238341 l 0.146213,-0.01165 c 0.02246,0.311423 0.101286,0.945943 0.169077,1.311863 l -10.978955,8.397431 -0.326725,0.244856 c -0.202576,0.155705 -0.214005,0.533697 -0.214005,0.778553 l 0.0339,1.334441 0.720448,-0.355798 10.551335,-4.838323 4.515413,-0.678511 h 0.0339 v 4.404669 c 0,1.34573 0.315296,3.87058 0.562802,5.316353 -0.03351,0.255757 -0.12375,0.455844 -0.2814,0.633744 l -4.087403,3.481301 c -0.169076,0.15571 -0.20297,0.28923 -0.20297,0.56718 v 1.26826 l 5.134967,-1.66844 0.01098,0.22228 c 0,0.50061 -0.03351,0.67851 0.146618,1.2126 h 0.416582 0.91199 0.416584 c 0.180506,-0.53409 0.146618,-0.71199 0.146618,-1.2126 v -0.22228 l 5.146002,1.65715 v -1.27916 c 0,-0.26665 -0.0339,-0.40018 -0.202576,-0.55589 l -4.087759,-3.470401 c -0.157647,-0.1779 -0.258937,-0.377987 -0.292831,-0.633744 0.247901,-1.445773 0.551766,-3.970623 0.551766,-5.316353 L 77.134,88.493473 h 0.0339 l 4.515411,0.656322 10.563948,4.816133 0.72912,0.3558 0.0236,-1.334831 c 0,-0.244466 -0.0236,-0.622844 -0.22464,-0.778553 l -0.3153,-0.244466 -11.002204,-8.364782 c 0.0678,-0.36592 0.146618,-1.000442 0.157647,-1.311863 h 0.157677 c 0.101286,-0.432096 0.180111,-1.401396 0.07882,-2.222771 -0.01098,-0.136248 -0.07882,-0.291957 -0.180111,-0.291957 h -1.520115 c -0.101286,0.01165 -0.157647,0.155704 -0.169077,0.291957 -0.101287,0.821375 -0.02246,1.790675 0.07882,2.222771 h 0.146618 c 0,0.101219 0.01098,0.233567 0.0339,0.389276 L 77.75316,80.784618 c -0.225042,-0.175175 -0.63059,-0.521632 -0.619161,-1.023799 l -0.01148,-8.894976 c 0,-1.214543 -0.112315,-2.915684 -0.348795,-4.426078 -0.281802,-1.65832 -0.968751,-3.616381 -1.812952,-3.604704 -0.83356,0 -1.52051,1.946384 -1.79048,3.61249 -0.236472,1.514287 -0.33776,3.203749 -0.33776,4.418292 l 0.01098,8.894976 c 0,0.502167 -0.405154,0.85641 -0.61916,1.023799 z"
       style="fill:#000000;fill-opacity:1;fill-rule:evenodd;stroke:none;stroke-width:0.2319131"
       id="path826"
       inkscape:connector-curvature="0" />
  </g>
</svg>
