<?xml version="1.0" encoding="UTF-8" standalone="no"?>
<!-- Created with Inkscape (http://www.inkscape.org/) -->

<svg
   xmlns:dc="http://purl.org/dc/elements/1.1/"
   xmlns:cc="http://creativecommons.org/ns#"
   xmlns:rdf="http://www.w3.org/1999/02/22-rdf-syntax-ns#"
   xmlns:svg="http://www.w3.org/2000/svg"
   xmlns="http://www.w3.org/2000/svg"
   xmlns:sodipodi="http://sodipodi.sourceforge.net/DTD/sodipodi-0.dtd"
   xmlns:inkscape="http://www.inkscape.org/namespaces/inkscape"
   width="210mm"
   height="297mm"
   viewBox="0 0 210 297"
   version="1.1"
   id="svg8"
   inkscape:version="0.92.3 (2405546, 2018-03-11)"
   sodipodi:docname="D5B1.svg">
  <defs
     id="defs2" />
  <sodipodi:namedview
     id="base"
     pagecolor="#ffffff"
     bordercolor="#666666"
     borderopacity="1.0"
     inkscape:pageopacity="0.0"
     inkscape:pageshadow="2"
     inkscape:zoom="2.2533681"
     inkscape:cx="245.66929"
     inkscape:cy="566.92912"
     inkscape:document-units="mm"
     inkscape:current-layer="layer1"
     showgrid="false"
     inkscape:window-width="1366"
     inkscape:window-height="704"
     inkscape:window-x="0"
     inkscape:window-y="27"
     inkscape:window-maximized="1"
     showguides="true"
     inkscape:guide-bbox="true"
     inkscape:object-nodes="false"
     inkscape:snap-bbox="true"
     inkscape:bbox-paths="true"
     inkscape:bbox-nodes="true"
     inkscape:snap-intersection-paths="true">
    <sodipodi:guide
       position="45,155.10764"
       orientation="1,0"
       id="guide833"
       inkscape:locked="false"
       inkscape:label="whiteBoxW"
       inkscape:color="rgb(0,255,255)" />
    <sodipodi:guide
       position="70.215263,175"
       orientation="0,1"
       id="guide835"
       inkscape:locked="false"
       inkscape:label="whiteBoxN"
       inkscape:color="rgb(0,255,255)" />
    <sodipodi:guide
       position="85,151.58513"
       orientation="1,0"
       id="guide837"
       inkscape:locked="false"
       inkscape:label="whiteBoxE"
       inkscape:color="rgb(0,255,255)" />
    <sodipodi:guide
       position="61.878668,132"
       orientation="0,1"
       id="guide839"
       inkscape:locked="false"
       inkscape:label="whiteBoxS"
       inkscape:color="rgb(0,255,255)" />
  </sodipodi:namedview>
  <metadata
     id="metadata5">
    <rdf:RDF>
      <cc:Work
         rdf:about="">
        <dc:format>image/svg+xml</dc:format>
        <dc:type
           rdf:resource="http://purl.org/dc/dcmitype/StillImage" />
        <dc:title />
        <cc:license
           rdf:resource="http://creativecommons.org/publicdomain/zero/1.0/" />
      </cc:Work>
      <cc:License
         rdf:about="http://creativecommons.org/publicdomain/zero/1.0/">
        <cc:permits
           rdf:resource="http://creativecommons.org/ns#Reproduction" />
        <cc:permits
           rdf:resource="http://creativecommons.org/ns#Distribution" />
        <cc:permits
           rdf:resource="http://creativecommons.org/ns#DerivativeWorks" />
      </cc:License>
    </rdf:RDF>
  </metadata>
  <g
     inkscape:label="Layer 1"
     inkscape:groupmode="layer"
     id="layer1">
    <g
       id="g827">
      <rect
         ry="3.7"
         rx="3.7"
         y="117"
         x="40"
         height="60"
         width="50"
         id="rect812"
         style="fill:#0000ff;fill-opacity:1;stroke:none;stroke-width:0.1;stroke-linejoin:round;stroke-miterlimit:4;stroke-dasharray:none" />
      <rect
         y="122"
         x="45"
         height="43"
         width="40"
         id="rect841"
         style="fill:#ffffff;fill-opacity:1;stroke:none;stroke-width:0.1;stroke-linejoin:round;stroke-miterlimit:4;stroke-dasharray:none" />
      <path
         inkscape:connector-curvature="0"
         id="path674"
         style="fill:#040404;fill-opacity:1;fill-rule:evenodd;stroke:none;stroke-width:0.22986473"
         d="m 60.490755,159.6133 1.786587,-0.95163 2.956055,1.50771 -0.07444,0.30985 z m -7.44411,-2.27748 V 143.9816 h 12.186752 v 1.47553 c 0,1.50771 0.202107,1.16569 -1.031381,1.99944 l -1.276292,0.87677 -0.393422,8.44677 c -0.03164,0.59875 -0.07444,0.91944 -0.584734,1.18665 l -2.339686,1.251 V 162.5 h -1.254704 v -0.63056 c 0.521089,-0.6096 0.829274,-1.41154 0.829274,-2.27748 0,-1.92458 -1.55247,-3.49628 -3.466722,-3.49628 -1.063391,0 -2.020704,0.48124 -2.669085,1.24014 z m 5.529856,-2.86535 -1.23386,-1.251 1.15942,-1.10132 0.08487,0.56694 c 0,0 1.956684,0.18149 1.786587,-0.64178 0,0 -0.521089,-0.99429 -0.584736,-1.10094 -0.06402,-0.10699 0.978156,-0.63093 0.978156,-0.63093 l 0.638333,1.20797 c 0,0 0.712401,1.56123 -1.084981,2.27747 0,0 -1.478027,0.14969 -1.594899,0.0536 -0.11724,-0.107 -0.148884,0.62008 -0.148884,0.62008 z m 1.999117,-5.99792 -0.467863,1.69969 -1.531254,-0.47038 0.457068,-0.35289 c 0,0 -0.808058,-1.79624 -1.446018,-1.22929 0,0 -0.595529,0.94077 -0.659547,1.04778 -0.06365,0.10668 -1.031382,-0.54521 -1.031382,-0.54521 l 0.723196,-1.15484 c 0,0 0.99937,-1.38982 2.509409,-0.17101 0,0 0.872077,1.20797 0.84044,1.35765 -0.03201,0.1497 0.605951,-0.1815 0.605951,-0.1815 z m -6.146602,1.38984 1.701351,-0.43857 0.361784,1.56122 -0.531883,-0.21406 c 0,0 -1.13783,1.60387 -0.340194,1.87108 0,0 1.116616,0.0536 1.233489,0.0536 0.127664,0 0.05322,1.16568 0.05322,1.16568 l -1.361157,-0.0431 c 0,0 -1.690928,-0.17101 -1.403958,-2.10606 0,0 0.606322,-1.35803 0.755205,-1.41154 0.138087,-0.0428 -0.467862,-0.43822 -0.467862,-0.43822 z m 1.286714,6.83203 c 1.58448,0 2.871194,1.30451 2.871194,2.89754 0,1.61437 -1.286714,2.90804 -2.871194,2.90804 -1.605694,0 -2.892408,-1.29367 -2.892408,-2.90804 0,-1.59303 1.286714,-2.89754 2.892408,-2.89754 z m 0,1.83889 c 0.584736,0 1.052969,0.47039 1.052969,1.05865 0,0.59876 -0.468233,1.07999 -1.052969,1.07999 -0.595529,0 -1.063391,-0.48123 -1.063391,-1.07999 0,-0.58826 0.467862,-1.05865 1.063391,-1.05865 z m -2.669085,-14.55171 8.358618,-8.91753 -0.361784,-0.34053 -8.347824,8.91753 z M 69.498129,124.5 c 1.424802,0 2.58385,1.16753 2.58385,2.58956 0,1.43324 -1.159048,2.59705 -2.58385,2.59705 -1.414381,0 -2.573801,-1.16381 -2.573801,-2.59705 0,-1.42203 1.15942,-2.58956 2.573801,-2.58956 z m -7.795101,16.33821 5.40219,-3.62615 c 0.255334,-1.05528 1.286716,-5.77037 3.360644,-6.86309 4.530115,-2.22285 7.708749,11.33496 6.62563,14.44542 l -0.532252,16.47631 -3.190173,-0.41725 v -13.47173 l -2.222814,2.37364 -3.0733,9.41972 -2.935212,-1.07997 2.648242,-9.92192 3.073301,-5.53876 -1.180636,-4.09391 -1.254705,1.64655 -5.859631,1.94592 z m -3.605182,1.20871 3.147741,-1.03658 0.595529,1.80746 -3.158535,1.0478 z" />
    </g>
  </g>
</svg>
