<?xml version="1.0" encoding="UTF-8" standalone="no"?>
<!-- Created with Inkscape (http://www.inkscape.org/) -->

<svg
   xmlns:dc="http://purl.org/dc/elements/1.1/"
   xmlns:cc="http://creativecommons.org/ns#"
   xmlns:rdf="http://www.w3.org/1999/02/22-rdf-syntax-ns#"
   xmlns:svg="http://www.w3.org/2000/svg"
   xmlns="http://www.w3.org/2000/svg"
   xmlns:sodipodi="http://sodipodi.sourceforge.net/DTD/sodipodi-0.dtd"
   xmlns:inkscape="http://www.inkscape.org/namespaces/inkscape"
   width="210mm"
   height="297mm"
   viewBox="0 0 210 297"
   version="1.1"
   id="svg8"
   inkscape:version="0.92.3 (2405546, 2018-03-11)"
   sodipodi:docname="D5B2.svg">
  <defs
     id="defs2" />
  <sodipodi:namedview
     id="base"
     pagecolor="#ffffff"
     bordercolor="#666666"
     borderopacity="1.0"
     inkscape:pageopacity="0.0"
     inkscape:pageshadow="2"
     inkscape:zoom="2.2533681"
     inkscape:cx="238.7907"
     inkscape:cy="565.15401"
     inkscape:document-units="mm"
     inkscape:current-layer="layer1"
     showgrid="false"
     inkscape:window-width="1366"
     inkscape:window-height="704"
     inkscape:window-x="0"
     inkscape:window-y="27"
     inkscape:window-maximized="1"
     showguides="true"
     inkscape:guide-bbox="true"
     inkscape:object-nodes="false"
     inkscape:snap-bbox="true"
     inkscape:bbox-paths="true"
     inkscape:bbox-nodes="true"
     inkscape:snap-intersection-paths="true">
    <sodipodi:guide
       position="45,155.10764"
       orientation="1,0"
       id="guide833"
       inkscape:locked="false"
       inkscape:label="whiteBoxW"
       inkscape:color="rgb(0,255,255)" />
    <sodipodi:guide
       position="70.215263,175"
       orientation="0,1"
       id="guide835"
       inkscape:locked="false"
       inkscape:label="whiteBoxN"
       inkscape:color="rgb(0,255,255)" />
    <sodipodi:guide
       position="85,151.58513"
       orientation="1,0"
       id="guide837"
       inkscape:locked="false"
       inkscape:label="whiteBoxE"
       inkscape:color="rgb(0,255,255)" />
    <sodipodi:guide
       position="61.878668,132"
       orientation="0,1"
       id="guide839"
       inkscape:locked="false"
       inkscape:label="whiteBoxS"
       inkscape:color="rgb(0,255,255)" />
  </sodipodi:namedview>
  <metadata
     id="metadata5">
    <rdf:RDF>
      <cc:Work
         rdf:about="">
        <dc:format>image/svg+xml</dc:format>
        <dc:type
           rdf:resource="http://purl.org/dc/dcmitype/StillImage" />
        <dc:title />
        <cc:license
           rdf:resource="http://creativecommons.org/publicdomain/zero/1.0/" />
      </cc:Work>
      <cc:License
         rdf:about="http://creativecommons.org/publicdomain/zero/1.0/">
        <cc:permits
           rdf:resource="http://creativecommons.org/ns#Reproduction" />
        <cc:permits
           rdf:resource="http://creativecommons.org/ns#Distribution" />
        <cc:permits
           rdf:resource="http://creativecommons.org/ns#DerivativeWorks" />
      </cc:License>
    </rdf:RDF>
  </metadata>
  <g
     inkscape:label="Layer 1"
     inkscape:groupmode="layer"
     id="layer1">
    <rect
       style="fill:#0000ff;fill-opacity:1;stroke:none;stroke-width:0.1;stroke-linejoin:round;stroke-miterlimit:4;stroke-dasharray:none"
       id="rect812"
       width="50"
       height="60"
       x="40"
       y="117"
       rx="3.7"
       ry="3.7" />
    <rect
       style="fill:#ffffff;fill-opacity:1;stroke:none;stroke-width:0.1;stroke-linejoin:round;stroke-miterlimit:4;stroke-dasharray:none"
       id="rect841"
       width="40"
       height="43"
       x="45"
       y="122" />
    <g
       id="g828"
       transform="translate(-7.632693,3.3842727)">
      <path
         inkscape:connector-curvature="0"
         id="path702"
         style="fill:#040404;fill-opacity:1;fill-rule:evenodd;stroke:none;stroke-width:0.23269165"
         d="m 54.632693,144.9728 h 2.174815 c 0.282988,-1.74848 1.804438,-3.09919 3.677147,-3.09919 1.833454,0 3.364803,1.35071 3.637891,3.09919 h 6.60296 c 0,0.1846 0,0.55381 0,0.72855 0.0095,0.19447 0.04881,0.22335 0.341362,0.22335 h 3.579517 c 0.282649,0 0.26319,0.0486 0.26319,-0.39809 v -0.55381 h 3.969696 c 0.282647,-1.74848 1.804096,-3.09919 3.676806,-3.09919 1.833112,0 3.365826,1.35071 3.649156,3.09919 h 4.42746 v -1.04881 h -1.454199 v -1.17563 h -1.208422 v -1.03793 h 2.662621 V 134.996 h -0.56666 v 0.51676 H 70.764421 l -6.485871,-2.28461 h -4.574246 v 0.64254 l 4.574246,0.0679 1.199545,1.57407 v 6.19767 h 10.758012 v 1.03793 H 63.712913 l 0.06827,-3.89368 h 0.585095 V 135.0265 H 63.9959 v 2.17581 h -0.185359 l 0.02902,-1.68965 c -1.609179,0 -3.218358,0 -4.827537,0 -0.35126,0 -0.400075,0.15299 -0.458448,0.24137 l -2.477263,4.07966 v 0.81593 h -0.312346 v 3.19641 H 55.65678 v -2.59466 h -0.156004 v 2.68203 l -0.321903,0.1846 v 0.4372 l -0.546178,0.14553 z m 4.905708,-8.62712 h 3.335787 v 2.99175 H 57.42196 l 1.648434,-2.71976 c 0.126638,-0.20398 0.107181,-0.27199 0.468007,-0.27199 z m 0.936355,6.48054 c 1.511891,0 2.740794,1.22389 2.740794,2.72962 0,1.53464 -1.228903,2.75853 -2.740794,2.75853 -1.531007,0 -2.75035,-1.22389 -2.75035,-2.75853 0,-1.50573 1.219343,-2.72962 2.75035,-2.72962 z m 0,1.72908 c 0.556079,0 1.014527,0.45659 1.014527,1.01006 0,0.56334 -0.458448,1.01039 -1.014527,1.01039 -0.565635,0 -1.014185,-0.44705 -1.014185,-1.01039 0,-0.55347 0.44855,-1.01006 1.014185,-1.01006 z m 22.081321,-1.72908 c 1.501991,0 2.730893,1.22389 2.730893,2.72962 0,1.53464 -1.228902,2.75853 -2.730893,2.75853 -1.540907,0 -2.760251,-1.22389 -2.760251,-2.75853 0,-1.50573 1.219344,-2.72962 2.760251,-2.72962 z m -0.01,1.72908 c 0.556077,0 1.003262,0.45659 1.003262,1.01006 0,0.56334 -0.447185,1.01039 -1.003262,1.01039 -0.565636,0 -1.014186,-0.44705 -1.014186,-1.01039 0,-0.55347 0.44855,-1.01006 1.014186,-1.01006 z" />
      <path
         inkscape:connector-curvature="0"
         id="path704"
         style="fill:#040404;fill-opacity:1;fill-rule:evenodd;stroke:none;stroke-width:0.23269165"
         d="m 90.066033,134.02708 c -0.252608,-0.51675 -0.167267,-0.30257 -0.28333,-0.49636 -0.215058,-0.37056 -0.634932,-0.38076 -0.809028,-0.44875 -0.204816,-0.0679 -1.249383,-0.37737 -1.570263,-0.50316 -0.351602,-0.13601 -2.095961,-0.60175 -2.945951,-0.65955 -0.839749,-0.051 -3.920197,0.81594 -4.554105,0.37738 -0.507264,-0.36039 -1.921525,-0.30259 -2.409331,-0.26178 -0.477907,0.0272 -2.39909,-0.0476 -2.974626,-0.0204 -0.575535,0.0306 -1.15073,-0.0679 -2.067626,-0.0679 -0.945914,0 -0.760897,0.0408 -1.501992,0.15639 -0.409635,0.0679 -0.702181,0.10541 -0.838726,0.11566 -0.477907,0.0578 -0.97527,0.18357 -1.102256,0.23456 -0.438651,0.18359 -1.219004,0.61197 -1.501993,0.87373 l 3.423517,1.21371 h 18.159416 v -0.51336 z m -2.799166,-0.63234 c 0.157027,0 0.27309,0.13601 0.27309,0.29917 0,0.17678 -0.116067,0.31278 -0.27309,0.31278 -0.146785,0 -0.273089,-0.13601 -0.273089,-0.31278 0,-0.16319 0.126301,-0.29917 0.273089,-0.29917 z M 85.024122,132.589 c 0.126301,0 0.225298,0.10541 0.225298,0.23119 0,0.11902 -0.099,0.22437 -0.225298,0.22437 -0.126301,0 -0.225298,-0.10541 -0.225298,-0.22437 0,-0.12576 0.099,-0.23119 0.225298,-0.23119 z m -6.388926,0.63915 c 0.27309,0 0.487807,0.15639 0.487807,0.33998 0,0.18698 -0.214717,0.33996 -0.487807,0.33996 -0.263188,0 -0.477906,-0.15298 -0.477906,-0.33996 0,-0.18359 0.214718,-0.33998 0.477906,-0.33998 z m 4.163248,-0.50315 c 0.177507,0 0.324293,0.1054 0.324293,0.25157 0,0.13601 -0.146786,0.25158 -0.324293,0.25158 -0.174095,0 -0.320539,-0.11551 -0.320539,-0.25158 0,-0.14611 0.146444,-0.25157 0.320539,-0.25157 z m -8.415589,0.0272 h 0.965712 v 0.73773 h -0.965712 z m -3.481889,0.0985 h 0.89744 v 0.38758 h -0.89744 z" />
    </g>
  </g>
</svg>
