<?xml version="1.0" encoding="UTF-8" standalone="no"?>
<!-- Created with Inkscape (http://www.inkscape.org/) -->

<svg
   xmlns:dc="http://purl.org/dc/elements/1.1/"
   xmlns:cc="http://creativecommons.org/ns#"
   xmlns:rdf="http://www.w3.org/1999/02/22-rdf-syntax-ns#"
   xmlns:svg="http://www.w3.org/2000/svg"
   xmlns="http://www.w3.org/2000/svg"
   xmlns:sodipodi="http://sodipodi.sourceforge.net/DTD/sodipodi-0.dtd"
   xmlns:inkscape="http://www.inkscape.org/namespaces/inkscape"
   width="210mm"
   height="297mm"
   viewBox="0 0 210 297"
   version="1.1"
   id="svg8"
   inkscape:version="0.92.3 (2405546, 2018-03-11)"
   sodipodi:docname="D5H1.svg">
  <defs
     id="defs2" />
  <sodipodi:namedview
     id="base"
     pagecolor="#ffffff"
     bordercolor="#666666"
     borderopacity="1.0"
     inkscape:pageopacity="0.0"
     inkscape:pageshadow="2"
     inkscape:zoom="2.2533681"
     inkscape:cx="245.66929"
     inkscape:cy="718.11022"
     inkscape:document-units="mm"
     inkscape:current-layer="layer1"
     showgrid="false"
     inkscape:window-width="1366"
     inkscape:window-height="704"
     inkscape:window-x="0"
     inkscape:window-y="27"
     inkscape:window-maximized="1"
     showguides="true"
     inkscape:guide-bbox="true"
     inkscape:object-nodes="false"
     inkscape:snap-intersection-paths="true"
     inkscape:snap-bbox="true"
     inkscape:bbox-paths="true"
     inkscape:bbox-nodes="true">
    <sodipodi:guide
       position="45,193.03327"
       orientation="1,0"
       id="guide816"
       inkscape:locked="false"
       inkscape:label="whiteFrameBoxW"
       inkscape:color="rgb(0,255,255)" />
    <sodipodi:guide
       position="65.988255,215"
       orientation="0,1"
       id="guide818"
       inkscape:locked="false"
       inkscape:label="whiteFrameBoxN"
       inkscape:color="rgb(0,255,255)" />
    <sodipodi:guide
       position="85,182.81801"
       orientation="1,0"
       id="guide820"
       inkscape:locked="false"
       inkscape:label="whiteFrameBoxE"
       inkscape:color="rgb(0,255,255)" />
    <sodipodi:guide
       position="52.602737,172"
       orientation="0,1"
       id="guide822"
       inkscape:locked="false"
       inkscape:label="whiteFrameBoxS"
       inkscape:color="rgb(0,255,255)" />
  </sodipodi:namedview>
  <metadata
     id="metadata5">
    <rdf:RDF>
      <cc:Work
         rdf:about="">
        <dc:format>image/svg+xml</dc:format>
        <dc:type
           rdf:resource="http://purl.org/dc/dcmitype/StillImage" />
        <dc:title />
        <cc:license
           rdf:resource="http://creativecommons.org/publicdomain/zero/1.0/" />
      </cc:Work>
      <cc:License
         rdf:about="http://creativecommons.org/publicdomain/zero/1.0/">
        <cc:permits
           rdf:resource="http://creativecommons.org/ns#Reproduction" />
        <cc:permits
           rdf:resource="http://creativecommons.org/ns#Distribution" />
        <cc:permits
           rdf:resource="http://creativecommons.org/ns#DerivativeWorks" />
      </cc:License>
    </rdf:RDF>
  </metadata>
  <g
     inkscape:label="Layer 1"
     inkscape:groupmode="layer"
     id="layer1">
    <rect
       style="fill:#0000ff;fill-opacity:1;stroke:none;stroke-width:0.1;stroke-linejoin:round;stroke-miterlimit:4;stroke-dasharray:none"
       id="rect812"
       width="50"
       height="60"
       x="40"
       y="77"
       rx="3.7000127"
       ry="3.7000127" />
    <rect
       style="fill:#ffffff;fill-opacity:1;stroke:none;stroke-width:0.1;stroke-linejoin:round;stroke-miterlimit:4;stroke-dasharray:none"
       id="rect824"
       width="40"
       height="43"
       x="45"
       y="82" />
    <path
       d="m 69.551617,116.84898 c -0.86558,-0.7258 -1.284975,-1.44269 -1.321333,-2.3686 -0.06378,-1.27942 0.710899,-3.11279 2.824776,-3.43932 -1.257547,-0.74421 -4.073073,0.34464 -4.920474,1.52464 -0.747257,1.04342 -1.075438,2.30506 -1.039079,3.6118 l -1.175262,-0.79852 c -6.816202,-4.62854 -2.90706,-8.08598 1.876911,-7.12418 -3.881714,-2.03284 -7.098457,-0.97989 -8.465077,2.06016 -0.255145,0.57174 -0.419395,1.11616 -0.519539,1.64247 -9.057652,-6.37964 -3.60839,-11.09902 3.043563,-9.7745 -5.476692,-2.858686 -10.060054,-1.24194 -11.937284,2.91365 -1.876913,4.15653 -0.464684,7.23312 0.583324,11.7524 z m -8.128286,-9.29297 -0.209539,0.20867 0.273324,0.0635 -0.136509,0.13624 0.273325,0.0543 -0.173179,0.18169 0.32786,0.0454 0.02743,-0.01 c 0.182428,-0.0817 0.364539,-0.14515 0.546648,-0.19947 0.473932,-0.14546 0.966043,-0.2271 1.467084,-0.2541 -0.51029,-0.13623 -1.038759,-0.236 -1.55798,-0.25411 -0.273324,-0.01 -0.565146,0 -0.83847,0.0269 z m -7.098456,-5.30002 c 0.236966,-0.0985 0.473932,-0.18105 0.710898,-0.2541 0.893008,-0.27317 1.849802,-0.37164 2.797347,-0.35257 -1.011331,-0.35576 -2.068589,-0.57175 -3.134777,-0.5908 -0.35529,-0.01 -0.719828,0.01 -1.065869,0.054 l -0.355608,0.34622 0.446504,0.15245 -0.255145,0.24458 0.51029,0.1175 -0.346041,0.34621 z m 16.393074,14.57488 5.53984,-0.01 c -0.838791,-0.4901 -1.932726,-0.90747 -2.077201,-1.69711 -0.227718,-1.23431 -0.783615,-2.76785 1.6594,-3.14012 -0.564509,-0.75309 -1.996511,-0.88015 -2.843912,-0.62605 -1.622084,0.4809 -2.442058,3.10359 -2.278127,5.47217 z m 6.349925,-0.01 5.523892,-0.01 c -0.867493,-0.83475 -3.546517,-2.913 -1.648874,-3.99296 -0.857927,-0.39926 -2.270793,0.14516 -2.908656,0.85284 -0.701648,0.77154 -0.672945,2.09638 -0.966362,3.14932 z m 5.523892,-0.65337 0.02551,-10.34592 c -1.674386,0.20869 -3.288179,0.41737 -4.847753,0.65337 -0.427369,-1.99664 -0.436937,-4.7378 0.430558,-7.615552 1.355458,0.790904 2.60567,0.746435 4.592612,0.746435 -1.221508,-0.809962 -2.350525,-1.143476 -3.900532,-1.435698 1.776449,0.228696 2.258035,0.273164 4.107838,0.101643 -2.14003,-1.064068 -2.714107,-0.991013 -4.162056,-0.809962 0.854736,-0.308104 0.653809,-0.235048 1.629739,-0.978307 -1.412866,0.336689 -1.575521,0.416097 -2.65032,0.978307 -1.323565,0 -2.580155,-0.816315 -3.828134,-0.397041 0.893965,0.444685 1.6594,0.660675 3.327412,0.797258 -2.800218,-0.381159 -4.129205,0.08259 -5.833255,1.060891 2.205092,1.127596 3.734687,-0.460567 5.641897,-0.39704 -2.835301,0.381158 -3.947097,1.44205 -4.475565,2.286956 1.895409,0.20646 3.308276,-0.854435 4.702005,-2.016969 -0.991876,3.322439 -1.039716,5.653849 -1.011012,7.915089 v 0 c -5.340188,0.88937 -10.187945,2.178 -15.500386,4.68285 0.07271,0.22679 0.172861,0.43548 0.282254,0.64446 0.665291,1.16159 1.968444,2.20502 3.061742,2.94922 l 0.464682,0.31764 c 0.109399,-1.07995 0.465003,-2.12337 1.102866,-3.01274 0.956794,-1.34327 4.027465,-2.55949 5.540157,-1.66091 l 0.947546,0.56253 c 0.191359,-0.12707 0.391966,-0.22678 0.619683,-0.29032 1.03876,-0.30841 2.671371,-0.12707 3.363451,0.79854 l 0.472019,0.62637 -0.781382,0.1179 c -1.878506,0.29064 -1.530871,1.16159 -1.269347,2.58649 0.0096,0.0362 0.01914,0.0728 0.0287,0.10888 0.162654,0.39036 0.857926,0.7442 1.211939,0.93478 0.200927,0.10902 0.411423,0.2179 0.609159,0.33575 l 0.165845,0.0997 c 0.255144,-1.07074 0.255144,-2.30507 1.02058,-3.15822 0.755867,-0.83474 2.385607,-1.46111 3.463596,-0.97101 l 0.829222,0.39038 -0.79414,0.45357 c -0.18179,0.1 -0.382718,0.25412 -0.4178,0.47201 -0.07336,0.48089 0.545373,1.1981 0.845169,1.51574 0.309363,0.33573 0.64743,0.64415 0.985497,0.95289 z m -10.61627,-4.7918 -0.85665,0.13596 c -0.783614,0.11818 -1.448906,0.49011 -1.904339,1.1527 -0.34636,0.51742 -0.537719,1.17967 -0.51029,1.79684 0.03636,0.88048 0.49211,1.47031 1.157082,2.02395 l 0.382718,0.31764 c -0.01818,-0.27254 -0.02711,-0.54475 -0.01818,-0.81696 0.02742,-1.05264 0.236966,-2.178 0.674221,-3.14012 0.255145,-0.55331 0.610754,-1.07995 1.075436,-1.47 z M 63.974782,97.545502 c 0,0 0.920436,0.219166 1.111795,0.508212 0.191359,0.282692 0.318932,1.172062 0.318932,1.172062 0,0 0.537717,-0.473272 1.239367,-0.292221 0.692401,0.19058 1.138905,0.673382 1.138905,0.673382 0,0 -0.382718,-1.045012 -0.920437,-1.143477 -0.537399,-0.09211 -1.011331,0.127057 -1.011331,0.127057 0,0 0,-0.635266 -0.419077,-0.952898 -0.410146,-0.317631 -1.458154,-0.09211 -1.458154,-0.09211 z m -3.599459,0.292222 c 0,0 0.601503,-0.01905 0.765434,0.117523 0.173181,0.142935 0.401216,0.660676 0.401216,0.660676 0,0 0.245896,-0.38116 0.70165,-0.390688 0.464682,0 0.819972,0.209637 0.819972,0.209637 0,0 -0.419075,-0.571738 -0.765436,-0.533621 -0.346359,0.03493 -0.592255,0.254105 -0.592255,0.254105 0,0 -0.109399,-0.390688 -0.419077,-0.508212 -0.310001,-0.127056 -0.911504,0.19058 -0.911504,0.19058 z m 10.27884,5.596686 -1.175581,-0.17153 c -0.127577,-0.15247 -0.664972,-0.85125 -1.093298,-0.87031 -0.446504,-0.0635 -1.266795,1.45158 -1.275725,1.4611 l 0.637863,1.35185 0.255145,-0.18137 -0.400897,-1.12601 c 0.09089,-0.0635 0.182111,-0.13664 0.273324,-0.2001 0.05454,0.6829 0.236966,1.2807 0.537401,1.58022 l 0.173178,0.84395 -1.093296,0.49011 0.209537,0.53553 1.603588,-0.64448 -0.07271,-1.08916 0.692401,0.0728 0.337111,1.38837 0.537717,-0.17215 -0.291503,-1.75173 -1.230119,-0.50694 -0.127577,-0.76232 0.337112,0.17153 1.120725,-0.13665 z m -2.5607,-2.07731 c -0.236647,0.11749 -0.337111,0.39067 -0.227718,0.62572 0.109399,0.23823 0.391968,0.33669 0.628934,0.2287 0.236647,-0.1112 0.337109,-0.39069 0.227716,-0.62574 -0.109398,-0.23822 -0.391966,-0.33669 -0.628932,-0.22868 z M 56.247712,91.666129 c 0.245897,0.136577 0.455434,0.317633 0.637863,0.51774 0.446504,0.054 0.792545,-0.08259 1.230118,-0.184225 -0.300751,0.327161 -0.601504,0.555857 -0.774685,0.971954 0.09122,0.254106 0.136823,0.52727 0.136823,0.800434 0.318931,0.514563 0.728758,0.679732 1.18451,0.968777 -0.537717,0.01905 -0.974972,-0.04447 -1.512691,0.244578 -0.136509,0.247754 -0.318931,0.454215 -0.519221,0.628912 -0.05485,0.444686 0.08196,0.797258 0.182111,1.232412 -0.32818,-0.308102 -0.564828,-0.597148 -0.974974,-0.781375 -0.255145,0.09211 -0.528469,0.136578 -0.811043,0.136578 -0.51029,0.317632 -0.68347,0.727379 -0.966043,1.191121 -0.01818,-0.546328 0.03667,-0.981483 -0.245896,-1.518283 -0.245895,-0.133404 -0.455752,-0.308103 -0.628614,-0.514562 -0.455753,-0.05718 -0.802112,0.0794 -1.239367,0.190579 0.309682,-0.327162 0.601504,-0.565387 0.783614,-0.981484 -0.09121,-0.254106 -0.145752,-0.52727 -0.145752,-0.797256 -0.318931,-0.517742 -0.729077,-0.682912 -1.18451,-0.971955 0.537399,-0.01905 0.974972,0.04447 1.512372,-0.244577 0.14607,-0.238224 0.318932,-0.454214 0.528789,-0.625736 0.04529,-0.444687 -0.09122,-0.790904 -0.191359,-1.226062 0.327861,0.298574 0.564827,0.590796 0.974973,0.771847 0.255145,-0.09211 0.528469,-0.136577 0.811043,-0.136577 0.51922,-0.317634 0.683151,-0.727379 0.974973,-1.187946 0.0089,0.543152 -0.0456,0.978308 0.236966,1.515106 z"
       style="fill:#040404;fill-opacity:1;fill-rule:evenodd;stroke:none;stroke-width:0.23269165"
       id="path546"
       inkscape:connector-curvature="0" />
  </g>
</svg>
