<?xml version="1.0" encoding="UTF-8" standalone="no"?>
<!-- Created with Inkscape (http://www.inkscape.org/) -->

<svg
   xmlns:dc="http://purl.org/dc/elements/1.1/"
   xmlns:cc="http://creativecommons.org/ns#"
   xmlns:rdf="http://www.w3.org/1999/02/22-rdf-syntax-ns#"
   xmlns:svg="http://www.w3.org/2000/svg"
   xmlns="http://www.w3.org/2000/svg"
   xmlns:sodipodi="http://sodipodi.sourceforge.net/DTD/sodipodi-0.dtd"
   xmlns:inkscape="http://www.inkscape.org/namespaces/inkscape"
   width="210mm"
   height="297mm"
   viewBox="0 0 210 297"
   version="1.1"
   id="svg8"
   inkscape:version="0.92.3 (2405546, 2018-03-11)"
   sodipodi:docname="D5H2.svg">
  <defs
     id="defs2" />
  <sodipodi:namedview
     id="base"
     pagecolor="#ffffff"
     bordercolor="#666666"
     borderopacity="1.0"
     inkscape:pageopacity="0.0"
     inkscape:pageshadow="2"
     inkscape:zoom="2.2533681"
     inkscape:cx="245.66929"
     inkscape:cy="718.11024"
     inkscape:document-units="mm"
     inkscape:current-layer="layer1"
     showgrid="false"
     inkscape:window-width="1366"
     inkscape:window-height="704"
     inkscape:window-x="0"
     inkscape:window-y="27"
     inkscape:window-maximized="1"
     showguides="true"
     inkscape:guide-bbox="true"
     inkscape:object-nodes="false"
     inkscape:snap-intersection-paths="true"
     inkscape:snap-bbox="true"
     inkscape:bbox-paths="true"
     inkscape:bbox-nodes="true">
    <sodipodi:guide
       position="45,193.03327"
       orientation="1,0"
       id="guide816"
       inkscape:locked="false"
       inkscape:label="whiteFrameBoxW"
       inkscape:color="rgb(0,255,255)" />
    <sodipodi:guide
       position="65.988255,215"
       orientation="0,1"
       id="guide818"
       inkscape:locked="false"
       inkscape:label="whiteFrameBoxN"
       inkscape:color="rgb(0,255,255)" />
    <sodipodi:guide
       position="85,182.81801"
       orientation="1,0"
       id="guide820"
       inkscape:locked="false"
       inkscape:label="whiteFrameBoxE"
       inkscape:color="rgb(0,255,255)" />
    <sodipodi:guide
       position="52.602737,172"
       orientation="0,1"
       id="guide822"
       inkscape:locked="false"
       inkscape:label="whiteFrameBoxS"
       inkscape:color="rgb(0,255,255)" />
  </sodipodi:namedview>
  <metadata
     id="metadata5">
    <rdf:RDF>
      <cc:Work
         rdf:about="">
        <dc:format>image/svg+xml</dc:format>
        <dc:type
           rdf:resource="http://purl.org/dc/dcmitype/StillImage" />
        <dc:title />
        <cc:license
           rdf:resource="http://creativecommons.org/publicdomain/zero/1.0/" />
      </cc:Work>
      <cc:License
         rdf:about="http://creativecommons.org/publicdomain/zero/1.0/">
        <cc:permits
           rdf:resource="http://creativecommons.org/ns#Reproduction" />
        <cc:permits
           rdf:resource="http://creativecommons.org/ns#Distribution" />
        <cc:permits
           rdf:resource="http://creativecommons.org/ns#DerivativeWorks" />
      </cc:License>
    </rdf:RDF>
  </metadata>
  <g
     inkscape:label="Layer 1"
     inkscape:groupmode="layer"
     id="layer1">
    <rect
       style="fill:#0000ff;fill-opacity:1;stroke:none;stroke-width:0.1;stroke-linejoin:round;stroke-miterlimit:4;stroke-dasharray:none"
       id="rect812"
       width="50"
       height="60"
       x="40"
       y="77"
       rx="3.7000127"
       ry="3.7000127" />
    <rect
       style="fill:#ffffff;fill-opacity:1;stroke:none;stroke-width:0.1;stroke-linejoin:round;stroke-miterlimit:4;stroke-dasharray:none"
       id="rect824"
       width="40"
       height="43"
       x="45"
       y="82" />
    <g
       id="g843"
       transform="translate(1.2823205,6.682683)">
      <path
         inkscape:connector-curvature="0"
         id="path574"
         style="fill:#040404;fill-opacity:1;fill-rule:evenodd;stroke:none;stroke-width:0.23278332"
         d="m 78.082479,88.073827 c -0.390358,0.128331 -0.609934,0.554944 -0.477492,0.939936 0.118503,0.395399 0.547198,0.613908 0.944526,0.485576 0.386871,-0.12833 0.606447,-0.554943 0.47749,-0.939936 -0.128958,-0.398866 -0.547196,-0.617376 -0.944524,-0.485576 z" />
      <path
         inkscape:connector-curvature="0"
         id="path576"
         style="fill:#040404;fill-opacity:1;fill-rule:evenodd;stroke:none;stroke-width:0.23278332"
         d="m 81.71768,91.868258 -1.833285,-0.516791 c -0.160325,-0.267068 -0.878304,-1.467134 -1.544003,-1.58506 -0.697065,-0.187293 -2.300319,2.032484 -2.310776,2.053294 l 0.738891,2.257936 0.425211,-0.22892 -0.407783,-1.862533 c 0.160324,-0.09018 0.320649,-0.176889 0.487946,-0.267066 -0.06971,1.089078 0.101072,2.070634 0.519314,2.615179 l 0.09759,1.370007 -1.812373,0.544552 0.209119,0.891367 2.680222,-0.704084 0.09062,-1.723796 1.094394,0.246265 0.247459,2.261389 0.88876,-0.169943 -0.121982,-2.823281 -1.840256,-1.040521 -0.04182,-1.23822 0.498402,0.346839 h 1.801918 z" />
      <path
         inkscape:connector-curvature="0"
         id="path578"
         style="fill:#040404;fill-opacity:1;fill-rule:evenodd;stroke:none;stroke-width:0.23278332"
         d="m 62.636529,99.666965 h -4.33192 l -1.642985,-11.000042 1.463839,-0.218509 -7.159918,-7.22468 -5.247866,9.06987 1.463839,-0.218509 1.443975,9.59187 H 45.717679 V 112.4109 h 18.840662 l -2.618877,-2.62627 1.384024,-1.9919 -1.642985,-1.18897 1.045599,-1.65512 h -1.792506 z m -11.202904,-0.773118 3.744292,-0.553544 -1.224745,-8.178497 c -0.06971,-0.475172 -0.517921,-0.811607 -0.996109,-0.742239 l -2.011385,0.298282 c -0.46808,0.06936 -0.806506,0.523728 -0.72704,0.9989 z" />
      <path
         inkscape:connector-curvature="0"
         id="path580"
         style="fill:#040404;fill-opacity:1;fill-rule:evenodd;stroke:none;stroke-width:0.23278332"
         d="m 64.299382,99.666965 -0.816614,2.536775 h 2.957654 l -2.439733,3.80554 1.712692,1.23857 -1.971653,2.85414 0.816613,2.30891 H 81.71768 V 99.666965 Z" />
      <path
         inkscape:connector-curvature="0"
         id="path582"
         style="fill:#040404;fill-opacity:1;fill-rule:evenodd;stroke:none;stroke-width:0.23278332"
         d="m 51.603011,94.216362 c -0.209119,0.03122 -0.358641,0.218514 -0.318908,0.426618 0.02998,0.208104 0.219228,0.346844 0.428347,0.315628 0.209121,-0.02778 0.348534,-0.218514 0.31856,-0.426618 -0.02963,-0.208103 -0.228985,-0.346844 -0.427999,-0.315628 z" />
      <path
         inkscape:connector-curvature="0"
         id="path584"
         style="fill:#040404;fill-opacity:1;fill-rule:evenodd;stroke:none;stroke-width:0.23278332"
         d="m 71.011087,88.073827 c -0.398025,0.128331 -0.617253,0.554944 -0.487946,0.939936 0.129659,0.395399 0.557653,0.613908 0.946267,0.485576 0.398374,-0.12833 0.617252,-0.554943 0.487946,-0.939936 -0.129659,-0.398866 -0.557652,-0.617376 -0.946267,-0.485576 z" />
      <path
         inkscape:connector-curvature="0"
         id="path586"
         style="fill:#040404;fill-opacity:1;fill-rule:evenodd;stroke:none;stroke-width:0.23278332"
         d="m 74.635833,91.868258 -1.822132,-0.516791 c -0.169388,-0.267068 -0.876213,-1.467134 -1.553414,-1.58506 -0.697065,-0.187293 -2.300319,2.032484 -2.310426,2.053294 l 0.7368,2.257936 0.428347,-0.22892 -0.398374,-1.862533 c 0.15928,-0.09018 0.318559,-0.176889 0.478188,-0.267066 -0.05995,1.089078 0.109436,2.070634 0.517572,2.615179 l 0.109779,1.370007 -1.82248,0.544552 0.209121,0.891367 2.678827,-0.704084 0.09932,-1.723796 1.08568,0.246265 0.248854,2.261389 0.88632,-0.169943 -0.109436,-2.823281 -1.842347,-1.040521 -0.03973,-1.23822 0.497704,0.346839 h 1.802616 z" />
    </g>
  </g>
</svg>
