<?xml version="1.0" encoding="UTF-8" standalone="no"?>
<!-- Created with Inkscape (http://www.inkscape.org/) -->

<svg
   xmlns:dc="http://purl.org/dc/elements/1.1/"
   xmlns:cc="http://creativecommons.org/ns#"
   xmlns:rdf="http://www.w3.org/1999/02/22-rdf-syntax-ns#"
   xmlns:svg="http://www.w3.org/2000/svg"
   xmlns="http://www.w3.org/2000/svg"
   xmlns:sodipodi="http://sodipodi.sourceforge.net/DTD/sodipodi-0.dtd"
   xmlns:inkscape="http://www.inkscape.org/namespaces/inkscape"
   width="210mm"
   height="297mm"
   viewBox="0 0 210 297"
   version="1.1"
   id="svg8"
   inkscape:version="0.92.3 (2405546, 2018-03-11)"
   sodipodi:docname="D5H3.svg">
  <defs
     id="defs2" />
  <sodipodi:namedview
     id="base"
     pagecolor="#ffffff"
     bordercolor="#666666"
     borderopacity="1.0"
     inkscape:pageopacity="0.0"
     inkscape:pageshadow="2"
     inkscape:zoom="2.2533681"
     inkscape:cx="245.66929"
     inkscape:cy="718.11022"
     inkscape:document-units="mm"
     inkscape:current-layer="layer1"
     showgrid="false"
     inkscape:window-width="1366"
     inkscape:window-height="704"
     inkscape:window-x="0"
     inkscape:window-y="27"
     inkscape:window-maximized="1"
     showguides="true"
     inkscape:guide-bbox="true"
     inkscape:object-nodes="false"
     inkscape:snap-intersection-paths="true"
     inkscape:snap-bbox="true"
     inkscape:bbox-paths="true"
     inkscape:bbox-nodes="true">
    <sodipodi:guide
       position="45,193.03327"
       orientation="1,0"
       id="guide816"
       inkscape:locked="false"
       inkscape:label="whiteFrameBoxW"
       inkscape:color="rgb(0,255,255)" />
    <sodipodi:guide
       position="65.988255,215"
       orientation="0,1"
       id="guide818"
       inkscape:locked="false"
       inkscape:label="whiteFrameBoxN"
       inkscape:color="rgb(0,255,255)" />
    <sodipodi:guide
       position="85,182.81801"
       orientation="1,0"
       id="guide820"
       inkscape:locked="false"
       inkscape:label="whiteFrameBoxE"
       inkscape:color="rgb(0,255,255)" />
    <sodipodi:guide
       position="52.602737,172"
       orientation="0,1"
       id="guide822"
       inkscape:locked="false"
       inkscape:label="whiteFrameBoxS"
       inkscape:color="rgb(0,255,255)" />
  </sodipodi:namedview>
  <metadata
     id="metadata5">
    <rdf:RDF>
      <cc:Work
         rdf:about="">
        <dc:format>image/svg+xml</dc:format>
        <dc:type
           rdf:resource="http://purl.org/dc/dcmitype/StillImage" />
        <dc:title />
        <cc:license
           rdf:resource="http://creativecommons.org/publicdomain/zero/1.0/" />
      </cc:Work>
      <cc:License
         rdf:about="http://creativecommons.org/publicdomain/zero/1.0/">
        <cc:permits
           rdf:resource="http://creativecommons.org/ns#Reproduction" />
        <cc:permits
           rdf:resource="http://creativecommons.org/ns#Distribution" />
        <cc:permits
           rdf:resource="http://creativecommons.org/ns#DerivativeWorks" />
      </cc:License>
    </rdf:RDF>
  </metadata>
  <g
     inkscape:label="Layer 1"
     inkscape:groupmode="layer"
     id="layer1">
    <g
       id="g826">
      <rect
         ry="3.7000127"
         rx="3.7000127"
         y="77"
         x="40"
         height="60"
         width="50"
         id="rect812"
         style="fill:#0000ff;fill-opacity:1;stroke:none;stroke-width:0.1;stroke-linejoin:round;stroke-miterlimit:4;stroke-dasharray:none" />
      <rect
         y="82"
         x="45"
         height="43"
         width="40"
         id="rect824"
         style="fill:#ffffff;fill-opacity:1;stroke:none;stroke-width:0.1;stroke-linejoin:round;stroke-miterlimit:4;stroke-dasharray:none" />
      <g
         transform="translate(-12.157977,0.47045677)"
         id="g828">
        <path
           d="m 82.648039,107.80219 c 4.47337,5.09589 7.362707,6.84581 12.509938,8.78649 l -35.999999,-0.0273 c 5.002126,-2.95591 8.473795,-5.00512 12.273306,-9.60242 -0.01818,0 2.788244,-3.83533 3.544702,-4.86041 h 0.32784 c 0.264378,0 0.382694,-0.0349 0.565112,-0.19994 0.282236,-0.23484 0.282236,-0.23484 0.49208,-0.0349 0.182099,0.16186 0.264059,0.14282 0.491761,-0.073 0.06378,-0.0634 0.136814,-0.073 0.228022,-0.0286 0.08196,0.0476 0.191346,0.0381 0.291484,-0.01 0.145744,-0.0698 0.17317,-0.0634 0.218774,0.10155 0.04561,0.12696 0.0909,0.16185 0.200276,0.15232 0.929628,-0.12696 4.829276,5.7322 4.856704,5.79567 m -23.490061,8.75921 z"
           style="fill:#040404;fill-opacity:1;fill-rule:evenodd;stroke:none;stroke-width:0.23278329"
           id="path614"
           inkscape:connector-curvature="0" />
        <path
           d="m 76.716285,98.525051 c -0.200595,-2.637273 2.824599,-3.74487 3.280323,-3.237087 -0.06378,-1.278976 1.257149,-1.666157 1.904221,-1.95813 -0.227703,-1.313879 1.530774,-2.11998 3.535453,-1.8407 0.564791,-2.319918 3.014988,-2.710275 3.872859,-0.8061 1.805039,0.488737 2.806421,1.421782 2.369513,3.589364 1.020516,1.732803 1.412776,3.046684 -0.711174,3.529075 -2.461996,2.554767 -4.948229,3.018107 -7.681619,0.542687 -0.41012,0.08255 -0.82024,0.155499 -1.230042,0.234847 -0.228022,0.818794 -0.501328,1.624893 -2.478579,2.059683 -2.615075,6.25679 -7.78144,-0.47287 -2.860955,-2.113639 z m 2.697035,-2.231047 c -0.318912,0.09198 -0.729032,0.364967 -0.920379,0.526821 -0.482832,0.425264 -0.728712,0.980648 -0.674178,1.624892 l 0.05453,0.850527 -0.810673,0.272936 c -0.628894,0.209455 -1.32125,0.62519 -1.284894,1.36782 0.01818,0.47288 0.337089,1.00604 0.792814,1.17107 0.929308,0.33641 1.731051,-1.28849 1.98618,-1.89465 l 0.218773,-0.526816 0.564792,-0.117396 c 0.40119,-0.09211 1.039014,-0.272936 1.339428,-0.580777 0.173169,-0.180891 0.2462,-0.453827 0.309982,-0.698199 l 0.0456,-0.17138 z m 1.804081,1.326564 0.628894,-0.12054 c 0.4098,-0.07927 0.81992,-0.152328 1.230042,-0.234847 l 0.537365,-0.0984 0.41012,0.361797 c 2.287233,2.059681 4.098968,1.640758 6.140001,-0.47922 l 0.229617,-0.247543 0.328478,-0.06984 c 0.127565,-0.02856 0.589987,-0.145987 0.672903,-0.272922 0.09248,-0.298328 -0.529392,-1.377348 -0.672903,-1.631247 l -0.220048,-0.364967 0.09248,-0.415738 c 0.299777,-1.450348 -0.200915,-1.93274 -1.578613,-2.304054 l -0.50069,-0.136461 -0.21686,-0.469697 c -0.117998,-0.27293 -0.318912,-0.52682 -0.637822,-0.56173 -0.628256,-0.07299 -1.030084,0.669634 -1.15765,1.177414 l -0.23727,0.961607 -0.993408,-0.136461 c -0.546615,-0.08252 -1.175189,-0.06347 -1.703625,0.117424 -0.154992,0.04443 -0.519508,0.209458 -0.58329,0.380835 -0.0093,0.01904 0,0.05396 0,0.07299 l 0.145744,0.844188 -0.783566,0.342759 c -0.33709,0.145973 -0.765387,0.291959 -1.056873,0.52682 -0.136812,0.107966 -0.200594,0.190417 -0.191346,0.371308 z"
           style="fill:#040404;fill-opacity:1;fill-rule:evenodd;stroke:none;stroke-width:0.23278329"
           id="path616"
           inkscape:connector-curvature="0" />
      </g>
    </g>
  </g>
</svg>
