<?xml version="1.0" encoding="UTF-8" standalone="no"?>
<!-- Created with Inkscape (http://www.inkscape.org/) -->

<svg
   xmlns:dc="http://purl.org/dc/elements/1.1/"
   xmlns:cc="http://creativecommons.org/ns#"
   xmlns:rdf="http://www.w3.org/1999/02/22-rdf-syntax-ns#"
   xmlns:svg="http://www.w3.org/2000/svg"
   xmlns="http://www.w3.org/2000/svg"
   xmlns:sodipodi="http://sodipodi.sourceforge.net/DTD/sodipodi-0.dtd"
   xmlns:inkscape="http://www.inkscape.org/namespaces/inkscape"
   width="210mm"
   height="297mm"
   viewBox="0 0 210 297"
   version="1.1"
   id="svg8"
   inkscape:version="0.92.3 (2405546, 2018-03-11)"
   sodipodi:docname="D5H4.svg">
  <defs
     id="defs2" />
  <sodipodi:namedview
     id="base"
     pagecolor="#ffffff"
     bordercolor="#666666"
     borderopacity="1.0"
     inkscape:pageopacity="0.0"
     inkscape:pageshadow="2"
     inkscape:zoom="2.2533681"
     inkscape:cx="245.66929"
     inkscape:cy="718.11022"
     inkscape:document-units="mm"
     inkscape:current-layer="layer1"
     showgrid="false"
     inkscape:window-width="1366"
     inkscape:window-height="704"
     inkscape:window-x="0"
     inkscape:window-y="27"
     inkscape:window-maximized="1"
     showguides="true"
     inkscape:guide-bbox="true"
     inkscape:object-nodes="false"
     inkscape:snap-intersection-paths="true"
     inkscape:snap-bbox="true"
     inkscape:bbox-paths="true"
     inkscape:bbox-nodes="true">
    <sodipodi:guide
       position="45,193.03327"
       orientation="1,0"
       id="guide816"
       inkscape:locked="false"
       inkscape:label="whiteFrameBoxW"
       inkscape:color="rgb(0,255,255)" />
    <sodipodi:guide
       position="65.988255,215"
       orientation="0,1"
       id="guide818"
       inkscape:locked="false"
       inkscape:label="whiteFrameBoxN"
       inkscape:color="rgb(0,255,255)" />
    <sodipodi:guide
       position="85,182.81801"
       orientation="1,0"
       id="guide820"
       inkscape:locked="false"
       inkscape:label="whiteFrameBoxE"
       inkscape:color="rgb(0,255,255)" />
    <sodipodi:guide
       position="52.602737,172"
       orientation="0,1"
       id="guide822"
       inkscape:locked="false"
       inkscape:label="whiteFrameBoxS"
       inkscape:color="rgb(0,255,255)" />
  </sodipodi:namedview>
  <metadata
     id="metadata5">
    <rdf:RDF>
      <cc:Work
         rdf:about="">
        <dc:format>image/svg+xml</dc:format>
        <dc:type
           rdf:resource="http://purl.org/dc/dcmitype/StillImage" />
        <dc:title />
        <cc:license
           rdf:resource="http://creativecommons.org/publicdomain/zero/1.0/" />
      </cc:Work>
      <cc:License
         rdf:about="http://creativecommons.org/publicdomain/zero/1.0/">
        <cc:permits
           rdf:resource="http://creativecommons.org/ns#Reproduction" />
        <cc:permits
           rdf:resource="http://creativecommons.org/ns#Distribution" />
        <cc:permits
           rdf:resource="http://creativecommons.org/ns#DerivativeWorks" />
      </cc:License>
    </rdf:RDF>
  </metadata>
  <g
     inkscape:label="Layer 1"
     inkscape:groupmode="layer"
     id="layer1">
    <g
       id="g875">
      <rect
         ry="3.7000127"
         rx="3.7000127"
         y="77"
         x="40"
         height="60"
         width="50"
         id="rect812"
         style="fill:#0000ff;fill-opacity:1;stroke:none;stroke-width:0.1;stroke-linejoin:round;stroke-miterlimit:4;stroke-dasharray:none" />
      <rect
         y="82"
         x="45"
         height="43"
         width="40"
         id="rect824"
         style="fill:#ffffff;fill-opacity:1;stroke:none;stroke-width:0.1;stroke-linejoin:round;stroke-miterlimit:4;stroke-dasharray:none" />
      <g
         transform="translate(-9.692385,2.0300335)"
         id="g858">
        <path
           d="m 74.701081,103.74426 v 0 c 1.9146,0 3.48592,1.56368 3.48592,3.4781 v 1.24913 1.9053 h -6.981008 v -1.9053 -1.24913 c 0,-1.91442 1.57132,-3.4781 3.495088,-3.4781 z"
           style="fill:#070202;fill-opacity:1;fill-rule:evenodd;stroke:none;stroke-width:0.2327833"
           id="path644"
           inkscape:connector-curvature="0" />
        <path
           d="m 74.701081,98.755926 c 1.137949,0 2.059057,0.915386 2.059057,2.047804 0,1.13399 -0.921108,2.05062 -2.059057,2.05062 -1.147117,0 -2.068226,-0.91663 -2.068226,-2.05062 0,-1.132418 0.921109,-2.047804 2.068226,-2.047804 z"
           style="fill:#070202;fill-opacity:1;fill-rule:evenodd;stroke:none;stroke-width:0.2327833"
           id="path646"
           inkscape:connector-curvature="0" />
        <path
           d="m 81.971318,99.636702 v 0 c 1.9146,0 3.485604,1.563368 3.485604,3.478428 v 1.24913 5.69797 0.31456 H 78.47623 v -0.31456 -5.69797 -1.24913 c 0,-1.91506 1.57132,-3.478428 3.495088,-3.478428 z"
           style="fill:#070202;fill-opacity:1;fill-rule:evenodd;stroke:none;stroke-width:0.2327833"
           id="path648"
           inkscape:connector-curvature="0" />
        <path
           d="m 81.971318,94.647759 c 1.13795,0 2.060005,0.918515 2.060005,2.050934 0,1.132433 -0.922055,2.057233 -2.060005,2.057233 -1.147117,0 -2.068224,-0.9248 -2.068224,-2.057233 0,-1.132419 0.921107,-2.050934 2.068224,-2.050934 z"
           style="fill:#070202;fill-opacity:1;fill-rule:evenodd;stroke:none;stroke-width:0.2327833"
           id="path650"
           inkscape:connector-curvature="0" />
        <path
           d="m 67.430844,99.636702 v 0 c 1.914602,0 3.495087,1.563368 3.495087,3.478428 v 1.24913 5.69797 0.31456 h -6.990175 v -0.31456 -5.69797 -1.24913 c 0,-1.91506 1.57132,-3.478428 3.495088,-3.478428 z"
           style="fill:#070202;fill-opacity:1;fill-rule:evenodd;stroke:none;stroke-width:0.2327833"
           id="path652"
           inkscape:connector-curvature="0" />
        <path
           d="m 67.430844,94.647759 c 1.137951,0 2.059058,0.918515 2.059058,2.050934 0,1.132433 -0.921107,2.057233 -2.059058,2.057233 -1.13795,0 -2.068224,-0.9248 -2.068224,-2.057233 0,-1.132419 0.930274,-2.050934 2.068224,-2.050934 z"
           style="fill:#070202;fill-opacity:1;fill-rule:evenodd;stroke:none;stroke-width:0.2327833"
           id="path654"
           inkscape:connector-curvature="0" />
        <path
           d="m 74.701081,92.590523 c 1.137949,0 2.059057,0.92481 2.059057,2.057236 0,1.13242 -0.921108,2.050934 -2.059057,2.050934 -1.147117,0 -2.068226,-0.918514 -2.068226,-2.050934 0,-1.132426 0.921109,-2.057236 2.068226,-2.057236 z"
           style="fill:#070202;fill-opacity:1;fill-rule:evenodd;stroke:none;stroke-width:0.2327833"
           id="path656"
           inkscape:connector-curvature="0" />
        <path
           d="m 91.715647,115.8684 -0.983063,0.97042 -2.50349,-2.81312 -0.720702,1.55487 c -0.04741,0.099 -0.300292,0.0362 -0.306614,-0.0716 l -0.363511,-4.49383 4.517029,0.35954 c 0.107474,0.009 0.170693,0.26047 0.0727,0.30545 l -1.564681,0.71908 2.829069,2.48944 z"
           style="fill:#070202;fill-opacity:1;fill-rule:evenodd;stroke:none;stroke-width:0.2327833"
           id="path658"
           inkscape:connector-curvature="0" />
        <path
           d="m 57.685882,115.8684 0.984642,0.97042 2.492427,-2.81312 0.722599,1.55487 c 0.0452,0.099 0.306931,0.0362 0.316097,-0.0716 l 0.352133,-4.49383 -4.506598,0.35954 c -0.108423,0.009 -0.171642,0.26047 -0.08124,0.30545 l 1.57132,0.71909 -2.835709,2.48945 z"
           style="fill:#070202;fill-opacity:1;fill-rule:evenodd;stroke:none;stroke-width:0.2327833"
           id="path660"
           inkscape:connector-curvature="0" />
        <path
           d="m 91.706165,87.082546 -0.983063,-0.981433 -2.494008,2.82162 -0.720702,-1.553935 c -0.04741,-0.09752 -0.306614,-0.0346 -0.316096,0.07235 l -0.363513,4.491942 4.517031,-0.358601 c 0.107474,-0.0095 0.170692,-0.270524 0.0727,-0.305126 l -1.561519,-0.726636 2.83539,-2.481892 z"
           style="fill:#070202;fill-opacity:1;fill-rule:evenodd;stroke:none;stroke-width:0.2327833"
           id="path662"
           inkscape:connector-curvature="0" />
        <path
           d="m 57.677031,87.082546 0.984327,-0.981433 2.492742,2.82162 0.73145,-1.553935 c 0.03603,-0.09752 0.29808,-0.0346 0.306931,0.07235 l 0.361299,4.491942 -4.515449,-0.358601 c -0.108423,-0.0095 -0.171642,-0.270524 -0.07239,-0.305126 l 1.562469,-0.726636 -2.836025,-2.481892 z"
           style="fill:#070202;fill-opacity:1;fill-rule:evenodd;stroke:none;stroke-width:0.2327833"
           id="path664"
           inkscape:connector-curvature="0" />
        <path
           d="m 74.701081,97.579469 v 0 c 1.833363,0 3.35063,1.437543 3.477069,3.233691 -0.415352,-1.525621 -1.815346,-2.651755 -3.477069,-2.651755 -1.67089,0 -3.070569,1.126134 -3.486237,2.651755 0.126439,-1.796148 1.643706,-3.233691 3.486237,-3.233691 z"
           style="fill:#070202;fill-opacity:1;fill-rule:evenodd;stroke:none;stroke-width:0.2327833"
           id="path666"
           inkscape:connector-curvature="0" />
      </g>
    </g>
  </g>
</svg>
