<?xml version="1.0" encoding="UTF-8" standalone="no"?>
<!-- Created with Inkscape (http://www.inkscape.org/) -->

<svg
   xmlns:dc="http://purl.org/dc/elements/1.1/"
   xmlns:cc="http://creativecommons.org/ns#"
   xmlns:rdf="http://www.w3.org/1999/02/22-rdf-syntax-ns#"
   xmlns:svg="http://www.w3.org/2000/svg"
   xmlns="http://www.w3.org/2000/svg"
   xmlns:sodipodi="http://sodipodi.sourceforge.net/DTD/sodipodi-0.dtd"
   xmlns:inkscape="http://www.inkscape.org/namespaces/inkscape"
   width="210mm"
   height="297mm"
   viewBox="0 0 210 297"
   version="1.1"
   id="svg8"
   inkscape:version="0.92.3 (2405546, 2018-03-11)"
   sodipodi:docname="D5H5.svg">
  <defs
     id="defs2" />
  <sodipodi:namedview
     id="base"
     pagecolor="#ffffff"
     bordercolor="#666666"
     borderopacity="1.0"
     inkscape:pageopacity="0.0"
     inkscape:pageshadow="2"
     inkscape:zoom="2.2533681"
     inkscape:cx="245.66929"
     inkscape:cy="718.11024"
     inkscape:document-units="mm"
     inkscape:current-layer="layer1"
     showgrid="false"
     inkscape:window-width="1366"
     inkscape:window-height="704"
     inkscape:window-x="0"
     inkscape:window-y="27"
     inkscape:window-maximized="1"
     showguides="true"
     inkscape:guide-bbox="true"
     inkscape:object-nodes="false"
     inkscape:snap-intersection-paths="true"
     inkscape:snap-bbox="true"
     inkscape:bbox-paths="true"
     inkscape:bbox-nodes="true">
    <sodipodi:guide
       position="45,193.03327"
       orientation="1,0"
       id="guide816"
       inkscape:locked="false"
       inkscape:label="whiteFrameBoxW"
       inkscape:color="rgb(0,255,255)" />
    <sodipodi:guide
       position="65.988255,215"
       orientation="0,1"
       id="guide818"
       inkscape:locked="false"
       inkscape:label="whiteFrameBoxN"
       inkscape:color="rgb(0,255,255)" />
    <sodipodi:guide
       position="85,182.81801"
       orientation="1,0"
       id="guide820"
       inkscape:locked="false"
       inkscape:label="whiteFrameBoxE"
       inkscape:color="rgb(0,255,255)" />
    <sodipodi:guide
       position="52.602737,172"
       orientation="0,1"
       id="guide822"
       inkscape:locked="false"
       inkscape:label="whiteFrameBoxS"
       inkscape:color="rgb(0,255,255)" />
  </sodipodi:namedview>
  <metadata
     id="metadata5">
    <rdf:RDF>
      <cc:Work
         rdf:about="">
        <dc:format>image/svg+xml</dc:format>
        <dc:type
           rdf:resource="http://purl.org/dc/dcmitype/StillImage" />
        <dc:title />
        <cc:license
           rdf:resource="http://creativecommons.org/publicdomain/zero/1.0/" />
      </cc:Work>
      <cc:License
         rdf:about="http://creativecommons.org/publicdomain/zero/1.0/">
        <cc:permits
           rdf:resource="http://creativecommons.org/ns#Reproduction" />
        <cc:permits
           rdf:resource="http://creativecommons.org/ns#Distribution" />
        <cc:permits
           rdf:resource="http://creativecommons.org/ns#DerivativeWorks" />
      </cc:License>
    </rdf:RDF>
  </metadata>
  <g
     inkscape:label="Layer 1"
     inkscape:groupmode="layer"
     id="layer1">
    <g
       id="g839">
      <rect
         ry="3.7000127"
         rx="3.7000127"
         y="77"
         x="40"
         height="60"
         width="50"
         id="rect812"
         style="fill:#0000ff;fill-opacity:1;stroke:none;stroke-width:0.1;stroke-linejoin:round;stroke-miterlimit:4;stroke-dasharray:none" />
      <rect
         y="82"
         x="45"
         height="43"
         width="40"
         id="rect824"
         style="fill:#ffffff;fill-opacity:1;stroke:none;stroke-width:0.1;stroke-linejoin:round;stroke-miterlimit:4;stroke-dasharray:none" />
      <g
         transform="translate(-11.52008,-5.385951)"
         id="g831">
        <path
           d="m 69.597325,113.78391 v 0 c 0.378284,0 0.677424,0.29734 0.677424,0.67414 v 4.56002 0 1.35798 h -1.364958 v 0 H 64.32751 c -0.368521,0 -0.677074,-0.30741 -0.677074,-0.67413 v 0 c 0,-0.3768 0.308553,-0.68385 0.677074,-0.68385 h 4.582281 v -4.56002 c 0,-0.3768 0.308902,-0.67414 0.687534,-0.67414 z m 2.629852,0 h 16.435616 c 0.397459,0 0.718216,0.31712 0.718216,0.71369 v 5.1547 c 0,0.39657 -0.320757,0.72375 -0.718216,0.72375 H 72.227177 c -0.398505,0 -0.72728,-0.32718 -0.72728,-0.72375 v -5.1547 c 0,-0.39657 0.328775,-0.71369 0.72728,-0.71369 z m -6.335631,0.9517 c -0.79701,0.25779 -1.245023,1.11026 -0.985977,1.90304 0.258696,0.79314 1.125435,1.22926 1.922445,0.97147 0.797009,-0.25743 1.23526,-1.11024 0.976214,-1.90304 -0.259044,-0.79314 -1.115673,-1.22926 -1.912682,-0.97147 z"
           style="fill:#070202;fill-opacity:1;fill-rule:evenodd;stroke:none;stroke-width:0.23278332"
           id="path694"
           inkscape:connector-curvature="0" />
        <path
           d="M 92.229463,121.59525 H 60.801284 l 3.177579,-17.93373 12.541565,-7.206245 12.532851,7.206245 z m -1.147053,-19.3493 -14.462268,-8.309568 -14.673201,8.309568 -3.426861,19.3493 v 2.24027 h 36 v -2.24027 z"
           style="fill:#070202;fill-opacity:1;fill-rule:evenodd;stroke:none;stroke-width:0.23278332"
           id="path696"
           inkscape:connector-curvature="0" />
        <path
           d="m 70.085432,100.15382 0.159333,0.89166 6.275663,3.60832 6.265554,-3.60832 0.159333,-0.89166 1.036181,0.59329 -0.179205,1.0131 -7.232005,4.15304 -7.341481,-4.15304 -0.179554,-1.0131 z"
           style="fill:#e50012;fill-opacity:1;fill-rule:evenodd;stroke:none;stroke-width:0.23278332"
           id="path698"
           inkscape:connector-curvature="0" />
      </g>
    </g>
  </g>
</svg>
