<?xml version="1.0" encoding="UTF-8" standalone="no"?>
<!-- Created with Inkscape (http://www.inkscape.org/) -->

<svg
   xmlns:dc="http://purl.org/dc/elements/1.1/"
   xmlns:cc="http://creativecommons.org/ns#"
   xmlns:rdf="http://www.w3.org/1999/02/22-rdf-syntax-ns#"
   xmlns:svg="http://www.w3.org/2000/svg"
   xmlns="http://www.w3.org/2000/svg"
   xmlns:sodipodi="http://sodipodi.sourceforge.net/DTD/sodipodi-0.dtd"
   xmlns:inkscape="http://www.inkscape.org/namespaces/inkscape"
   width="50mm"
   height="60mm"
   viewBox="0 0 50 60"
   version="1.1"
   id="svg2161"
   inkscape:version="0.92.3 (2405546, 2018-03-11)"
   sodipodi:docname="D6A3.svg">
  <defs
     id="defs2155" />
  <sodipodi:namedview
     id="base"
     pagecolor="#ffffff"
     bordercolor="#666666"
     borderopacity="1.0"
     inkscape:pageopacity="0.0"
     inkscape:pageshadow="2"
     inkscape:zoom="2.2533681"
     inkscape:cx="94.488187"
     inkscape:cy="113.38582"
     inkscape:document-units="mm"
     inkscape:current-layer="layer1"
     showgrid="false"
     inkscape:window-width="1366"
     inkscape:window-height="704"
     inkscape:window-x="0"
     inkscape:window-y="27"
     inkscape:window-maximized="1"
     showguides="true"
     inkscape:guide-bbox="true"
     inkscape:snap-bbox="true"
     inkscape:bbox-nodes="true">
    <sodipodi:guide
       position="40.207437,54.999999"
       orientation="0,1"
       id="guide2727"
       inkscape:locked="false"
       inkscape:label="whiteBoxN"
       inkscape:color="rgb(91,221,88)" />
    <sodipodi:guide
       position="4.9999999,44.999999"
       orientation="1,0"
       id="guide2729"
       inkscape:locked="false"
       inkscape:label="whiteBoxW"
       inkscape:color="rgb(91,221,88)" />
    <sodipodi:guide
       position="13.072406,12"
       orientation="0,1"
       id="guide2731"
       inkscape:locked="false"
       inkscape:label="whiteBoxS"
       inkscape:color="rgb(91,221,88)" />
    <sodipodi:guide
       position="45,29.510769"
       orientation="1,0"
       id="guide2733"
       inkscape:locked="false"
       inkscape:label="whiteBoxE"
       inkscape:color="rgb(91,221,88)" />
  </sodipodi:namedview>
  <metadata
     id="metadata2158">
    <rdf:RDF>
      <cc:Work
         rdf:about="">
        <dc:format>image/svg+xml</dc:format>
        <dc:type
           rdf:resource="http://purl.org/dc/dcmitype/StillImage" />
        <dc:title />
        <cc:license
           rdf:resource="http://creativecommons.org/publicdomain/zero/1.0/" />
      </cc:Work>
      <cc:License
         rdf:about="http://creativecommons.org/publicdomain/zero/1.0/">
        <cc:permits
           rdf:resource="http://creativecommons.org/ns#Reproduction" />
        <cc:permits
           rdf:resource="http://creativecommons.org/ns#Distribution" />
        <cc:permits
           rdf:resource="http://creativecommons.org/ns#DerivativeWorks" />
      </cc:License>
    </rdf:RDF>
  </metadata>
  <g
     inkscape:label="Layer 1"
     inkscape:groupmode="layer"
     id="layer1"
     transform="translate(-40,-77)">
    <g
       id="g3092">
      <rect
         ry="3.7"
         rx="3.7"
         y="77"
         x="40"
         height="60"
         width="50"
         id="rect2725"
         style="fill:#0000ff;fill-opacity:1;stroke:none;stroke-width:1.25;stroke-linejoin:round;stroke-miterlimit:4;stroke-dasharray:none" />
      <rect
         y="82"
         x="45"
         height="43"
         width="40"
         id="rect2737"
         style="fill:#ffffff;fill-opacity:1;stroke:none;stroke-width:1.25;stroke-linejoin:round;stroke-miterlimit:4;stroke-dasharray:none" />
      <path
         inkscape:connector-curvature="0"
         id="path638"
         style="fill:#040404;fill-opacity:1;fill-rule:evenodd;stroke:none;stroke-width:0.22986472"
         d="m 68.017294,98.320651 v -1.85991 c 0,-1.67088 -1.352359,-3.02785 -3.011919,-3.02785 -1.65956,0 -3.021654,1.35697 -3.021654,3.02785 v 1.85991 c 0.98808,-0.27004 1.995298,-0.40506 3.021654,-0.40506 1.01662,0 2.033573,0.13503 3.011919,0.40506 z m 2.801074,7.156759 1.716972,1.5335 1.717307,-1.5335 -1.717307,-1.54328 z m -1.889541,1.67798 1.726371,1.54329 1.717308,-1.54329 -1.717308,-1.53316 z m -1.880141,1.68775 1.716971,1.5433 1.726707,-1.5433 -1.726707,-1.54294 z m -5.65016,5.05383 1.716972,1.53349 1.726707,-1.53349 -1.726707,-1.54328 z m -1.889877,1.67797 1.726707,1.54328 1.717308,-1.54328 -1.717308,-1.5335 z m 7.213698,-3.36573 -1.716972,-1.5335 -1.726708,1.5335 1.726708,1.54296 z m -1.553803,-1.67831 1.716973,1.5335 1.716971,-1.5335 -1.716971,-1.54294 z m 0,-10.10731 1.716973,1.54262 1.716971,-1.54262 -1.716971,-1.542609 z m -1.889877,1.68776 1.726708,1.53248 1.716972,-1.53248 -1.716972,-1.54261 z m -1.880141,1.67763 1.716972,1.54364 1.726707,-1.54364 -1.726707,-1.53248 z m -1.889877,1.68843 1.726707,1.5335 1.717308,-1.5335 -1.717308,-1.54328 z m -1.880142,1.67798 1.726709,1.54329 1.717308,-1.54329 -1.717308,-1.53316 z m -1.880141,1.68775 1.717308,1.5433 1.726708,-1.5433 -1.726708,-1.54294 z m -1.889541,1.68776 1.726707,1.5335 1.716973,-1.5335 -1.716973,-1.54294 z m 3.606849,-6.59677 -1.717308,1.54328 1.717308,1.5335 1.726708,-1.5335 z m 1.889542,-1.67763 -1.726709,1.53248 1.726709,1.54364 1.717308,-1.54364 z m 1.88014,-1.68776 -1.726707,1.54261 1.726707,1.53248 1.717308,-1.53248 z m 1.880142,-1.687759 -1.716972,1.542609 1.716972,1.54262 1.726707,-1.54262 z m 5.650159,4.762849 1.726707,-1.53248 -1.726707,-1.54261 -1.716971,1.54261 z m -1.88014,1.68879 1.716971,-1.54364 -1.716971,-1.53248 -1.716973,1.53248 z m -1.880142,1.67829 1.716972,-1.5335 -1.716972,-1.54328 -1.726708,1.54328 z m -1.889877,1.68777 1.726707,-1.54329 -1.726707,-1.53316 -1.716972,1.53316 z m -1.880142,1.68776 1.717308,-1.5433 -1.717308,-1.54294 -1.726707,1.54294 z m -1.88014,1.67796 1.717308,-1.5335 -1.717308,-1.54294 -1.726709,1.54294 z m -1.889542,1.68777 1.726708,-1.54296 -1.726708,-1.5335 -1.717308,1.5335 z m -1.880142,1.67829 1.716973,-1.53349 -1.716973,-1.54328 -1.726707,1.54328 z m 1.880142,-1.38902 -1.717308,1.5335 1.717308,1.54328 1.726708,-1.54328 z m 1.889542,-1.68775 -1.726709,1.54328 1.726709,1.53349 1.717308,-1.53349 z m 1.88014,-1.67798 -1.726707,1.5335 1.726707,1.54296 1.717308,-1.54296 z m 1.880142,-1.68775 -1.716972,1.54294 1.716972,1.5335 1.726707,-1.5335 z m 1.889877,-1.68776 -1.726708,1.54294 1.726708,1.5433 1.716972,-1.5433 z m 1.880142,-1.67797 -1.716973,1.53316 1.716973,1.54329 1.716971,-1.54329 z m 1.88014,-1.6881 -1.716971,1.54328 1.716971,1.5335 1.726707,-1.5335 z m 1.889541,-1.67763 -1.726371,1.53248 1.726371,1.54364 1.717308,-1.54364 z m -3.932851,13.31844 -1.716972,-1.5335 -1.726708,1.5335 1.726708,1.54328 z m 1.880141,-1.67797 -1.716971,-1.54328 -1.716973,1.54328 1.716973,1.53349 z m 1.889876,1.67797 -1.726707,-1.5335 -1.716971,1.5335 1.716971,1.54328 z m 0,-3.36573 -1.726707,-1.5335 -1.716971,1.5335 1.716971,1.54296 z m 1.880142,1.68776 -1.717308,-1.54328 -1.726371,1.54328 1.726371,1.53349 z m 1.880141,1.67797 -1.717307,-1.5335 -1.716972,1.5335 1.716972,1.54328 z m -1.880141,-5.04404 -1.717308,-1.54294 -1.726371,1.54294 1.726371,1.5335 z m 1.880141,1.67831 -1.717307,-1.5335 -1.716972,1.5335 1.716972,1.54296 z m 1.888198,1.68776 -1.725364,-1.54328 -1.716971,1.54328 1.716971,1.53349 z m -1.888198,-5.05383 -1.717307,-1.54294 -1.716972,1.54294 1.716972,1.5433 z m 1.888198,1.68776 -1.725364,-1.54294 -1.716971,1.54294 1.716971,1.5335 z m 0.06715,6.96335 -1.034079,0.91613 h 1.034079 z m -1.359745,0.91613 1.292596,-1.14768 -1.725364,-1.54295 -1.716971,1.54295 1.285546,1.14768 z m -1.180796,0 -1.132113,-1.00287 -1.131779,1.00287 z m -2.580493,0 1.285546,-1.14768 -1.717308,-1.54295 -1.726371,1.54295 1.294946,1.14768 z m -1.189525,0 -1.131778,-1.00287 -1.122377,1.00287 z m -2.580158,0 1.285211,-1.14768 -1.716971,-1.54295 -1.716973,1.54295 1.285211,1.14768 z m -1.189526,0 -1.122376,-1.00287 -1.132113,1.00287 z m -2.580493,0 1.294947,-1.14768 -1.726707,-1.54295 -1.716972,1.54295 1.285547,1.14768 z m -1.189524,0 -1.122378,-1.00287 -1.131777,1.00287 z m -2.570758,0 1.285548,-1.14768 -1.717308,-1.54295 -1.726709,1.54295 1.295284,1.14768 z m -1.189524,0 -1.131778,-1.00287 -1.122376,1.00287 z m -2.580495,0 1.285548,-1.14768 -1.716973,-1.54295 -1.726707,1.54295 1.294947,1.14768 z m -1.189188,0 -1.036093,-0.91613 v 0.91613 z m -1.036093,-1.3789 1.630687,-1.45654 -1.630687,-1.4464 z m 0,-3.36607 1.630687,-1.4562 -1.630687,-1.4562 z m 0,-3.36573 1.630687,-1.45654 -1.438979,-1.28269 c -0.124559,0.66566 -0.191708,1.35021 -0.191708,2.05434 z m 0.239719,-2.9897 1.554137,1.3887 1.716973,-1.54329 -1.716973,-1.53316 -1.467852,1.30194 c -0.02854,0.13503 -0.05741,0.26024 -0.08629,0.38581 z m 0.09602,-0.40506 c 0.0094,-0.0483 0.01914,-0.0965 0.03827,-0.13503 -0.01914,0.0385 -0.02887,0.0867 -0.03827,0.13503 z m 0.09601,-0.35712 1.198925,-1.07039 -0.604331,-0.54007 c -0.239717,0.51105 -0.441161,1.05114 -0.594594,1.61046 z m 0.690616,-1.82279 0.671478,0.60761 1.716973,-1.54364 -1.160652,-1.03965 c -0.479771,0.61434 -0.892059,1.27257 -1.227799,1.97568 z m 1.227799,-1.9858 c 0.03827,-0.0507 0.07655,-0.0978 0.115156,-0.14514 -0.0386,0.0473 -0.07689,0.0945 -0.115156,0.14514 z m 0.124558,-0.16541 1.199262,1.07003 1.726707,-1.53248 -1.314419,-1.17806 0.0097,-0.007 c -0.59493,0.48946 -1.132115,1.04979 -1.621286,1.64726 z m 1.784455,-1.77552 1.304348,1.16793 1.717308,-1.54262 -1.016955,-0.908009 c -0.709754,0.3578 -1.390969,0.783109 -2.004701,1.282699 z m 2.023838,-1.289449 c 0.05775,-0.0303 0.115156,-0.0608 0.17257,-0.0877 -0.05741,0.0269 -0.114819,0.0574 -0.17257,0.0877 z m 0.192042,-0.0978 0.968608,0.867509 1.717308,-1.542619 -0.182306,-0.16539 c -0.872923,0.18565 -1.717308,0.46581 -2.50361,0.8405 z m 2.772201,-0.88776 0.07655,0.0675 0.115156,-0.0945 c -0.06715,0.007 -0.124558,0.0169 -0.191707,0.0269 z m 0.201445,-0.0269 c 0.03827,-0.0102 0.07655,-0.0202 0.115156,-0.0202 -0.0386,0 -0.07689,0.0103 -0.115156,0.0202 z m 0.297128,-0.0507 0.07689,-0.0102 -0.335738,0.30042 1.726707,1.542609 1.716973,-1.542609 -0.33574,-0.30042 0.07689,0.0102 c -0.479772,-0.0574 -0.968943,-0.0945 -1.458116,-0.0945 -0.498909,0 -0.988081,0.0372 -1.467853,0.0945 z m 3.108276,0.0303 c 0.03828,0 0.07655,0.0102 0.124558,0.0202 -0.04801,-0.0103 -0.08629,-0.0202 -0.124558,-0.0202 z m 0.124558,0.0202 0.115157,0.0945 0.07655,-0.0675 c -0.06715,-0.0103 -0.124559,-0.0202 -0.191708,-0.0269 z m 0.460299,0.0742 -0.18197,0.16539 1.716971,1.542619 0.968943,-0.867509 c -0.786637,-0.36792 -1.631022,-0.65486 -2.503944,-0.8405 z m 2.523082,0.85063 c 0.05741,0.0269 0.115156,0.0574 0.17257,0.0877 -0.05741,-0.0303 -0.115156,-0.0608 -0.17257,-0.0877 z m 0.191707,0.0945 -1.016619,0.908009 1.726372,1.54261 1.295284,-1.16792 C 71.336399,100.29862 70.66492,99.873301 69.94543,99.515501 Z m 2.16787,1.410959 0.0097,0.007 -1.304684,1.17806 1.716973,1.53249 1.19926,-1.07003 c -0.479684,-0.59748 -1.026268,-1.15781 -1.621199,-1.64725 z m 1.630686,1.6675 c 0.03861,0.0473 0.07689,0.0945 0.115157,0.14514 -0.03827,-0.0507 -0.07655,-0.0978 -0.115157,-0.14514 z m 0.124896,0.15529 -1.170387,1.03966 1.716971,1.54361 0.671142,-0.60759 c -0.335403,-0.70312 -0.74769,-1.36134 -1.217726,-1.97568 z m 1.315091,2.18801 -0.605338,0.54008 1.209669,1.07038 c -0.164496,-0.55934 -0.36594,-1.09943 -0.604315,-1.61047 z m 0.661407,1.82277 c 0.0101,0.0577 0.02015,0.10603 0.03693,0.15426 -0.01678,-0.0483 -0.02686,-0.0965 -0.03693,-0.15426 z m 0.03693,0.16406 -1.466846,-1.30194 -1.716971,1.53316 1.716971,1.54328 1.554138,-1.38868 c -0.03021,-0.12552 -0.05707,-0.25081 -0.08729,-0.38582 z m 0.134298,0.63628 -1.437972,1.2827 1.629344,1.45653 v -0.68489 c 0,-0.70413 -0.06715,-1.3887 -0.191372,-2.05434 z m 0.191372,3.19256 -1.629344,1.4562 1.629344,1.4562 z m 0,3.37552 -1.629344,1.44641 1.629344,1.45654 z m 6.792009,4.28184 h -6.580494 v -8.79558 c 0,-6.31863 -5.140506,-11.476419 -11.414135,-11.476419 v 0 c -6.283027,0 -11.424878,5.157789 -11.424878,11.476419 v 8.79558 H 47 v 1.0032 H 83 Z M 68.237875,98.610941 v -2.1502 c 0,-1.78564 -1.457781,-3.25062 -3.2325,-3.25062 v 0 c -1.784119,0 -3.232836,1.46498 -3.232836,3.25062 v 2.1502 c 1.026356,-0.31054 2.110459,-0.47256 3.232836,-0.47256 v 0 c 1.122376,0 2.206144,0.16202 3.2325,0.47256 z m -3.2325,-9.3738 -0.508309,3.79069 c 0.172569,-0.0202 0.335738,-0.0303 0.508309,-0.0303 0.163169,0 0.335739,0.0102 0.498909,0.0303 z m 0,-1.650631 0.748027,5.711371 c -0.239717,-0.0608 -0.489171,-0.0877 -0.748027,-0.0877 v 0 c -0.25919,0 -0.518046,0.0269 -0.757764,0.0877 z" />
    </g>
  </g>
</svg>
