<?xml version="1.0" encoding="UTF-8" standalone="no"?>
<!-- Created with Inkscape (http://www.inkscape.org/) -->

<svg
   xmlns:dc="http://purl.org/dc/elements/1.1/"
   xmlns:cc="http://creativecommons.org/ns#"
   xmlns:rdf="http://www.w3.org/1999/02/22-rdf-syntax-ns#"
   xmlns:svg="http://www.w3.org/2000/svg"
   xmlns="http://www.w3.org/2000/svg"
   xmlns:sodipodi="http://sodipodi.sourceforge.net/DTD/sodipodi-0.dtd"
   xmlns:inkscape="http://www.inkscape.org/namespaces/inkscape"
   width="50mm"
   height="61.695328mm"
   viewBox="0 0 50 61.695328"
   version="1.1"
   id="svg2895"
   inkscape:version="0.92.3 (2405546, 2018-03-11)"
   sodipodi:docname="D6A3.svg">
  <defs
     id="defs2889">
    <clipPath
       clipPathUnits="userSpaceOnUse"
       id="clipPath618">
      <path
         d="M 147.69,492.15 H 263.4 V 605.16 H 147.69 Z"
         id="path616"
         inkscape:connector-curvature="0"
         style="clip-rule:evenodd" />
    </clipPath>
    <clipPath
       clipPathUnits="userSpaceOnUse"
       id="clipPath628">
      <path
         d="M 0,0 H 141.74 V 172.96 H 0 Z"
         id="path626"
         inkscape:connector-curvature="0" />
    </clipPath>
  </defs>
  <sodipodi:namedview
     id="base"
     pagecolor="#ffffff"
     bordercolor="#666666"
     borderopacity="1.0"
     inkscape:pageopacity="0.0"
     inkscape:pageshadow="2"
     inkscape:zoom="2.1914477"
     inkscape:cx="94.488188"
     inkscape:cy="116.58959"
     inkscape:document-units="mm"
     inkscape:current-layer="layer1"
     showgrid="false"
     inkscape:window-width="1366"
     inkscape:window-height="704"
     inkscape:window-x="0"
     inkscape:window-y="27"
     inkscape:window-maximized="1" />
  <metadata
     id="metadata2892">
    <rdf:RDF>
      <cc:Work
         rdf:about="">
        <dc:format>image/svg+xml</dc:format>
        <dc:type
           rdf:resource="http://purl.org/dc/dcmitype/StillImage" />
        <dc:title></dc:title>
        <cc:license
           rdf:resource="http://creativecommons.org/publicdomain/zero/1.0/" />
      </cc:Work>
      <cc:License
         rdf:about="http://creativecommons.org/publicdomain/zero/1.0/">
        <cc:permits
           rdf:resource="http://creativecommons.org/ns#Reproduction" />
        <cc:permits
           rdf:resource="http://creativecommons.org/ns#Distribution" />
        <cc:permits
           rdf:resource="http://creativecommons.org/ns#DerivativeWorks" />
      </cc:License>
    </rdf:RDF>
  </metadata>
  <g
     inkscape:label="Layer 1"
     inkscape:groupmode="layer"
     id="layer1"
     transform="translate(-90.578192,-151.49539)">
    <g
       transform="matrix(0.55083337,0,0,-0.55083337,2.3316431,484.44458)"
       id="g612"
       style="stroke-width:0.64044368">
      <g
         id="g614"
         clip-path="url(#clipPath618)"
         style="stroke-width:0.64044368">
        <g
           id="g620"
           transform="matrix(1.2792,0,0,1.5694,159.5,492.15)"
           style="stroke-width:0.64044368">
          <g
             id="g622"
             transform="scale(0.508,0.4163)"
             style="stroke-width:0.64044368">
            <g
               id="g624"
               clip-path="url(#clipPath628)"
               style="stroke-width:0.64044368">
              <g
                 id="g630"
                 style="stroke-width:0.64044368">
                <g
                   id="g632"
                   style="stroke-width:0.64044368">
                  <g
                     id="g634"
                     style="stroke-width:0.64044368" />
                </g>
                <path
                   d="M 8.0286,171.88 H 133.86 c 3.8,0 6.91,-3.12 6.91,-6.95 V 7.3623 c 0,-3.8 -3.11,-6.91433 -6.91,-6.91433 H 8.0286 C 4.2,0.44797 1.0857,3.5623 1.0857,7.3623 V 164.93 c 0,3.83 3.1143,6.95 6.9429,6.95 z m 1.7143,-8.66 H 132.11 V 43.391 H 9.7429 Z"
                   style="fill:#0000ff;fill-opacity:1;fill-rule:evenodd;stroke:none;stroke-width:0.64044368"
                   id="path636"
                   inkscape:connector-curvature="0" />
                <path
                   d="m 79.914,118.65 v 5.51 c 0,4.95 -4.028,8.97 -8.971,8.97 -4.943,0 -9,-4.02 -9,-8.97 v -5.51 c 2.943,0.8 5.943,1.2 9,1.2 3.028,0 6.057,-0.4 8.971,-1.2 z m 8.343,-21.202 5.114,-4.543 5.115,4.543 -5.115,4.572 z m -5.628,-4.971 5.142,-4.572 5.115,4.572 -5.115,4.542 z m -5.6,-5 5.114,-4.572 5.143,4.572 -5.143,4.571 z M 60.2,72.505 l 5.114,-4.543 5.143,4.543 -5.143,4.572 z m -5.629,-4.971 5.143,-4.572 5.115,4.572 -5.115,4.543 z m 21.486,9.971 -5.114,4.543 -5.143,-4.543 5.143,-4.571 z m -4.628,4.972 5.114,-4.543 5.114,4.543 -5.114,4.571 z m 0,29.943 5.114,-4.57 5.114,4.57 -5.114,4.57 z m -5.629,-5 5.143,-4.54 5.114,4.54 -5.114,4.57 z m -5.6,-4.97 5.114,-4.573 5.143,4.573 -5.143,4.54 z m -5.629,-5.002 5.143,-4.543 5.115,4.543 -5.115,4.572 z m -5.6,-4.971 5.143,-4.572 5.115,4.572 -5.115,4.542 z m -5.6,-5 5.115,-4.572 5.143,4.572 -5.143,4.571 z m -5.628,-5 5.143,-4.543 5.114,4.543 -5.114,4.571 z m 10.743,19.543 -5.115,-4.572 5.115,-4.543 5.143,4.543 z m 5.628,4.97 -5.143,-4.54 5.143,-4.573 5.115,4.573 z m 5.6,5 -5.143,-4.57 5.143,-4.54 5.115,4.54 z m 5.6,5 -5.114,-4.57 5.114,-4.57 5.143,4.57 z m 16.829,-14.11 5.143,4.54 -5.143,4.57 -5.114,-4.57 z m -5.6,-5.003 5.114,4.573 -5.114,4.54 -5.114,-4.54 z m -5.6,-4.972 5.114,4.543 -5.114,4.572 -5.143,-4.572 z m -5.629,-5 5.143,4.572 -5.143,4.542 -5.114,-4.542 z m -5.6,-5 5.115,4.572 -5.115,4.571 -5.143,-4.571 z m -5.6,-4.971 5.115,4.543 -5.115,4.571 -5.143,-4.571 z m -5.628,-5 5.143,4.571 -5.143,4.543 -5.115,-4.543 z m -5.6,-4.972 5.114,4.543 -5.114,4.572 -5.143,-4.572 z m 5.6,4.115 -5.115,-4.543 5.115,-4.572 5.143,4.572 z m 5.628,5 -5.143,-4.572 5.143,-4.543 5.115,4.543 z m 5.6,4.971 -5.143,-4.543 5.143,-4.571 5.115,4.571 z m 5.6,5 -5.114,-4.571 5.114,-4.543 5.143,4.543 z m 5.629,5 -5.143,-4.571 5.143,-4.572 5.114,4.572 z m 5.6,4.971 -5.114,-4.542 5.114,-4.572 5.114,4.572 z m 5.6,5.001 -5.114,-4.572 5.114,-4.543 5.143,4.543 z m 5.628,4.97 -5.142,-4.54 5.142,-4.573 5.115,4.573 z M 76.057,67.534 70.943,72.077 65.8,67.534 70.943,62.962 Z m 5.6,4.971 -5.114,4.572 -5.114,-4.572 5.114,-4.543 z m 5.629,-4.971 -5.143,4.543 -5.114,-4.543 5.114,-4.572 z m 0,9.971 -5.143,4.543 -5.114,-4.543 5.114,-4.571 z m 5.6,-5 -5.115,4.572 -5.142,-4.572 5.142,-4.543 z m 5.6,-4.971 -5.115,4.543 -5.114,-4.543 5.114,-4.572 z m -5.6,14.943 -5.115,4.571 -5.142,-4.571 5.142,-4.543 z m 5.6,-4.972 -5.115,4.543 -5.114,-4.543 5.114,-4.571 z m 5.624,-5 -5.139,4.572 -5.114,-4.572 5.114,-4.543 z m -5.624,14.972 -5.115,4.571 -5.114,-4.571 5.114,-4.572 z m 5.624,-5 -5.139,4.571 -5.114,-4.571 5.114,-4.543 z m 0.2,-20.629 -3.08,-2.714 h 3.08 z m -4.05,-2.714 3.85,3.4 -5.139,4.571 -5.114,-4.571 3.829,-3.4 z m -3.517,0 -3.372,2.971 L 90,59.134 Z m -7.686,0 3.829,3.4 -5.115,4.571 -5.142,-4.571 3.857,-3.4 z m -3.543,0 -3.371,2.971 -3.343,-2.971 z m -7.685,0 3.828,3.4 -5.114,4.571 -5.114,-4.571 3.828,-3.4 z m -3.543,0 -3.343,2.971 -3.372,-2.971 z m -7.686,0 3.857,3.4 -5.143,4.571 -5.114,-4.571 3.829,-3.4 z m -3.543,0 -3.343,2.971 -3.371,-2.971 z m -7.657,0 3.829,3.4 -5.115,4.571 -5.143,-4.571 3.858,-3.4 z m -3.543,0 -3.371,2.971 -3.343,-2.971 z m -7.686,0 3.829,3.4 -5.114,4.571 -5.143,-4.571 3.857,-3.4 z m -3.542,0 -3.086,2.714 v -2.714 z m -3.086,4.085 4.857,4.315 -4.857,4.285 z m 0,9.972 4.857,4.314 -4.857,4.314 z m 0,9.971 4.857,4.315 -4.286,3.8 c -0.371,-1.972 -0.571,-4 -0.571,-6.086 z m 0.714,8.857 4.629,-4.114 5.114,4.572 -5.114,4.542 -4.372,-3.857 c -0.085,-0.4 -0.171,-0.771 -0.257,-1.143 z m 0.286,1.2 c 0.028,0.143 0.057,0.286 0.114,0.4 -0.057,-0.114 -0.086,-0.257 -0.114,-0.4 z m 0.286,1.058 3.571,3.171 -1.8,1.6 c -0.714,-1.514 -1.314,-3.114 -1.771,-4.771 z m 2.057,5.4 2,-1.8 5.114,4.573 -3.457,3.08 c -1.429,-1.82 -2.657,-3.77 -3.657,-5.853 z m 3.657,5.883 c 0.114,0.15 0.228,0.29 0.343,0.43 -0.115,-0.14 -0.229,-0.28 -0.343,-0.43 z m 0.371,0.49 3.572,-3.17 5.143,4.54 -3.915,3.49 0.029,0.02 c -1.772,-1.45 -3.372,-3.11 -4.829,-4.88 z m 5.315,5.26 3.885,-3.46 5.115,4.57 -3.029,2.69 c -2.114,-1.06 -4.143,-2.32 -5.971,-3.8 z m 6.028,3.82 c 0.172,0.09 0.343,0.18 0.514,0.26 -0.171,-0.08 -0.342,-0.17 -0.514,-0.26 z m 0.572,0.29 2.885,-2.57 5.115,4.57 -0.543,0.49 c -2.6,-0.55 -5.115,-1.38 -7.457,-2.49 z m 8.257,2.63 0.228,-0.2 0.343,0.28 c -0.2,-0.02 -0.371,-0.05 -0.571,-0.08 z m 0.6,0.08 c 0.114,0.03 0.228,0.06 0.343,0.06 -0.115,0 -0.229,-0.03 -0.343,-0.06 z m 0.885,0.15 0.229,0.03 -1,-0.89 5.143,-4.57 5.114,4.57 -1,0.89 0.229,-0.03 c -1.429,0.17 -2.886,0.28 -4.343,0.28 -1.486,0 -2.943,-0.11 -4.372,-0.28 z m 9.258,-0.09 c 0.114,0 0.228,-0.03 0.371,-0.06 -0.143,0.03 -0.257,0.06 -0.371,0.06 z m 0.371,-0.06 0.343,-0.28 0.228,0.2 c -0.2,0.03 -0.371,0.06 -0.571,0.08 z m 1.371,-0.22 -0.542,-0.49 5.114,-4.57 2.886,2.57 c -2.343,1.09 -4.858,1.94 -7.458,2.49 z m 7.515,-2.52 c 0.171,-0.08 0.343,-0.17 0.514,-0.26 -0.171,0.09 -0.343,0.18 -0.514,0.26 z m 0.571,-0.28 -3.028,-2.69 5.142,-4.57 3.858,3.46 c -1.829,1.48 -3.829,2.74 -5.972,3.8 z m 6.457,-4.18 0.029,-0.02 -3.886,-3.49 5.114,-4.54 3.572,3.17 c -1.429,1.77 -3.057,3.43 -4.829,4.88 z m 4.857,-4.94 c 0.115,-0.14 0.229,-0.28 0.343,-0.43 -0.114,0.15 -0.228,0.29 -0.343,0.43 z m 0.372,-0.46 -3.486,-3.08 5.114,-4.573 1.999,1.8 c -0.999,2.083 -2.227,4.033 -3.627,5.853 z m 3.917,-6.482 -1.803,-1.6 3.603,-3.171 c -0.49,1.657 -1.09,3.257 -1.8,4.771 z m 1.97,-5.4 c 0.03,-0.171 0.06,-0.314 0.11,-0.457 -0.05,0.143 -0.08,0.286 -0.11,0.457 z m 0.11,-0.486 -4.369,3.857 -5.114,-4.542 5.114,-4.572 4.629,4.114 c -0.09,0.372 -0.17,0.743 -0.26,1.143 z m 0.4,-1.885 -4.283,-3.8 4.853,-4.315 v 2.029 c 0,2.086 -0.2,4.114 -0.57,6.086 z m 0.57,-9.458 -4.853,-4.314 4.853,-4.314 z m 0,-10 -4.853,-4.285 4.853,-4.315 z m 20.23,-12.685 h -19.6 v 26.057 c 0,18.719 -15.311,33.999 -33.997,33.999 v 0 c -18.714,0 -34.029,-15.28 -34.029,-33.999 V 59.134 h -19.6 V 56.162 H 124.54 Z M 80.571,117.79 v 6.37 c 0,5.29 -4.342,9.63 -9.628,9.63 v 0 c -5.314,0 -9.629,-4.34 -9.629,-9.63 v -6.37 c 3.057,0.92 6.286,1.4 9.629,1.4 v 0 c 3.343,0 6.571,-0.48 9.628,-1.4 z m -9.628,27.77 -1.514,-11.23 c 0.514,0.06 1,0.09 1.514,0.09 0.486,0 1,-0.03 1.486,-0.09 z m 0,4.89 2.228,-16.92 c -0.714,0.18 -1.457,0.26 -2.228,0.26 v 0 c -0.772,0 -1.543,-0.08 -2.257,-0.26 z"
                   style="fill:#040404;fill-opacity:1;fill-rule:evenodd;stroke:none;stroke-width:0.64044368"
                   id="path638"
                   inkscape:connector-curvature="0" />
              </g>
            </g>
          </g>
        </g>
      </g>
    </g>
  </g>
</svg>
