<?xml version="1.0" encoding="UTF-8" standalone="no"?>
<!-- Created with Inkscape (http://www.inkscape.org/) -->

<svg
   xmlns:dc="http://purl.org/dc/elements/1.1/"
   xmlns:cc="http://creativecommons.org/ns#"
   xmlns:rdf="http://www.w3.org/1999/02/22-rdf-syntax-ns#"
   xmlns:svg="http://www.w3.org/2000/svg"
   xmlns="http://www.w3.org/2000/svg"
   xmlns:sodipodi="http://sodipodi.sourceforge.net/DTD/sodipodi-0.dtd"
   xmlns:inkscape="http://www.inkscape.org/namespaces/inkscape"
   width="50mm"
   height="60mm"
   viewBox="0 0 50 60"
   version="1.1"
   id="svg8"
   inkscape:version="0.92.3 (2405546, 2018-03-11)"
   sodipodi:docname="D6B1.svg">
  <defs
     id="defs2" />
  <sodipodi:namedview
     id="base"
     pagecolor="#ffffff"
     bordercolor="#666666"
     borderopacity="1.0"
     inkscape:pageopacity="0.0"
     inkscape:pageshadow="2"
     inkscape:zoom="2.2533681"
     inkscape:cx="94.488187"
     inkscape:cy="113.38582"
     inkscape:document-units="mm"
     inkscape:current-layer="layer1"
     showgrid="false"
     inkscape:window-width="1366"
     inkscape:window-height="704"
     inkscape:window-x="0"
     inkscape:window-y="27"
     inkscape:window-maximized="1"
     showguides="true"
     inkscape:guide-bbox="true" />
  <metadata
     id="metadata5">
    <rdf:RDF>
      <cc:Work
         rdf:about="">
        <dc:format>image/svg+xml</dc:format>
        <dc:type
           rdf:resource="http://purl.org/dc/dcmitype/StillImage" />
        <dc:title />
        <cc:license
           rdf:resource="http://creativecommons.org/publicdomain/zero/1.0/" />
      </cc:Work>
      <cc:License
         rdf:about="http://creativecommons.org/publicdomain/zero/1.0/">
        <cc:permits
           rdf:resource="http://creativecommons.org/ns#Reproduction" />
        <cc:permits
           rdf:resource="http://creativecommons.org/ns#Distribution" />
        <cc:permits
           rdf:resource="http://creativecommons.org/ns#DerivativeWorks" />
      </cc:License>
    </rdf:RDF>
  </metadata>
  <g
     inkscape:label="Layer 1"
     inkscape:groupmode="layer"
     id="layer1"
     transform="translate(-50,-77)">
    <g
       id="g3707">
      <rect
         ry="3.7"
         rx="3.7"
         y="77"
         x="50"
         height="60"
         width="50"
         id="rect1968"
         style="fill:#0000ff;fill-opacity:1;stroke:none;stroke-width:1.25;stroke-linejoin:round;stroke-miterlimit:4;stroke-dasharray:none" />
      <g
         id="g3701">
        <path
           d="m 88.229776,82.038232 h 3.554681 v 3.206614 H 95 v 3.536031 H 91.784457 V 92 H 88.229776 V 88.780877 H 85 v -3.536031 h 3.229776 z"
           style="fill:#ff0000;fill-opacity:1;fill-rule:evenodd;stroke:none;stroke-width:0.23269165"
           id="path698"
           inkscape:connector-curvature="0" />
        <path
           d="m 66.784503,116.87628 0.02282,0.0223 0.03346,0.0223 2.170603,1.1089 0.02243,0.0223 0.03346,0.0118 0.04525,0.0338 0.04487,0.0223 0.04487,0.0338 0.05628,0.0447 0.05628,0.0451 0.05628,0.0333 0.05628,0.056 0.05628,0.0447 0.0673,0.0451 0.05628,0.0447 0.05628,0.0447 0.04487,0.0451 0.04487,0.0332 0.04525,0.0451 0.03346,0.0332 0.03384,0.0338 0.01148,0.0223 0.01097,0.0223 0.07871,0.23519 0.01148,0.0223 0.02243,0.0228 0.05628,0.0223 0.101144,0.0223 11.200154,2.72152 0.07871,0.0118 0.07871,0.0118 0.07871,0.0118 0.0673,0.0228 0.07871,0.0118 0.07871,0.0223 0.03384,0.0118 h 0.04487 0.03384 0.03384 l 0.04487,-0.0118 h 0.03384 l 0.04487,-0.0118 0.03384,-0.0223 0.03384,-0.0118 0.04487,-0.0223 0.03384,-0.0118 0.04487,-0.0118 0.03384,-0.0223 0.03346,-0.0118 h 0.04526 l 0.03346,-0.0118 11.561854,-1.1869 c 0.728126,-0.0674 0.964275,0.27986 0.964275,1.03012 v 8.71328 l 0.02361,0.067 0.01182,0.0783 0.01181,0.0783 v 0.0451 l -0.01181,0.0223 -0.03541,0.0223 h -0.0551 l -1.507418,0.1455 h -0.0433 l -0.04723,-0.0332 -0.0433,-0.0338 -0.03541,-0.0338 v -0.056 l -0.06693,-3.86374 v -0.0447 l -0.02361,-0.0223 h -0.03148 -0.0551 l -9.85253,1.32136 -0.02243,0.0118 -0.02243,0.0118 -0.01148,0.0228 -0.01097,0.0333 v 0.056 0.0898 l 0.123577,3.40434 v 0.0451 l -0.01148,0.0447 -0.02243,0.0338 -0.02243,0.0332 -0.03384,0.0338 -0.03346,0.0118 -0.04525,0.0223 -0.04487,0.0118 -0.05628,0.0118 -0.04487,0.0118 c -0.348713,0.0447 -0.686012,0.12306 -1.034726,0.11175 l -0.04487,-0.0118 h -0.04487 l -0.03384,-0.0118 -0.04487,-0.0101 -0.03384,-0.0118 -0.03384,-0.0223 -0.03346,-0.0118 -0.02243,-0.0223 -0.02282,-0.0223 -0.02243,-0.0338 -0.02243,-0.0223 -0.02243,-0.0338 -0.02243,-0.0333 -0.01148,-0.0451 -0.01097,-0.0447 -0.02243,-0.0447 -0.01148,-0.0447 -0.01148,-0.056 -0.112166,-3.56153 v -0.056 l -0.01148,-0.0338 -0.02243,-0.0118 -0.03384,-0.0223 -24.592948,-6.10389 -0.03384,-0.0118 -0.03384,-0.0118 -0.02243,-0.0118 -0.03384,-0.0118 h -0.02243 l -0.02243,0.0118 -0.01148,0.0333 -0.01097,0.056 0.02243,0.0898 0.01148,0.10077 v 3.06841 0.0451 l -0.02253,0.0223 h -0.04487 -1.214592 -0.04487 -0.03384 l -0.02243,-0.0118 h -0.02243 l -0.02243,-0.0118 -0.01148,-0.0118 -0.01097,-0.0118 -0.01148,-0.0228 v -0.0223 l -0.01097,-0.0223 v -0.0338 -0.0447 L 55,117.18672 l 0.01097,-0.12306 v -0.11208 l 0.01148,-0.12305 0.01097,-0.11209 0.02243,-0.12305 0.02282,-0.11208 0.02243,-0.0898 0.03346,-0.0783 0.03384,-0.067 0.05628,-0.0783 0.04487,-0.0783 0.0677,-0.0675 0.05628,-0.067 0.07871,-0.067 0.0673,-0.056 0.07871,-0.056 0.09014,-0.056 0.07871,-0.056 0.08973,-0.0447 0.07871,-0.0447 0.09014,-0.0338 0.08973,-0.0338 0.07871,-0.0338 0.09014,-0.0223 0.07871,-0.0101 0.07871,-0.0118 8.062914,-0.87333 0.08973,-0.0118 0.07871,-0.0118 h 0.09012 l 0.07871,-0.0118 h 0.08973 0.09014 0.07871 0.08973 0.09012 0.07871 l 0.09012,0.0118 h 0.08973 l 0.07871,0.0118 0.09014,0.0118 0.07871,0.0118 0.08973,0.0223 0.09012,0.0118 0.07871,0.0223 0.08973,0.0223 0.07871,0.0223 h 0.03384 l 0.03384,0.0118 0.03384,0.0101 0.02243,0.0228 0.03346,0.0118 0.03384,0.0118 0.03384,0.0223 0.03384,0.0223 0.03346,0.0118 0.03384,0.0223 0.02243,0.0223 0.02243,0.0223 0.03384,0.0338 0.02243,0.0223 0.01148,0.0338 0.02243,0.0333 0.01097,0.0223 0.01148,0.0451 0.01148,0.0333 v 0.0338 l 0.04487,1.71374 z m 16.372995,9.44118 h -0.04487 l -0.03384,0.0118 h -0.02243 l -0.01097,0.0223 v 0.0118 0.0338 0.0333 0.0451 l 0.01097,0.0447 v 0.0447 l 0.02243,0.0223 0.02282,0.0223 0.05589,0.0118 0.101549,-0.0118 0.101144,-0.0118 9.47902,-1.25432 0.102326,-0.0223 0.07871,-0.0118 0.0551,-0.0223 0.03541,-0.0223 0.01968,-0.0447 v -0.056 l -0.0079,-0.056 v -0.0447 l -0.02362,-0.0338 -0.02361,-0.0118 -0.03148,0.0118 z m -21.444294,-5.07336 -0.04525,0.0118 -0.02243,0.0223 v 0.0228 l 0.01148,0.0332 0.02243,0.0223 0.03384,0.0228 0.03346,0.0101 0.101549,0.0223 0.08973,0.0118 0.101144,0.0223 0.09012,0.0223 0.101144,0.0223 0.09014,0.0223 0.101144,0.0228 0.08973,0.0223 0.09014,0.0333 0.101143,0.0228 0.09014,0.0223 0.101144,0.0223 0.08973,0.0223 0.09014,0.0338 0.101144,0.0118 0.09012,0.0223 0.1346,0.0337 0.123982,0.0223 0.135005,0.0338 0.134599,0.0338 16.890554,4.1436 0.08973,0.0223 0.101144,0.0223 0.303844,0.0785 h 0.04487 0.03384 l 0.01097,-0.0118 0.01148,-0.0223 v -0.0451 l -0.0673,-2.54197 v -0.056 -0.0674 -0.067 -0.067 -0.0673 l 0.01097,-0.067 v -0.0674 l 0.01148,-0.067 0.01097,-0.0674 0.01148,-0.067 0.01097,-0.067 0.02282,-0.0674 0.02243,-0.067 0.02243,-0.0674 0.02243,-0.056 0.03384,-0.0557 0.03346,-0.056 0.03384,-0.056 0.04487,-0.056 0.04525,-0.0447 0.04487,-0.056 0.01148,-0.0223 -0.02282,-0.0338 -0.02243,-0.0223 -0.101144,-0.0118 -0.08973,-0.0118 -11.290282,-2.7662 -0.03384,-0.0118 h -0.03384 -0.01097 l -0.02243,0.0118 -0.01148,0.0332 -0.01097,0.0338 v 0.0447 l -0.01148,0.056 -0.02243,0.26889 -0.01148,0.0338 -0.01097,0.0223 -0.02243,0.0332 -0.03384,0.0228 -0.02243,0.0223 -0.04525,0.0118 -0.03346,0.0223 -0.03384,0.0228 -0.03384,0.0118 -0.02243,0.0223 -0.03384,0.0223 -0.01097,0.0228 -0.02243,0.0447 -0.04525,0.0338 -0.1346,0.0118 -0.135005,0.0118 -0.135004,0.0118 -0.123577,0.0118 z m 30.720622,3.59482 0.01182,-0.0223 v -0.0338 l -0.03148,-0.0101 -8.086922,-1.93755 h -0.09014 c -0.314866,0.0118 -0.618318,0.0447 -0.933184,0.067 l -0.112555,0.0118 -0.03384,0.0118 -0.03346,0.0118 -0.03384,0.0223 -0.03384,0.0223 -0.02243,0.0338 -0.03384,0.0338 -0.02243,0.0332 -0.01097,0.0338 -0.01148,0.0338 -0.01097,0.0338 0.0673,2.67643 0.02243,0.0898 0.01148,0.0447 0.01097,0.0447 0.02243,0.0118 0.01148,0.0223 h 0.02243 l 0.01148,-0.0118 0.02243,-0.0118 0.02243,-0.0118 0.03384,-0.0118 h 0.02243 l 9.18875,-1.17594 z m -7.004573,-2.16137 h -0.04487 l -0.06769,-0.0118 -0.0673,0.0118 -0.02243,0.0338 0.01097,0.0332 0.04487,0.0223 0.101548,0.0228 0.08973,0.0118 0.07871,0.0118 7.333606,1.78075 0.03148,0.0118 h 0.03541 l 0.01968,0.0118 h 0.02362 0.02361 0.02361 0.0079 0.01182 l 0.02362,-0.0118 v -0.0118 l 0.01182,-0.0118 0.01181,-0.0118 v -0.0118 -0.0223 -0.0223 l 0.01182,-0.0228 v -0.0333 -0.0223 l -0.07084,-2.35186 -0.0079,-0.0451 -0.03541,-0.0447 -0.0551,-0.0338 -0.06691,-0.0447 -0.07871,-0.0118 z m -28.844026,-2.94533 -0.0673,0.0118 -0.03384,0.0118 -0.01148,0.0223 v 0.0337 0.15682 0.0447 l 0.02282,0.0223 0.04487,0.0118 2.844808,0.75024 h 0.04525 l 0.02243,-0.0338 v -0.0338 l -0.03384,-0.0333 -0.865879,-0.36963 -0.04487,-0.0223 -0.04487,-0.0223 -0.04527,-0.0338 -0.03345,-0.0223 -0.04525,-0.0338 -0.03346,-0.0338 -0.03384,-0.0333 -0.03384,-0.0338 -0.03384,-0.0447 -0.03346,-0.0338 -0.03384,-0.0447 -0.03384,-0.0338 -0.03346,-0.0447 -0.03384,-0.0338 -0.03384,-0.0338 -0.03384,-0.0447 -0.03346,-0.0338 -0.03384,-0.0338 -0.04487,-0.0333 -0.03384,-0.0338 -0.04487,-0.0338 -0.05628,-0.0118 -0.101144,-0.0118 h -0.09014 z m 1.73176,-1.9152 -0.03384,0.0118 -0.04487,0.0338 -0.0673,0.0338 -0.05628,0.056 -0.05628,0.0447 -0.04487,0.0447 -0.02243,0.0338 -0.01148,0.0447 v 0.0451 l 0.01148,0.0557 0.01097,0.056 0.01148,0.0451 0.02243,0.0557 0.03384,0.0451 0.02243,0.056 0.03346,0.0557 0.03384,0.0451 0.04487,0.0447 0.03384,0.056 0.04487,0.0447 0.03384,0.0447 0.04487,0.0451 0.04526,0.0447 0.03346,0.0338 0.03384,0.0332 0.03384,0.0451 0.03384,0.0332 0.03346,0.0338 0.03384,0.0223 0.04487,0.0338 0.03384,0.0338 0.05628,0.0332 0.04487,0.0338 0.05628,0.0223 0.05628,0.0338 0.05628,0.0338 0.05628,0.0333 0.05589,0.0338 0.05628,0.0338 0.05628,0.0338 0.05628,0.0223 0.04487,0.0332 0.05628,0.0338 0.04487,0.0223 0.04525,0.0338 0.04487,0.0223 0.03384,0.0338 0.101144,0.0783 0.101144,0.067 0.101144,0.0674 0.101143,0.056 0.101144,0.067 0.101549,0.0783 0.05589,0.0447 0.05628,0.056 0.0677,0.0447 0.05628,0.0451 0.05589,0.0447 0.06769,0.0447 0.05628,0.0451 0.0673,0.0447 0.05628,0.0338 0.0673,0.0333 0.06769,0.0338 0.05628,0.0338 0.0673,0.0223 0.07871,0.0223 0.06771,0.0223 0.0673,0.0118 h 0.07871 l 0.07871,0.0101 0.07871,-0.0101 h 0.07871 l 4.869,-0.72789 0.07871,-0.0228 0.07871,-0.0223 0.07871,-0.0333 0.07871,-0.0338 0.06769,-0.0223 0.0673,-0.0118 h 0.09012 0.08973 0.101549 l 0.101144,-0.0118 0.112166,-0.0118 0.123983,-0.0118 0.112166,-0.0118 0.123982,-0.0223 0.123577,-0.0118 0.123578,-0.0223 0.123982,-0.0118 0.123577,-0.0223 0.123577,-0.0223 0.112572,-0.0223 0.112571,-0.0223 0.112166,-0.0223 0.101144,-0.0223 0.09012,-0.0338 0.09014,-0.0223 0.07871,-0.0223 0.07871,-0.0338 0.0673,-0.0223 0.0673,-0.0338 0.05628,-0.0447 0.04526,-0.0338 0.03345,-0.0338 0.03384,-0.0447 0.02243,-0.0447 0.02243,-0.0451 v -0.0447 l 0.01148,-0.0447 -0.01148,-0.0447 -0.01097,-0.0451 -0.01148,-0.056 -0.02243,-0.0447 -0.03384,-0.056 -0.03346,-0.056 -0.04526,-0.0557 -0.04487,-0.056 -0.05628,-0.056 -0.04487,-0.056 -0.05628,-0.056 -0.07871,-0.0447 -0.0673,-0.056 -0.06769,-0.056 -1.945475,-0.98542 -0.08973,-0.0447 -0.101144,-0.0228 -0.09014,-0.0333 -0.101144,-0.0223 -0.04487,-0.0228 -0.04525,-0.0223 -0.04487,-0.0223 -0.03384,-0.0101 -0.04487,-0.0118 -0.03384,-0.0118 -0.03346,-0.0118 -0.03384,-0.0118 -0.03384,-0.0118 -0.03384,-0.0118 h -0.03346 -0.03384 l -0.03384,-0.0118 h -0.03346 -0.04526 -0.03345 -0.04526 l -0.04487,0.0118 h -0.05628 l -0.05628,0.0118 z m 7.039602,-1.08657 0.0673,-0.0118 0.04525,-0.0118 0.03346,-0.0101 0.01148,-0.0118 0.01097,-0.0223 v -0.0338 -0.63814 -0.0338 l -0.02243,-0.0338 -0.01097,-0.0223 -0.02243,-0.0223 -0.03384,-0.0223 -0.03384,-0.0223 -0.03384,-0.0223 -0.03346,-0.0118 -0.03384,-0.0118 h -0.02243 -0.03384 l -7.792918,0.78397 h -0.05628 l -0.04487,0.0118 -0.04487,0.0118 h -0.05628 l -0.04487,0.0118 -0.04525,0.0118 -0.05628,0.0118 -0.04487,0.0223 -0.04487,0.0118 -0.04487,0.0223 -0.03384,0.0223 -0.04487,0.0223 -0.03384,0.0228 c -0.135004,0.12305 -0.359736,0.26854 -0.359736,0.67188 l -0.03384,1.89248 v 0.056 l 0.01097,0.0337 v 0.0338 l 0.02282,0.0118 0.01097,0.0118 h 0.03384 l 0.04487,-0.0118 0.944596,-0.17915 0.01148,-0.0101 v -0.056 l -0.02243,-0.0338 -0.02282,-0.0338 -0.03346,-0.056 -0.03384,-0.0557 -0.03384,-0.056 -0.02243,-0.0783 -0.01097,-0.0673 -0.02282,-0.0783 v -0.0783 l -0.01097,-0.0783 v -0.0893 -0.0783 l 0.01097,-0.0898 0.01148,-0.0783 0.02243,-0.0783 0.01148,-0.0783 0.03346,-0.067 0.02282,-0.0783 0.04487,-0.056 0.03384,-0.056 0.04487,-0.056 0.05628,-0.0447 0.0673,-0.0447 0.123577,-0.056 0.135005,-0.056 0.07871,-0.0338 z"
           style="fill:#fefefe;fill-opacity:1;fill-rule:evenodd;stroke:none;stroke-width:0.23269165"
           id="path696"
           inkscape:connector-curvature="0" />
      </g>
    </g>
  </g>
</svg>
