<?xml version="1.0" encoding="UTF-8" standalone="no"?>
<!-- Created with Inkscape (http://www.inkscape.org/) -->

<svg
   xmlns:dc="http://purl.org/dc/elements/1.1/"
   xmlns:cc="http://creativecommons.org/ns#"
   xmlns:rdf="http://www.w3.org/1999/02/22-rdf-syntax-ns#"
   xmlns:svg="http://www.w3.org/2000/svg"
   xmlns="http://www.w3.org/2000/svg"
   xmlns:sodipodi="http://sodipodi.sourceforge.net/DTD/sodipodi-0.dtd"
   xmlns:inkscape="http://www.inkscape.org/namespaces/inkscape"
   width="50mm"
   height="60mm"
   viewBox="0 0 50 60"
   version="1.1"
   id="svg8"
   inkscape:version="0.92.3 (2405546, 2018-03-11)"
   sodipodi:docname="D6B3.svg">
  <defs
     id="defs2" />
  <sodipodi:namedview
     id="base"
     pagecolor="#ffffff"
     bordercolor="#666666"
     borderopacity="1.0"
     inkscape:pageopacity="0.0"
     inkscape:pageshadow="2"
     inkscape:zoom="2.2533681"
     inkscape:cx="94.488189"
     inkscape:cy="113.38583"
     inkscape:document-units="mm"
     inkscape:current-layer="layer1"
     showgrid="false"
     inkscape:window-width="1366"
     inkscape:window-height="704"
     inkscape:window-x="0"
     inkscape:window-y="27"
     inkscape:window-maximized="1" />
  <metadata
     id="metadata5">
    <rdf:RDF>
      <cc:Work
         rdf:about="">
        <dc:format>image/svg+xml</dc:format>
        <dc:type
           rdf:resource="http://purl.org/dc/dcmitype/StillImage" />
        <dc:title></dc:title>
        <cc:license
           rdf:resource="http://creativecommons.org/publicdomain/zero/1.0/" />
      </cc:Work>
      <cc:License
         rdf:about="http://creativecommons.org/publicdomain/zero/1.0/">
        <cc:permits
           rdf:resource="http://creativecommons.org/ns#Reproduction" />
        <cc:permits
           rdf:resource="http://creativecommons.org/ns#Distribution" />
        <cc:permits
           rdf:resource="http://creativecommons.org/ns#DerivativeWorks" />
      </cc:License>
    </rdf:RDF>
  </metadata>
  <g
     inkscape:label="Layer 1"
     inkscape:groupmode="layer"
     id="layer1"
     transform="translate(-50,-77)">
    <g
       id="g3715">
      <rect
         ry="3.7"
         rx="3.7"
         y="77"
         x="50"
         height="60"
         width="50"
         id="rect1968"
         style="fill:#0000ff;fill-opacity:1;stroke:none;stroke-width:1.25;stroke-linejoin:round;stroke-miterlimit:4;stroke-dasharray:none" />
      <g
         transform="translate(-0.22537157,-6.0411548)"
         id="g3693">
        <path
           d="m 85.968722,114.34294 c 0.09578,0.62307 0.157349,1.26557 0.157349,1.91763 0,6.72584 -5.474382,12.16668 -12.218162,12.16668 -6.753017,0 -12.216454,-5.44084 -12.216454,-12.16668 0,-0.65206 0.04891,-1.29456 0.146746,-1.91763 0.06841,0 0.126913,0 0.195318,0 h 23.750489 c 0.05815,0 0.126561,0 0.184714,0 z m -23.935203,-4.33128 h 23.750489 c 0.985142,0 1.806095,0.80807 1.806095,1.80078 v 0 c 0,0.99271 -0.820953,1.80078 -1.806095,1.80078 H 62.033519 c -0.996773,0 -1.808148,-0.80807 -1.808148,-1.80078 v 0 c 0,-0.99271 0.811375,-1.80078 1.808148,-1.80078 z m 25.724195,-5.52873 c -0.820952,1.65565 -1.682952,3.24999 -2.599681,4.79867 H 76.52743 c 1.974048,-3.08511 4.143755,-6.09322 6.176639,-8.20538 0.185741,0.28275 0.429974,0.53485 0.723122,0.72904 l 3.331697,2.26885 c 0.314699,0.2044 0.646501,0.34067 0.998826,0.40882 z m -1.710317,-6.493187 3.331698,2.258657 c 0.879102,0.60298 1.115126,1.81918 0.509674,2.70491 v 0 c -0.608873,0.88574 -1.830039,1.1208 -2.719404,0.51782 l -3.321777,-2.26887 c -0.889366,-0.60298 -1.124021,-1.819174 -0.518228,-2.694684 v 0 c 0.606137,-0.88575 1.828673,-1.120812 2.718037,-0.517833 z"
           style="fill:#fefefe;fill-opacity:1;fill-rule:evenodd;stroke:none;stroke-width:0.23269166"
           id="path674"
           inkscape:connector-curvature="0" />
        <path
           d="m 87.706404,99.120781 c 0.03078,0.01702 0.05132,0.03741 0.07868,0.04768 z"
           style="fill:#fefefe;fill-opacity:1;fill-rule:evenodd;stroke:none;stroke-width:0.23269166"
           id="path676"
           inkscape:connector-curvature="0" />
        <path
           d="m 87.706404,99.120781 c 0.03078,0.01702 0.05132,0.03741 0.07868,0.04768 z"
           style="fill:none;stroke:#221f20;stroke-width:0.11967098;stroke-linecap:butt;stroke-linejoin:miter;stroke-miterlimit:10;stroke-dasharray:none;stroke-opacity:1"
           id="path678"
           inkscape:connector-curvature="0" />
        <path
           d="m 71.875367,115.32611 h 4.055847 v 3.66969 h 3.684364 v 4.03933 h -3.684364 v 3.66935 h -4.055847 v -3.66935 h -3.684706 v -4.03933 h 3.684706 z"
           style="fill:#ff0000;fill-opacity:1;fill-rule:evenodd;stroke:none;stroke-width:0.23269166"
           id="path680"
           inkscape:connector-curvature="0" />
      </g>
    </g>
  </g>
</svg>
