<?xml version="1.0" encoding="UTF-8" standalone="no"?>
<!-- Created with Inkscape (http://www.inkscape.org/) -->

<svg
   xmlns:dc="http://purl.org/dc/elements/1.1/"
   xmlns:cc="http://creativecommons.org/ns#"
   xmlns:rdf="http://www.w3.org/1999/02/22-rdf-syntax-ns#"
   xmlns:svg="http://www.w3.org/2000/svg"
   xmlns="http://www.w3.org/2000/svg"
   xmlns:sodipodi="http://sodipodi.sourceforge.net/DTD/sodipodi-0.dtd"
   xmlns:inkscape="http://www.inkscape.org/namespaces/inkscape"
   width="210mm"
   height="297mm"
   viewBox="0 0 210 297"
   version="1.1"
   id="svg8"
   inkscape:version="0.92.3 (2405546, 2018-03-11)"
   sodipodi:docname="W1A.svg">
  <defs
     id="defs2" />
  <sodipodi:namedview
     id="base"
     pagecolor="#ffffff"
     bordercolor="#666666"
     borderopacity="1.0"
     inkscape:pageopacity="0.0"
     inkscape:pageshadow="2"
     inkscape:zoom="2.2533628"
     inkscape:cx="219.00577"
     inkscape:cy="718.11049"
     inkscape:document-units="mm"
     inkscape:current-layer="layer1"
     showgrid="false"
     inkscape:window-width="1366"
     inkscape:window-height="704"
     inkscape:window-x="0"
     inkscape:window-y="27"
     inkscape:window-maximized="1" />
  <metadata
     id="metadata5">
    <rdf:RDF>
      <cc:Work
         rdf:about="">
        <dc:format>image/svg+xml</dc:format>
        <dc:type
           rdf:resource="http://purl.org/dc/dcmitype/StillImage" />
        <dc:title />
        <cc:license
           rdf:resource="http://creativecommons.org/publicdomain/zero/1.0/" />
      </cc:Work>
      <cc:License
         rdf:about="http://creativecommons.org/publicdomain/zero/1.0/">
        <cc:permits
           rdf:resource="http://creativecommons.org/ns#Reproduction" />
        <cc:permits
           rdf:resource="http://creativecommons.org/ns#Distribution" />
        <cc:permits
           rdf:resource="http://creativecommons.org/ns#DerivativeWorks" />
      </cc:License>
    </rdf:RDF>
  </metadata>
  <g
     inkscape:label="Layer 1"
     inkscape:groupmode="layer"
     id="layer1">
    <rect
       style="fill:#ffff00;fill-opacity:1;stroke:#000000;stroke-width:2.5;stroke-linejoin:round;stroke-miterlimit:4;stroke-dasharray:none"
       id="rect1401"
       width="42.835999"
       height="42.835999"
       x="96.668839"
       y="11.815919"
       rx="3.6999998"
       ry="3.6999998"
       transform="rotate(45)" />
    <path
       d="m 64.979494,120.98208 h 3.24085 v -12.25179 -0.34502 l -0.02262,-0.32386 -0.01883,-0.32352 -0.03392,-0.32348 -0.03392,-0.30199 -0.05275,-0.29103 -0.05275,-0.29142 -0.06407,-0.28047 -0.07537,-0.28009 -0.07537,-0.25894 -0.08668,-0.25895 -0.09799,-0.24801 -0.105521,-0.23742 -0.109287,-0.23707 -0.116822,-0.22648 -0.120588,-0.21592 -0.139439,-0.21553 -0.139438,-0.20497 -0.13944,-0.19402 -0.150706,-0.19403 -0.16204,-0.18347 -0.16204,-0.1725 -0.173349,-0.17251 -0.169578,-0.16197 -0.184654,-0.16197 -0.193697,-0.15101 -0.194074,-0.15099 -0.408875,-0.2801 -0.42018,-0.24838 -16.516275,-8.683117 6.653918,12.177807 c 0.710726,1.30495 2.444204,1.66089 2.993264,0.11857 l 1.055161,-2.9983 3.628244,2.04933 c 1.615149,0.91651 2.648828,2.68537 2.648828,4.38931 z m 3.24085,0 h 3.779735 v -12.85575 c 0,-3.03078 -2.607755,-7.8723 -5.321024,-9.144397 l -4.39135,-2.072355 1.561259,-1.725073 c 0.915353,-1.015416 0.365915,-2.166723 -1.098121,-2.166723 l -14.750764,0.09437 16.516274,8.683118 0.420181,0.24838 0.408874,0.28009 0.194074,0.15101 0.193697,0.151 0.184654,0.16197 0.169579,0.16198 0.173348,0.1725 0.16204,0.17251 0.16204,0.18346 0.150739,0.19402 0.139439,0.19402 0.139439,0.20497 0.139438,0.21555 0.120589,0.2159 0.116821,0.22649 0.109288,0.23707 0.105521,0.23742 0.09799,0.24801 0.08667,0.25894 0.07537,0.25895 0.07537,0.28009 0.06407,0.28047 0.05275,0.29142 0.05275,0.29102 0.03392,0.30199 0.03392,0.3235 0.01883,0.3235 0.02262,0.32387 v 0.34503 z"
       style="fill:#000000;fill-opacity:1;fill-rule:evenodd;stroke:none;stroke-width:0.2302904"
       id="path498"
       inkscape:connector-curvature="0" />
  </g>
</svg>
