<?xml version="1.0" encoding="UTF-8" standalone="no"?>
<!-- Created with Inkscape (http://www.inkscape.org/) -->

<svg
   xmlns:dc="http://purl.org/dc/elements/1.1/"
   xmlns:cc="http://creativecommons.org/ns#"
   xmlns:rdf="http://www.w3.org/1999/02/22-rdf-syntax-ns#"
   xmlns:svg="http://www.w3.org/2000/svg"
   xmlns="http://www.w3.org/2000/svg"
   xmlns:sodipodi="http://sodipodi.sourceforge.net/DTD/sodipodi-0.dtd"
   xmlns:inkscape="http://www.inkscape.org/namespaces/inkscape"
   width="210mm"
   height="297mm"
   viewBox="0 0 210 297"
   version="1.1"
   id="svg8"
   inkscape:version="0.92.3 (2405546, 2018-03-11)"
   sodipodi:docname="W1B.svg">
  <defs
     id="defs2" />
  <sodipodi:namedview
     id="base"
     pagecolor="#ffffff"
     bordercolor="#666666"
     borderopacity="1.0"
     inkscape:pageopacity="0.0"
     inkscape:pageshadow="2"
     inkscape:zoom="2.2533628"
     inkscape:cx="226.77194"
     inkscape:cy="718.11049"
     inkscape:document-units="mm"
     inkscape:current-layer="layer1"
     showgrid="false"
     inkscape:window-width="1366"
     inkscape:window-height="704"
     inkscape:window-x="0"
     inkscape:window-y="27"
     inkscape:window-maximized="1" />
  <metadata
     id="metadata5">
    <rdf:RDF>
      <cc:Work
         rdf:about="">
        <dc:format>image/svg+xml</dc:format>
        <dc:type
           rdf:resource="http://purl.org/dc/dcmitype/StillImage" />
        <dc:title></dc:title>
        <cc:license
           rdf:resource="http://creativecommons.org/publicdomain/zero/1.0/" />
      </cc:Work>
      <cc:License
         rdf:about="http://creativecommons.org/publicdomain/zero/1.0/">
        <cc:permits
           rdf:resource="http://creativecommons.org/ns#Reproduction" />
        <cc:permits
           rdf:resource="http://creativecommons.org/ns#Distribution" />
        <cc:permits
           rdf:resource="http://creativecommons.org/ns#DerivativeWorks" />
      </cc:License>
    </rdf:RDF>
  </metadata>
  <g
     inkscape:label="Layer 1"
     inkscape:groupmode="layer"
     id="layer1">
    <rect
       style="fill:#ffff00;fill-opacity:1;stroke:#000000;stroke-width:2.5;stroke-linejoin:round;stroke-miterlimit:4;stroke-dasharray:none"
       id="rect1401"
       width="42.835999"
       height="42.835999"
       x="96.668839"
       y="11.815919"
       rx="3.6999998"
       ry="3.6999998"
       transform="rotate(45)" />
    <path
       d="m 55.024123,120.99043 h -3.24178 v -12.25359 -0.3463 l 0.02155,-0.33567 0.02155,-0.31408 0.03253,-0.32467 0.03215,-0.3031 0.05408,-0.2921 0.05408,-0.29249 0.06506,-0.28112 0.07565,-0.27088 0.07565,-0.27051 0.08623,-0.24892 0.0972,-0.2489 0.108177,-0.23831 0.108176,-0.23792 0.118763,-0.22732 0.118763,-0.21672 0.129726,-0.21633 0.140707,-0.20572 0.151293,-0.19474 0.151293,-0.18412 0.151293,-0.18413 0.161879,-0.18412 0.172849,-0.17315 0.183818,-0.16216 0.183818,-0.16253 0.18344,-0.15154 0.194786,-0.14056 0.410376,-0.2815 0.421723,-0.24891 16.511111,-8.694167 -6.645443,12.179707 c -0.712579,1.30974 -2.441833,1.667 -2.99291,0.13002 l -1.059034,-2.99871 -3.630977,2.04587 c -1.621079,0.90927 -2.647588,2.68463 -2.647588,4.39482 z m -3.24178,0 h -3.782268 v -12.85978 c 0,-3.03091 2.615059,-7.88113 5.316733,-9.157896 l 4.408989,-2.057231 -1.566994,-1.731407 c -0.918334,-1.019143 -0.378226,-2.174678 1.091564,-2.174678 l 14.749708,0.09472 -16.511111,8.694162 -0.421724,0.24892 -0.410376,0.28149 -0.194785,0.14056 -0.18344,0.15154 -0.183818,0.16254 -0.183819,0.16215 -0.172849,0.17315 -0.161879,0.18412 -0.151293,0.18414 -0.151292,0.18412 -0.151293,0.19473 -0.140707,0.20572 -0.129727,0.21634 -0.118762,0.21671 -0.118763,0.22732 -0.108177,0.23792 -0.108176,0.23832 -0.0972,0.2489 -0.08623,0.24891 -0.07565,0.27052 -0.07565,0.27088 -0.06506,0.28111 -0.05408,0.2925 -0.05408,0.2921 -0.03215,0.30309 -0.03253,0.32468 -0.02155,0.31407 -0.02155,0.33568 v 0.34629 z"
       style="fill:#000000;fill-opacity:1;fill-rule:evenodd;stroke:none;stroke-width:0.2302904"
       id="path528"
       inkscape:connector-curvature="0" />
  </g>
</svg>
