<?xml version="1.0" encoding="UTF-8" standalone="no"?>
<!-- Created with Inkscape (http://www.inkscape.org/) -->

<svg
   xmlns:dc="http://purl.org/dc/elements/1.1/"
   xmlns:cc="http://creativecommons.org/ns#"
   xmlns:rdf="http://www.w3.org/1999/02/22-rdf-syntax-ns#"
   xmlns:svg="http://www.w3.org/2000/svg"
   xmlns="http://www.w3.org/2000/svg"
   xmlns:sodipodi="http://sodipodi.sourceforge.net/DTD/sodipodi-0.dtd"
   xmlns:inkscape="http://www.inkscape.org/namespaces/inkscape"
   width="210mm"
   height="297mm"
   viewBox="0 0 210 297"
   version="1.1"
   id="svg1476"
   inkscape:version="0.92.3 (2405546, 2018-03-11)"
   sodipodi:docname="W1C.svg">
  <defs
     id="defs1470" />
  <sodipodi:namedview
     id="base"
     pagecolor="#ffffff"
     bordercolor="#666666"
     borderopacity="1.0"
     inkscape:pageopacity="0.0"
     inkscape:pageshadow="2"
     inkscape:zoom="2.2533628"
     inkscape:cx="257.68859"
     inkscape:cy="716.33537"
     inkscape:document-units="mm"
     inkscape:current-layer="layer1"
     showgrid="false"
     inkscape:window-width="1366"
     inkscape:window-height="704"
     inkscape:window-x="0"
     inkscape:window-y="27"
     inkscape:window-maximized="1" />
  <metadata
     id="metadata1473">
    <rdf:RDF>
      <cc:Work
         rdf:about="">
        <dc:format>image/svg+xml</dc:format>
        <dc:type
           rdf:resource="http://purl.org/dc/dcmitype/StillImage" />
        <dc:title />
        <cc:license
           rdf:resource="http://creativecommons.org/publicdomain/zero/1.0/" />
      </cc:Work>
      <cc:License
         rdf:about="http://creativecommons.org/publicdomain/zero/1.0/">
        <cc:permits
           rdf:resource="http://creativecommons.org/ns#Reproduction" />
        <cc:permits
           rdf:resource="http://creativecommons.org/ns#Distribution" />
        <cc:permits
           rdf:resource="http://creativecommons.org/ns#DerivativeWorks" />
      </cc:License>
    </rdf:RDF>
  </metadata>
  <g
     inkscape:label="Layer 1"
     inkscape:groupmode="layer"
     id="layer1">
    <rect
       style="fill:#ffff00;fill-opacity:1;stroke:#000000;stroke-width:2.5;stroke-linejoin:round;stroke-miterlimit:4;stroke-dasharray:none"
       id="rect4292"
       width="42.836006"
       height="42.836006"
       x="103.7399"
       y="4.7448497"
       rx="3.7000124"
       ry="3.7000124"
       transform="rotate(45)" />
    <path
       d="m 62.564171,102.57989 c -0.100165,4.1848 0.954122,7.92606 4.528482,10.41026 1.184659,0.82477 2.449795,1.38801 3.755344,1.98151 0.883488,0.40237 1.857291,0.84483 2.62059,1.45842 2.026676,1.63934 2.07939,4.70682 1.93882,7.08049 l -0.01054,0.13089 v 0.05 h 6.065624 v -0.0602 c 0.228423,-4.49563 -0.513088,-8.95149 -4.210096,-11.92852 -1.19485,-0.96557 -2.509186,-1.61927 -3.904348,-2.2529 -0.923902,-0.42244 -1.967991,-0.85471 -2.801222,-1.438 -1.807388,-1.25741 -1.988372,-3.28822 -1.927927,-5.34047 l 0.0097,-0.11975 h 0.07029 l 0.130737,0.0599 2.339447,1.28488 c 1.074314,0.5949 2.05831,-0.73221 1.486187,-1.70729 l -6.988396,-11.880705 -6.99831,11.880645 c -0.572476,0.97508 0.41152,2.30219 1.485832,1.70729 l 2.339447,-1.28488 z"
       style="fill:#000000;fill-opacity:1;fill-rule:evenodd;stroke:none;stroke-width:0.23029041"
       id="path558"
       inkscape:connector-curvature="0" />
  </g>
</svg>
