<?xml version="1.0" encoding="UTF-8" standalone="no"?>
<!-- Created with Inkscape (http://www.inkscape.org/) -->

<svg
   xmlns:dc="http://purl.org/dc/elements/1.1/"
   xmlns:cc="http://creativecommons.org/ns#"
   xmlns:rdf="http://www.w3.org/1999/02/22-rdf-syntax-ns#"
   xmlns:svg="http://www.w3.org/2000/svg"
   xmlns="http://www.w3.org/2000/svg"
   xmlns:sodipodi="http://sodipodi.sourceforge.net/DTD/sodipodi-0.dtd"
   xmlns:inkscape="http://www.inkscape.org/namespaces/inkscape"
   width="60.000141mm"
   height="60.000141mm"
   viewBox="0 0 60.000141 60.000141"
   version="1.1"
   id="svg1476"
   inkscape:version="0.92.3 (2405546, 2018-03-11)"
   sodipodi:docname="W1D.svg">
  <defs
     id="defs1470" />
  <sodipodi:namedview
     id="base"
     pagecolor="#ffffff"
     bordercolor="#666666"
     borderopacity="1.0"
     inkscape:pageopacity="0.0"
     inkscape:pageshadow="2"
     inkscape:zoom="2.2533628"
     inkscape:cx="113.38609"
     inkscape:cy="113.38609"
     inkscape:document-units="mm"
     inkscape:current-layer="layer1"
     showgrid="false"
     inkscape:window-width="1366"
     inkscape:window-height="704"
     inkscape:window-x="0"
     inkscape:window-y="27"
     inkscape:window-maximized="1" />
  <metadata
     id="metadata1473">
    <rdf:RDF>
      <cc:Work
         rdf:about="">
        <dc:format>image/svg+xml</dc:format>
        <dc:type
           rdf:resource="http://purl.org/dc/dcmitype/StillImage" />
        <dc:title />
        <cc:license
           rdf:resource="http://creativecommons.org/publicdomain/zero/1.0/" />
      </cc:Work>
      <cc:License
         rdf:about="http://creativecommons.org/publicdomain/zero/1.0/">
        <cc:permits
           rdf:resource="http://creativecommons.org/ns#Reproduction" />
        <cc:permits
           rdf:resource="http://creativecommons.org/ns#Distribution" />
        <cc:permits
           rdf:resource="http://creativecommons.org/ns#DerivativeWorks" />
      </cc:License>
    </rdf:RDF>
  </metadata>
  <g
     inkscape:label="Layer 1"
     inkscape:groupmode="layer"
     id="layer1"
     transform="translate(-40.000001,-76.999862)">
    <g
       id="g2502">
      <rect
         transform="rotate(45)"
         ry="3.7000124"
         rx="3.7000124"
         y="4.7448497"
         x="103.7399"
         height="42.836006"
         width="42.836006"
         id="rect4292"
         style="fill:#ffff00;fill-opacity:1;stroke:#000000;stroke-width:2.5;stroke-linejoin:round;stroke-miterlimit:4;stroke-dasharray:none" />
      <path
         inkscape:connector-curvature="0"
         id="path588"
         style="fill:#000000;fill-opacity:1;fill-rule:evenodd;stroke:none;stroke-width:0.2302904"
         d="m 77.433948,102.56919 c 0.112458,4.19547 -0.941849,7.93683 -4.526852,10.42108 -1.174851,0.81495 -2.450214,1.38805 -3.745607,1.97137 -0.893352,0.41257 -1.857341,0.85507 -2.620661,1.46866 -2.028139,1.62919 -2.078395,4.70697 -1.948011,7.0807 l 0.01023,0.13089 v 0.0499 h -6.064733 v -0.0602 c -0.230894,-4.49576 0.512043,-8.9616 4.207044,-11.92885 1.194883,-0.96561 2.520502,-1.61931 3.906215,-2.25298 0.933766,-0.43228 1.968044,-0.86493 2.811491,-1.44824 1.807085,-1.24723 1.977883,-3.27809 1.917788,-5.34097 v -0.10906 h -0.07029 l -0.140576,0.0493 -2.339511,1.29546 c -1.074693,0.58438 -2.058715,-0.7322 -1.486224,-1.70734 l 6.997102,-11.880868 6.990068,11.880948 c 0.572842,0.97513 -0.411181,2.29171 -1.486576,1.70734 l -2.340566,-1.29546 z" />
    </g>
  </g>
</svg>
