<?xml version="1.0" encoding="UTF-8" standalone="no"?>
<!-- Created with Inkscape (http://www.inkscape.org/) -->

<svg
   xmlns:dc="http://purl.org/dc/elements/1.1/"
   xmlns:cc="http://creativecommons.org/ns#"
   xmlns:rdf="http://www.w3.org/1999/02/22-rdf-syntax-ns#"
   xmlns:svg="http://www.w3.org/2000/svg"
   xmlns="http://www.w3.org/2000/svg"
   xmlns:sodipodi="http://sodipodi.sourceforge.net/DTD/sodipodi-0.dtd"
   xmlns:inkscape="http://www.inkscape.org/namespaces/inkscape"
   width="400mm"
   height="500mm"
   viewBox="0 0 400 500.00001"
   version="1.1"
   id="svg1452"
   inkscape:version="0.92.3 (2405546, 2018-03-11)"
   sodipodi:docname="F4A.svg">
  <defs
     id="defs1446">
    <clipPath
       clipPathUnits="userSpaceOnUse"
       id="clipPath1352">
      <path
         d="M 125.01,215.73 H 241.2 V 328.74 H 125.01 Z"
         id="path1350"
         inkscape:connector-curvature="0"
         style="clip-rule:evenodd" />
    </clipPath>
    <clipPath
       clipPathUnits="userSpaceOnUse"
       id="clipPath1362">
      <path
         d="M 0,0 H 141.74 V 172.96 H 0 Z"
         id="path1360"
         inkscape:connector-curvature="0" />
    </clipPath>
  </defs>
  <sodipodi:namedview
     id="base"
     pagecolor="#ffffff"
     bordercolor="#666666"
     borderopacity="1.0"
     inkscape:pageopacity="0.0"
     inkscape:pageshadow="2"
     inkscape:zoom="0.26775833"
     inkscape:cx="755.90551"
     inkscape:cy="944.88189"
     inkscape:document-units="mm"
     inkscape:current-layer="layer1"
     showgrid="false"
     fit-margin-top="0"
     fit-margin-left="0"
     fit-margin-right="0"
     fit-margin-bottom="0"
     inkscape:window-width="1366"
     inkscape:window-height="713"
     inkscape:window-x="0"
     inkscape:window-y="27"
     inkscape:window-maximized="1" />
  <metadata
     id="metadata1449">
    <rdf:RDF>
      <cc:Work
         rdf:about="">
        <dc:format>image/svg+xml</dc:format>
        <dc:type
           rdf:resource="http://purl.org/dc/dcmitype/StillImage" />
        <dc:title></dc:title>
        <cc:license
           rdf:resource="http://creativecommons.org/publicdomain/zero/1.0/" />
      </cc:Work>
      <cc:License
         rdf:about="http://creativecommons.org/publicdomain/zero/1.0/">
        <cc:permits
           rdf:resource="http://creativecommons.org/ns#Reproduction" />
        <cc:permits
           rdf:resource="http://creativecommons.org/ns#Distribution" />
        <cc:permits
           rdf:resource="http://creativecommons.org/ns#DerivativeWorks" />
      </cc:License>
    </rdf:RDF>
  </metadata>
  <g
     inkscape:label="Layer 1"
     inkscape:groupmode="layer"
     id="layer1"
     transform="translate(-91.047531,356.35691)">
    <g
       transform="matrix(4.3291671,0,0,-4.4641418,-500.17883,1108.0436)"
       id="g1346">
      <g
         id="g1348"
         clip-path="url(#clipPath1352)">
        <g
           id="g1354"
           transform="matrix(1.3021,0,0,1.5694,135.85,215.74)">
          <g
             id="g1356"
             transform="scale(0.508,0.4163)">
            <g
               id="g1358"
               clip-path="url(#clipPath1362)">
              <g
                 id="g1364">
                <g
                   id="g1366">
                  <g
                     id="g1368" />
                </g>
                <path
                   d="M 8.0286,171.88 H 133.86 c 3.8,0 6.91,-3.12 6.91,-6.95 V 7.3623 c 0,-3.8 -3.11,-6.91433 -6.91,-6.91433 H 8.0286 C 4.2,0.44797 1.0857,3.5623 1.0857,7.3623 V 164.93 c 0,3.83 3.1143,6.95 6.9429,6.95 z m 0,-6.15 c -0.4286,0 -0.8,-0.37 -0.8,-0.8 V 7.3623 c 0,-0.4286 0.3714,-0.8 0.8,-0.8 H 133.86 c 0.43,0 0.8,0.3714 0.8,0.8 V 164.93 c 0,0.43 -0.37,0.8 -0.8,0.8 z m 0,3.09 c -2.1429,0 -3.8857,-1.74 -3.8857,-3.89 V 7.3623 c 0,-2.1143 1.7428,-3.8572 3.8857,-3.8572 H 133.86 c 2.11,0 3.85,1.7429 3.85,3.8572 V 164.93 c 0,2.15 -1.74,3.89 -3.85,3.89 z"
                   style="fill:#0000ff;fill-opacity:1;fill-rule:evenodd;stroke:none"
                   id="path1370"
                   inkscape:connector-curvature="0" />
                <path
                   d="M 125.34,108.68 H 17.143 v -5.8 h 7.514 V 96.077 H 33.4 v 6.803 h 75.69 v -6.803 h 8.74 v 6.803 h 7.51 z"
                   style="fill:#fefefe;fill-opacity:1;fill-rule:evenodd;stroke:none"
                   id="path1372"
                   inkscape:connector-curvature="0" />
                <path
                   d="M 40.229,101.28 29.086,22.219 h 36.428 v 79.061 z"
                   style="fill:#fefefe;fill-opacity:1;fill-rule:evenodd;stroke:none"
                   id="path1374"
                   inkscape:connector-curvature="0" />
                <path
                   d="m 65.514,149.96 h -18.4 l -5.6,-39.68 h 24 z"
                   style="fill:#fefefe;fill-opacity:1;fill-rule:evenodd;stroke:none"
                   id="path1376"
                   inkscape:connector-curvature="0" />
                <path
                   d="M 102.26,101.28 113.4,22.219 H 76.971 v 79.061 z"
                   style="fill:#fefefe;fill-opacity:1;fill-rule:evenodd;stroke:none"
                   id="path1378"
                   inkscape:connector-curvature="0" />
                <path
                   d="m 76.971,149.96 h 18.4 l 5.599,-39.68 H 76.971 Z"
                   style="fill:#fefefe;fill-opacity:1;fill-rule:evenodd;stroke:none"
                   id="path1380"
                   inkscape:connector-curvature="0" />
              </g>
            </g>
          </g>
        </g>
      </g>
    </g>
  </g>
</svg>
