<?xml version="1.0" encoding="UTF-8" standalone="no"?>
<!-- Created with Inkscape (http://www.inkscape.org/) -->

<svg
   xmlns:dc="http://purl.org/dc/elements/1.1/"
   xmlns:cc="http://creativecommons.org/ns#"
   xmlns:rdf="http://www.w3.org/1999/02/22-rdf-syntax-ns#"
   xmlns:svg="http://www.w3.org/2000/svg"
   xmlns="http://www.w3.org/2000/svg"
   xmlns:sodipodi="http://sodipodi.sourceforge.net/DTD/sodipodi-0.dtd"
   xmlns:inkscape="http://www.inkscape.org/namespaces/inkscape"
   width="60mm"
   height="60mm"
   viewBox="0 0 60 60"
   version="1.1"
   id="svg8"
   inkscape:version="0.92.3 (2405546, 2018-03-11)"
   sodipodi:docname="P2D6.svg">
  <defs
     id="defs2" />
  <sodipodi:namedview
     id="base"
     pagecolor="#ffffff"
     bordercolor="#666666"
     borderopacity="1.0"
     inkscape:pageopacity="0.0"
     inkscape:pageshadow="2"
     inkscape:zoom="2.2533681"
     inkscape:cx="113.38582"
     inkscape:cy="113.38582"
     inkscape:document-units="mm"
     inkscape:current-layer="layer1"
     showgrid="false"
     inkscape:window-width="1366"
     inkscape:window-height="704"
     inkscape:window-x="0"
     inkscape:window-y="27"
     inkscape:window-maximized="1"
     showguides="true"
     inkscape:guide-bbox="true"
     inkscape:snap-bbox="true"
     inkscape:bbox-paths="true"
     inkscape:object-nodes="false"
     inkscape:bbox-nodes="true"
     objecttolerance="10">
    <sodipodi:guide
       position="6,54"
       orientation="0,1"
       id="guide816"
       inkscape:locked="false"
       inkscape:label="drawableLimitN"
       inkscape:color="rgb(0,0,255)" />
    <sodipodi:guide
       position="6,54"
       orientation="1,0"
       id="guide818"
       inkscape:locked="false"
       inkscape:label="drawableLimitW"
       inkscape:color="rgb(0,0,255)" />
    <sodipodi:guide
       position="54,6"
       orientation="1,0"
       id="guide820"
       inkscape:locked="false"
       inkscape:label="drawableLimitE"
       inkscape:color="rgb(0,0,255)" />
    <sodipodi:guide
       position="54,6"
       orientation="0,1"
       id="guide822"
       inkscape:locked="false"
       inkscape:label="drawableLimitS"
       inkscape:color="rgb(0,0,255)" />
    <sodipodi:guide
       position="32.289628,37.5"
       orientation="0,1"
       id="guide823"
       inkscape:locked="false"
       inkscape:label="numeralBase"
       inkscape:color="rgb(36,135,75)" />
    <sodipodi:guide
       position="26.888454,51.288"
       orientation="0,1"
       id="guide833"
       inkscape:locked="false"
       inkscape:label="unitTop"
       inkscape:color="rgb(36,135,75)" />
  </sodipodi:namedview>
  <metadata
     id="metadata5">
    <rdf:RDF>
      <cc:Work
         rdf:about="">
        <dc:format>image/svg+xml</dc:format>
        <dc:type
           rdf:resource="http://purl.org/dc/dcmitype/StillImage" />
        <dc:title />
        <cc:license
           rdf:resource="http://creativecommons.org/publicdomain/zero/1.0/" />
      </cc:Work>
      <cc:License
         rdf:about="http://creativecommons.org/publicdomain/zero/1.0/">
        <cc:permits
           rdf:resource="http://creativecommons.org/ns#Reproduction" />
        <cc:permits
           rdf:resource="http://creativecommons.org/ns#Distribution" />
        <cc:permits
           rdf:resource="http://creativecommons.org/ns#DerivativeWorks" />
      </cc:License>
    </rdf:RDF>
  </metadata>
  <g
     inkscape:label="Layer 1"
     inkscape:groupmode="layer"
     id="layer1"
     transform="translate(-50,-77)">
    <circle
       style="fill:#ffffff;fill-opacity:1;stroke:#ff0000;stroke-width:6;stroke-miterlimit:4;stroke-dasharray:none"
       id="path834"
       cx="80"
       cy="107"
       r="27" />
    <path
       inkscape:connector-curvature="0"
       id="path828"
       style="font-style:normal;font-variant:normal;font-weight:normal;font-stretch:normal;font-size:14.11111069px;line-height:1.25;font-family:'Roadgeek 2005 Arrows 1';-inkscape-font-specification:'Roadgeek 2005 Arrows 1, ';text-align:center;letter-spacing:0px;word-spacing:0px;text-anchor:middle;fill:#000000;fill-opacity:1;stroke:none;stroke-width:0.26458332"
       d="m 82.027014,107.97599 q 0.390392,0 0.390392,0.36037 0,0.0751 0,0.12011 0,0.03 -0.03001,0.0901 L 80.045052,111.97 80.015022,112 h -0.01502 -0.01502 l -0.03002,-0.03 -2.342348,-3.42343 q -0.03002,-0.0601 -0.03002,-0.0901 0,-0.045 0,-0.12011 0,-0.36037 0.390392,-0.36037 h 0.120119 l 0.975979,0.30031 V 102 h 1.861862 v 6.2763 l 0.975976,-0.30031 z" />
    <path
       d="m 67.753063,109.87082 v 0 c 0.82973,0 1.522295,0.6847 1.522295,1.51554 v 3.7252 c 2.279142,0 2.45219,0 7.675755,0 0.619683,-0.76693 1.750284,-1.29654 3.053933,-1.29654 1.285336,0 2.415564,0.52961 3.035244,1.29654 h 7.676504 v -3.7252 c 0,-0.83084 0.691443,-1.51554 1.532387,-1.51554 v 0 c 0.829731,0 1.521172,0.6847 1.521172,1.51554 v 3.7252 C 94.44311,115.15728 95,115.74134 95,116.4354 v 0 c 0,0.70303 -0.55689,1.26888 -1.229647,1.32383 v 3.72519 c 0,0.83085 -0.691441,1.51558 -1.521172,1.51558 v 0 c -0.840944,0 -1.532387,-0.68473 -1.532387,-1.51558 v -3.72519 H 83.04029 c -0.61968,0.76694 -1.749908,1.29654 -3.035244,1.29654 -1.303649,0 -2.43425,-0.5296 -3.053933,-1.29654 -5.223565,0 -5.396613,0 -7.675755,0 v 3.72519 c 0,0.83085 -0.692565,1.51558 -1.522295,1.51558 v 0 c -0.838702,0 -1.531638,-0.68473 -1.531638,-1.51558 v -3.72519 C 65.547175,117.70427 65,117.13843 65,116.4354 v 0 c 0,-0.69406 0.547175,-1.27824 1.221425,-1.32384 v -3.7252 c 0,-0.83084 0.692936,-1.51554 1.531638,-1.51554 z"
       style="fill:#040404;fill-opacity:1;fill-rule:evenodd;stroke:none;stroke-width:0.22843572"
       id="path1170"
       inkscape:connector-curvature="0" />
    <g
       id="g832"
       transform="translate(-1.9550953)">
      <text
         id="text831"
         y="99.28833"
         x="77.758034"
         style="font-style:normal;font-variant:normal;font-weight:normal;font-stretch:normal;font-size:10.58333302px;line-height:1.25;font-family:'Roadgeek 2005 Series 1B';-inkscape-font-specification:'Roadgeek 2005 Series 1B';text-align:center;letter-spacing:0px;word-spacing:0px;text-anchor:middle;fill:#000000;fill-opacity:1;stroke:none;stroke-width:0.26458332"
         xml:space="preserve"><tspan
           style="font-size:17.63888931px;text-align:center;text-anchor:middle;stroke-width:0.26458332"
           y="99.28833"
           x="77.758034"
           id="tspan829"
           sodipodi:role="line">8</tspan></text>
      <text
         id="text839"
         y="91.384666"
         x="87.766617"
         style="font-style:normal;font-variant:normal;font-weight:normal;font-stretch:normal;font-size:10.58333302px;line-height:1.25;font-family:'Roadgeek 2005 Series 1B';-inkscape-font-specification:'Roadgeek 2005 Series 1B';text-align:center;letter-spacing:0px;word-spacing:0px;text-anchor:middle;fill:#000000;fill-opacity:1;stroke:none;stroke-width:0.26458332"
         xml:space="preserve"><tspan
           style="font-size:8.46666622px;stroke-width:0.26458332"
           y="91.384666"
           x="87.766617"
           id="tspan837"
           sodipodi:role="line">T</tspan></text>
    </g>
  </g>
</svg>
