<?xml version="1.0" encoding="UTF-8" standalone="no"?>
<!-- Created with Inkscape (http://www.inkscape.org/) -->

<svg
   xmlns:dc="http://purl.org/dc/elements/1.1/"
   xmlns:cc="http://creativecommons.org/ns#"
   xmlns:rdf="http://www.w3.org/1999/02/22-rdf-syntax-ns#"
   xmlns:svg="http://www.w3.org/2000/svg"
   xmlns="http://www.w3.org/2000/svg"
   xmlns:sodipodi="http://sodipodi.sourceforge.net/DTD/sodipodi-0.dtd"
   xmlns:inkscape="http://www.inkscape.org/namespaces/inkscape"
   width="60mm"
   height="60mm"
   viewBox="0 0 60 60"
   version="1.1"
   id="svg8"
   inkscape:version="0.92.3 (2405546, 2018-03-11)"
   sodipodi:docname="P2D8.svg">
  <defs
     id="defs2" />
  <sodipodi:namedview
     id="base"
     pagecolor="#ffffff"
     bordercolor="#666666"
     borderopacity="1.0"
     inkscape:pageopacity="0.0"
     inkscape:pageshadow="2"
     inkscape:zoom="2.2533681"
     inkscape:cx="113.38582"
     inkscape:cy="113.38582"
     inkscape:document-units="mm"
     inkscape:current-layer="layer1"
     showgrid="false"
     inkscape:window-width="1366"
     inkscape:window-height="704"
     inkscape:window-x="0"
     inkscape:window-y="27"
     inkscape:window-maximized="1"
     showguides="true"
     inkscape:guide-bbox="true"
     inkscape:snap-bbox="true"
     inkscape:bbox-paths="true"
     inkscape:object-nodes="false"
     inkscape:bbox-nodes="true"
     objecttolerance="10">
    <sodipodi:guide
       position="6,54"
       orientation="0,1"
       id="guide816"
       inkscape:locked="false"
       inkscape:label="drawableLimitN"
       inkscape:color="rgb(0,0,255)" />
    <sodipodi:guide
       position="6,54"
       orientation="1,0"
       id="guide818"
       inkscape:locked="false"
       inkscape:label="drawableLimitW"
       inkscape:color="rgb(0,0,255)" />
    <sodipodi:guide
       position="54,6"
       orientation="1,0"
       id="guide820"
       inkscape:locked="false"
       inkscape:label="drawableLimitE"
       inkscape:color="rgb(0,0,255)" />
    <sodipodi:guide
       position="54,6"
       orientation="0,1"
       id="guide822"
       inkscape:locked="false"
       inkscape:label="drawableLimitS"
       inkscape:color="rgb(0,0,255)" />
    <sodipodi:guide
       position="32.289628,37.5"
       orientation="0,1"
       id="guide823"
       inkscape:locked="false"
       inkscape:label="numeralBase"
       inkscape:color="rgb(36,135,75)" />
    <sodipodi:guide
       position="26.888454,51.288"
       orientation="0,1"
       id="guide833"
       inkscape:locked="false"
       inkscape:label="unitTop"
       inkscape:color="rgb(36,135,75)" />
    <sodipodi:guide
       position="39.804305,14"
       orientation="0,1"
       id="guide826"
       inkscape:locked="false"
       inkscape:label="axisBase"
       inkscape:color="rgb(36,135,75)" />
  </sodipodi:namedview>
  <metadata
     id="metadata5">
    <rdf:RDF>
      <cc:Work
         rdf:about="">
        <dc:format>image/svg+xml</dc:format>
        <dc:type
           rdf:resource="http://purl.org/dc/dcmitype/StillImage" />
        <dc:title></dc:title>
        <cc:license
           rdf:resource="http://creativecommons.org/publicdomain/zero/1.0/" />
      </cc:Work>
      <cc:License
         rdf:about="http://creativecommons.org/publicdomain/zero/1.0/">
        <cc:permits
           rdf:resource="http://creativecommons.org/ns#Reproduction" />
        <cc:permits
           rdf:resource="http://creativecommons.org/ns#Distribution" />
        <cc:permits
           rdf:resource="http://creativecommons.org/ns#DerivativeWorks" />
      </cc:License>
    </rdf:RDF>
  </metadata>
  <g
     inkscape:label="Layer 1"
     inkscape:groupmode="layer"
     id="layer1"
     transform="translate(-50,-77)">
    <circle
       style="fill:#ffffff;fill-opacity:1;stroke:#ff0000;stroke-width:6;stroke-miterlimit:4;stroke-dasharray:none"
       id="path834"
       cx="80"
       cy="107"
       r="27" />
    <path
       inkscape:connector-curvature="0"
       id="path828"
       style="font-style:normal;font-variant:normal;font-weight:normal;font-stretch:normal;font-size:14.11111069px;line-height:1.25;font-family:'Roadgeek 2005 Arrows 1';-inkscape-font-specification:'Roadgeek 2005 Arrows 1, ';text-align:center;letter-spacing:0px;word-spacing:0px;text-anchor:middle;fill:#000000;fill-opacity:1;stroke:none;stroke-width:0.26458332"
       d="m 82.027014,107.97599 q 0.390392,0 0.390392,0.36037 0,0.0751 0,0.12011 0,0.03 -0.03001,0.0901 L 80.045052,111.97 80.015022,112 h -0.01502 -0.01502 l -0.03002,-0.03 -2.342348,-3.42343 q -0.03002,-0.0601 -0.03002,-0.0901 0,-0.045 0,-0.12011 0,-0.36037 0.390392,-0.36037 h 0.120119 l 0.975979,0.30031 V 102 h 1.861862 v 6.2763 l 0.975976,-0.30031 z" />
    <g
       id="g832"
       transform="translate(-1.9550953)">
      <text
         id="text831"
         y="99.28833"
         x="77.758034"
         style="font-style:normal;font-variant:normal;font-weight:normal;font-stretch:normal;font-size:10.58333302px;line-height:1.25;font-family:'Roadgeek 2005 Series 1B';-inkscape-font-specification:'Roadgeek 2005 Series 1B';text-align:center;letter-spacing:0px;word-spacing:0px;text-anchor:middle;fill:#000000;fill-opacity:1;stroke:none;stroke-width:0.26458332"
         xml:space="preserve"><tspan
           style="font-size:17.63888931px;text-align:center;text-anchor:middle;stroke-width:0.26458332"
           y="99.28833"
           x="77.758034"
           id="tspan829"
           sodipodi:role="line">8</tspan></text>
      <text
         id="text839"
         y="91.384666"
         x="87.766617"
         style="font-style:normal;font-variant:normal;font-weight:normal;font-stretch:normal;font-size:10.58333302px;line-height:1.25;font-family:'Roadgeek 2005 Series 1B';-inkscape-font-specification:'Roadgeek 2005 Series 1B';text-align:center;letter-spacing:0px;word-spacing:0px;text-anchor:middle;fill:#000000;fill-opacity:1;stroke:none;stroke-width:0.26458332"
         xml:space="preserve"><tspan
           style="font-size:8.46666622px;stroke-width:0.26458332"
           y="91.384666"
           x="87.766617"
           id="tspan837"
           sodipodi:role="line">T</tspan></text>
    </g>
    <path
       d="m 65,120.22012 h 1.82226 c 0.222857,-1.46292 1.499165,-2.59485 3.059797,-2.59485 1.522175,0 2.798483,1.13193 3.036785,2.59485 h 5.489478 c 0,0.15413 0,0.45453 0,0.60836 0.01544,0.16171 0.03846,0.17715 0.284324,0.17715 h 2.990764 c 0.230738,0 0.215293,0.0464 0.215293,-0.3234 v -0.46211 h 3.304403 c 0.239564,-1.46292 1.509882,-2.59485 3.060742,-2.59485 1.538251,0 2.805417,1.13193 3.038678,2.59485 H 95 v -0.87787 h -1.207275 v -0.9778 h -1.014993 v -0.87031 H 95 v -0.92391 H 67.076009 l -1.137928,0.93935 v 1.76363 h -0.07691 l -0.399692,0.23073 v 0.36976 l -0.461474,0.11535 z m 4.874491,-1.79421 c 1.260862,0 2.275541,1.02413 2.275541,2.27932 0,1.27064 -1.014679,2.29477 -2.275541,2.29477 -1.283872,0 -2.298865,-1.02413 -2.298865,-2.29477 0,-1.25519 1.014993,-2.27932 2.298865,-2.27932 z m 0,1.44779 c 0.461161,0 0.830278,0.36974 0.830278,0.83153 0,0.47755 -0.369117,0.85487 -0.830278,0.85487 -0.476605,0 -0.845723,-0.37732 -0.845723,-0.85487 0,-0.46179 0.369118,-0.83153 0.845723,-0.83153 z m 18.389355,-1.44779 c 1.254557,0 2.285312,1.02413 2.285312,2.27932 0,1.27064 -1.030755,2.29477 -2.285312,2.29477 -1.276623,0 -2.297921,-1.02413 -2.297921,-2.29477 0,-1.25519 1.021298,-2.27932 2.297921,-2.27932 z m -0.0063,1.44779 c 0.460214,0 0.844776,0.36974 0.844776,0.83153 0,0.47755 -0.384562,0.85487 -0.844776,0.85487 -0.469672,0 -0.847931,-0.37732 -0.847931,-0.85487 0,-0.46179 0.378259,-0.83153 0.847931,-0.83153 z"
       style="fill:#040404;fill-opacity:1;fill-rule:evenodd;stroke:none;stroke-width:0.22843575"
       id="path1250"
       inkscape:connector-curvature="0" />
  </g>
</svg>
