<?xml version="1.0" encoding="UTF-8" standalone="no"?>
<!-- Created with Inkscape (http://www.inkscape.org/) -->

<svg
   xmlns:dc="http://purl.org/dc/elements/1.1/"
   xmlns:cc="http://creativecommons.org/ns#"
   xmlns:rdf="http://www.w3.org/1999/02/22-rdf-syntax-ns#"
   xmlns:svg="http://www.w3.org/2000/svg"
   xmlns="http://www.w3.org/2000/svg"
   xmlns:sodipodi="http://sodipodi.sourceforge.net/DTD/sodipodi-0.dtd"
   xmlns:inkscape="http://www.inkscape.org/namespaces/inkscape"
   width="60mm"
   height="60mm"
   viewBox="0 0 60 60"
   version="1.1"
   id="svg8"
   inkscape:version="0.92.3 (2405546, 2018-03-11)"
   sodipodi:docname="P2D9.svg">
  <defs
     id="defs2" />
  <sodipodi:namedview
     id="base"
     pagecolor="#ffffff"
     bordercolor="#666666"
     borderopacity="1.0"
     inkscape:pageopacity="0.0"
     inkscape:pageshadow="2"
     inkscape:zoom="2.2533681"
     inkscape:cx="113.38582"
     inkscape:cy="113.38582"
     inkscape:document-units="mm"
     inkscape:current-layer="layer1"
     showgrid="false"
     inkscape:window-width="1366"
     inkscape:window-height="704"
     inkscape:window-x="0"
     inkscape:window-y="27"
     inkscape:window-maximized="1"
     showguides="true"
     inkscape:guide-bbox="true"
     inkscape:snap-bbox="true"
     inkscape:bbox-paths="true"
     inkscape:object-nodes="false"
     inkscape:bbox-nodes="true"
     objecttolerance="10">
    <sodipodi:guide
       position="6,54"
       orientation="0,1"
       id="guide816"
       inkscape:locked="false"
       inkscape:label="drawableLimitN"
       inkscape:color="rgb(0,0,255)" />
    <sodipodi:guide
       position="6,54"
       orientation="1,0"
       id="guide818"
       inkscape:locked="false"
       inkscape:label="drawableLimitW"
       inkscape:color="rgb(0,0,255)" />
    <sodipodi:guide
       position="54,6"
       orientation="1,0"
       id="guide820"
       inkscape:locked="false"
       inkscape:label="drawableLimitE"
       inkscape:color="rgb(0,0,255)" />
    <sodipodi:guide
       position="54,6"
       orientation="0,1"
       id="guide822"
       inkscape:locked="false"
       inkscape:label="drawableLimitS"
       inkscape:color="rgb(0,0,255)" />
    <sodipodi:guide
       position="32.289628,37.5"
       orientation="0,1"
       id="guide823"
       inkscape:locked="false"
       inkscape:label="numeralBase"
       inkscape:color="rgb(36,135,75)" />
    <sodipodi:guide
       position="26.888454,51.288"
       orientation="0,1"
       id="guide833"
       inkscape:locked="false"
       inkscape:label="unitTop"
       inkscape:color="rgb(36,135,75)" />
    <sodipodi:guide
       position="39.804305,14"
       orientation="0,1"
       id="guide826"
       inkscape:locked="false"
       inkscape:label="axisBase"
       inkscape:color="rgb(36,135,75)" />
  </sodipodi:namedview>
  <metadata
     id="metadata5">
    <rdf:RDF>
      <cc:Work
         rdf:about="">
        <dc:format>image/svg+xml</dc:format>
        <dc:type
           rdf:resource="http://purl.org/dc/dcmitype/StillImage" />
        <dc:title></dc:title>
        <cc:license
           rdf:resource="http://creativecommons.org/publicdomain/zero/1.0/" />
      </cc:Work>
      <cc:License
         rdf:about="http://creativecommons.org/publicdomain/zero/1.0/">
        <cc:permits
           rdf:resource="http://creativecommons.org/ns#Reproduction" />
        <cc:permits
           rdf:resource="http://creativecommons.org/ns#Distribution" />
        <cc:permits
           rdf:resource="http://creativecommons.org/ns#DerivativeWorks" />
      </cc:License>
    </rdf:RDF>
  </metadata>
  <g
     inkscape:label="Layer 1"
     inkscape:groupmode="layer"
     id="layer1"
     transform="translate(-50,-77)">
    <circle
       style="fill:#ffffff;fill-opacity:1;stroke:#ff0000;stroke-width:6;stroke-miterlimit:4;stroke-dasharray:none"
       id="path834"
       cx="80"
       cy="107"
       r="27" />
    <path
       inkscape:connector-curvature="0"
       id="path828"
       style="font-style:normal;font-variant:normal;font-weight:normal;font-stretch:normal;font-size:14.11111069px;line-height:1.25;font-family:'Roadgeek 2005 Arrows 1';-inkscape-font-specification:'Roadgeek 2005 Arrows 1, ';text-align:center;letter-spacing:0px;word-spacing:0px;text-anchor:middle;fill:#000000;fill-opacity:1;stroke:none;stroke-width:0.26458332"
       d="m 82.027014,107.97599 q 0.390392,0 0.390392,0.36037 0,0.0751 0,0.12011 0,0.03 -0.03001,0.0901 L 80.045052,111.97 80.015022,112 h -0.01502 -0.01502 l -0.03002,-0.03 -2.342348,-3.42343 q -0.03002,-0.0601 -0.03002,-0.0901 0,-0.045 0,-0.12011 0,-0.36037 0.390392,-0.36037 h 0.120119 l 0.975979,0.30031 V 102 h 1.861862 v 6.2763 l 0.975976,-0.30031 z" />
    <g
       id="g832"
       transform="translate(-1.9550953)">
      <text
         id="text831"
         y="99.28833"
         x="77.758034"
         style="font-style:normal;font-variant:normal;font-weight:normal;font-stretch:normal;font-size:10.58333302px;line-height:1.25;font-family:'Roadgeek 2005 Series 1B';-inkscape-font-specification:'Roadgeek 2005 Series 1B';text-align:center;letter-spacing:0px;word-spacing:0px;text-anchor:middle;fill:#000000;fill-opacity:1;stroke:none;stroke-width:0.26458332"
         xml:space="preserve"><tspan
           style="font-size:17.63888931px;text-align:center;text-anchor:middle;stroke-width:0.26458332"
           y="99.28833"
           x="77.758034"
           id="tspan829"
           sodipodi:role="line">8</tspan></text>
      <text
         id="text839"
         y="91.384666"
         x="87.766617"
         style="font-style:normal;font-variant:normal;font-weight:normal;font-stretch:normal;font-size:10.58333302px;line-height:1.25;font-family:'Roadgeek 2005 Series 1B';-inkscape-font-specification:'Roadgeek 2005 Series 1B';text-align:center;letter-spacing:0px;word-spacing:0px;text-anchor:middle;fill:#000000;fill-opacity:1;stroke:none;stroke-width:0.26458332"
         xml:space="preserve"><tspan
           style="font-size:8.46666622px;stroke-width:0.26458332"
           y="91.384666"
           x="87.766617"
           id="tspan837"
           sodipodi:role="line">T</tspan></text>
    </g>
    <g
       id="g843"
       transform="translate(-10.064457,1.5036539)">
      <path
         inkscape:connector-curvature="0"
         id="path1734"
         style="fill:#040404;fill-opacity:1;fill-rule:evenodd;stroke:none;stroke-width:0.22843575"
         d="m 98.331282,116.89169 c 1.261485,0 2.276978,1.02598 2.276978,2.29133 0,1.26505 -1.015493,2.29104 -2.276978,2.29104 -1.274099,0 -2.299056,-1.02599 -2.299056,-2.29104 0,-1.26535 1.024957,-2.29133 2.299056,-2.29133 z m 0,1.4504 c 0.463596,0 0.832581,0.378 0.832581,0.84093 0,0.47052 -0.368985,0.84852 -0.832581,0.84852 -0.47621,0 -0.845195,-0.378 -0.845195,-0.84852 0,-0.46293 0.368985,-0.84093 0.845195,-0.84093 z" />
      <path
         inkscape:connector-curvature="0"
         id="path1736"
         style="fill:#040404;fill-opacity:1;fill-rule:evenodd;stroke:none;stroke-width:0.22843575"
         d="m 79.933474,116.89169 c 1.253915,0 2.284548,1.02598 2.284548,2.29133 0,1.26505 -1.030633,2.29104 -2.284548,2.29104 -1.276938,0 -2.300002,-1.02599 -2.300002,-2.29104 0,-1.26535 1.023064,-2.29133 2.300002,-2.29133 z m -0.0076,1.4504 c 0.469273,0 0.846141,0.378 0.846141,0.84093 0,0.47052 -0.376868,0.84852 -0.846141,0.84852 -0.469272,0 -0.846141,-0.378 -0.846141,-0.84852 0,-0.46293 0.376869,-0.84093 0.846141,-0.84093 z" />
      <path
         inkscape:connector-curvature="0"
         id="path1738"
         style="fill:#040404;fill-opacity:1;fill-rule:evenodd;stroke:none;stroke-width:0.22843575"
         d="m 75.064458,118.68914 h 1.807708 c 0.23842,-1.45799 1.507474,-2.59198 3.061308,-2.59198 1.53838,0 2.807749,1.13399 3.038286,2.59198 h 1.161512 v 0.78693 h 3.484536 v -0.78693 h 0.800097 c 0.222967,-1.45799 1.49202,-2.59198 3.061308,-2.59198 1.522927,0 2.79955,1.13399 3.029771,2.59198 h 0.769505 c 0.223913,-1.45799 1.501167,-2.59198 3.062254,-2.59198 1.523244,0 2.800497,1.13399 3.030717,2.59198 h 3.693 v -0.87915 h -1.20787 v -0.97989 h -1.00919 v -0.87156 h 2.21706 v -0.93347 H 77.133608 l -1.130605,0.94862 v 1.7744 h -0.08484 l -0.399891,0.22389 v 0.36253 l -0.453818,0.13105 z" />
      <path
         inkscape:connector-curvature="0"
         id="path1758"
         style="fill:#040404;fill-opacity:1;fill-rule:evenodd;stroke:#fefefe;stroke-width:0.04457239;stroke-linecap:butt;stroke-linejoin:miter;stroke-miterlimit:10;stroke-dasharray:none;stroke-opacity:1"
         d="m 91.479213,116.89169 c 1.253915,0 2.276664,1.02598 2.276664,2.29133 0,1.26505 -1.022749,2.29104 -2.276664,2.29104 -1.284507,0 -2.307571,-1.02599 -2.307571,-2.29104 0,-1.26535 1.023064,-2.29133 2.307571,-2.29133 z m -0.0076,1.4504 c 0.461388,0 0.830687,0.378 0.830687,0.84093 0,0.47052 -0.369299,0.84852 -0.830687,0.84852 -0.477157,0 -0.84614,-0.378 -0.84614,-0.84852 0,-0.46293 0.368983,-0.84093 0.84614,-0.84093 z" />
    </g>
  </g>
</svg>
