<?xml version="1.0" encoding="UTF-8" standalone="no"?>
<!-- Created with Inkscape (http://www.inkscape.org/) -->

<svg
   xmlns:dc="http://purl.org/dc/elements/1.1/"
   xmlns:cc="http://creativecommons.org/ns#"
   xmlns:rdf="http://www.w3.org/1999/02/22-rdf-syntax-ns#"
   xmlns:svg="http://www.w3.org/2000/svg"
   xmlns="http://www.w3.org/2000/svg"
   xmlns:sodipodi="http://sodipodi.sourceforge.net/DTD/sodipodi-0.dtd"
   xmlns:inkscape="http://www.inkscape.org/namespaces/inkscape"
   width="210mm"
   height="297mm"
   viewBox="0 0 210 297"
   version="1.1"
   id="svg8"
   inkscape:version="0.92.3 (2405546, 2018-03-11)"
   sodipodi:docname="P4G.svg">
  <defs
     id="defs2" />
  <sodipodi:namedview
     id="base"
     pagecolor="#ffffff"
     bordercolor="#666666"
     borderopacity="1.0"
     inkscape:pageopacity="0.0"
     inkscape:pageshadow="2"
     inkscape:zoom="2.2533681"
     inkscape:cx="257.68833"
     inkscape:cy="338.38235"
     inkscape:document-units="mm"
     inkscape:current-layer="g833"
     showgrid="false"
     inkscape:window-width="1366"
     inkscape:window-height="704"
     inkscape:window-x="0"
     inkscape:window-y="27"
     inkscape:window-maximized="1" />
  <metadata
     id="metadata5">
    <rdf:RDF>
      <cc:Work
         rdf:about="">
        <dc:format>image/svg+xml</dc:format>
        <dc:type
           rdf:resource="http://purl.org/dc/dcmitype/StillImage" />
        <dc:title />
        <cc:license
           rdf:resource="http://creativecommons.org/publicdomain/zero/1.0/" />
      </cc:Work>
      <cc:License
         rdf:about="http://creativecommons.org/publicdomain/zero/1.0/">
        <cc:permits
           rdf:resource="http://creativecommons.org/ns#Reproduction" />
        <cc:permits
           rdf:resource="http://creativecommons.org/ns#Distribution" />
        <cc:permits
           rdf:resource="http://creativecommons.org/ns#DerivativeWorks" />
      </cc:License>
    </rdf:RDF>
  </metadata>
  <g
     inkscape:label="Layer 1"
     inkscape:groupmode="layer"
     id="layer1">
    <g
       id="g833">
      <g
         id="g825">
        <circle
           style="fill:#ff0000;fill-opacity:1;stroke:none;stroke-width:0.26499999;stroke-linejoin:round;stroke-miterlimit:4;stroke-dasharray:none"
           id="path818"
           cx="70"
           cy="207"
           r="30" />
        <circle
           style="fill:#ffffff;fill-opacity:1;stroke:none;stroke-width:0.26499999;stroke-linejoin:round;stroke-miterlimit:4;stroke-dasharray:none"
           id="path824"
           cx="70"
           cy="207"
           r="24" />
      </g>
      <g
         id="g821">
        <path
           style="fill:#000000;fill-opacity:1;stroke:none;stroke-width:1.00157475;stroke-linejoin:round;stroke-miterlimit:4;stroke-dasharray:none"
           d="m 352.29297,759.5332 c -11.76991,0.22788 -22.77148,0.86972 -34.17774,1.82422 l -0.19921,0.0137 v 2.36133 c -5.22203,3.1561 -9.20653,7.11302 -13.10938,11.77344 -0.41097,0.41276 -0.56836,1.11996 -0.56836,1.77344 0,0.32655 0.0421,0.63911 0.13867,0.90039 0.0965,0.26116 0.25478,0.49326 0.51758,0.56836 l 0.0293,0.008 h 1.01172 v 7.13086 h -2.65039 v 7.78711 h 1.13672 v 1.88281 0.19922 l 0.19921,0.008 c 2.11602,0.0964 3.30918,0.32994 3.94141,0.87695 0.31612,0.27326 0.51785,0.62951 0.64258,1.13672 0.12472,0.50722 0.16992,1.15801 0.16992,1.98633 v 0.21485 h 4.8418 l -0.0723,-0.26563 c -0.28127,-1.04886 -0.47265,-2.12627 -0.47265,-3.29297 0,-6.1511 5.16172,-11.16797 11.61914,-11.16797 6.44428,0 11.66992,5.0183 11.66992,11.16797 0,1.16822 -0.17643,2.24205 -0.49414,3.28516 l -0.082,0.27344 h 17.14257 a 90.708661,90.708661 0 0 0 1.74805,-17.61719 90.708661,90.708661 0 0 0 -1.10547,-13.64063 l -0.53515,-3.20703 a 90.708661,90.708661 0 0 0 -1.3418,-5.98047 z m -1.74805,3.88868 h 0.1836 l 1.72656,12.20117 -0.006,0.0469 c -0.0147,0.17537 -0.0176,0.35036 -0.0312,0.52539 l -38.20703,-3.71484 0.64062,-0.32617 c 5.30049,-2.70724 10.55641,-4.70809 16.69922,-6.22266 h 0.008 c 5.92663,-1.31992 12.38043,-2.50976 18.98633,-2.50976 z m -25.2539,24.10937 c -5.10053,0 -9.25782,3.97831 -9.25782,8.88867 0,4.94121 4.15729,8.92383 9.25782,8.92383 5.15113,0 9.33007,-3.98228 9.33007,-8.92383 0,-4.91074 -4.17894,-8.88867 -9.33007,-8.88867 z"
           transform="scale(0.26458333)"
           id="path821"
           inkscape:connector-curvature="0" />
        <path
           style="fill:#000000;fill-opacity:1;stroke:none;stroke-width:1.00157475;stroke-linejoin:round;stroke-miterlimit:4;stroke-dasharray:none"
           d="m 181.0332,759.36914 -0.0156,0.002 c -1.38671,0 -2.73632,0.0144 -4.08789,0.0234 a 90.708661,90.708661 0 0 0 -1.13281,4.43164 c 2.57291,0.0562 5.19368,0.14083 7.43554,0.38281 8.92193,1.62909 12.829,3.6198 20.06446,9.90625 l 0.008,0.008 c 0.62647,0.49001 0.9375,1.20761 0.9375,1.77148 0,0.28195 -0.0765,0.5208 -0.20703,0.67969 -0.12911,0.15723 -0.30872,0.25554 -0.58985,0.25781 l -28.12304,-1.23242 -0.71289,-4.26367 a 90.708661,90.708661 0 0 0 -0.75196,11.02539 90.708661,90.708661 0 0 0 1.81446,17.61719 h 37.13281 l -0.0801,-0.27344 c -0.3097,-1.00902 -0.49609,-2.11004 -0.49609,-3.27735 0,-6.14963 5.22364,-11.16796 11.67187,-11.16796 6.44822,0 11.67773,5.01833 11.67773,11.16796 0,1.16731 -0.18364,2.26629 -0.52343,3.30665 l -0.0957,0.28124 h 14.88868 v -2.9082 l -1.32813,-0.1914 v -3.75 h 1.32813 v -4.98438 l -0.85743,-1.77148 -0.006,-0.0156 c -3.93167,-5.14435 -9.14129,-7.34836 -14.70508,-8.52734 -5.55155,-1.17638 -11.46987,-1.34801 -16.89063,-2.41407 -11.88319,-10.01291 -21.80385,-14.09663 -36.33984,-16.08398 z m 42.86719,28.17383 c -5.15366,0 -9.32422,3.97801 -9.32422,8.88867 0,4.94143 4.17056,8.92383 9.32422,8.92383 5.1233,0 9.29297,-3.9824 9.29297,-8.92383 0,-4.91066 -4.16967,-8.88867 -9.29297,-8.88867 z"
           transform="scale(0.26458333)"
           id="path820"
           inkscape:connector-curvature="0" />
      </g>
    </g>
  </g>
</svg>
