<?xml version="1.0" encoding="UTF-8" standalone="no"?>
<!-- Created with Inkscape (http://www.inkscape.org/) -->

<svg
   xmlns:dc="http://purl.org/dc/elements/1.1/"
   xmlns:cc="http://creativecommons.org/ns#"
   xmlns:rdf="http://www.w3.org/1999/02/22-rdf-syntax-ns#"
   xmlns:svg="http://www.w3.org/2000/svg"
   xmlns="http://www.w3.org/2000/svg"
   xmlns:sodipodi="http://sodipodi.sourceforge.net/DTD/sodipodi-0.dtd"
   xmlns:inkscape="http://www.inkscape.org/namespaces/inkscape"
   width="210mm"
   height="297mm"
   viewBox="0 0 210 297"
   version="1.1"
   id="svg8"
   inkscape:version="0.92.3 (2405546, 2018-03-11)"
   sodipodi:docname="P4G.svg">
  <defs
     id="defs2" />
  <sodipodi:namedview
     id="base"
     pagecolor="#ffffff"
     bordercolor="#666666"
     borderopacity="1.0"
     inkscape:pageopacity="0.0"
     inkscape:pageshadow="2"
     inkscape:zoom="2.2533681"
     inkscape:cx="264.56693"
     inkscape:cy="340.15748"
     inkscape:document-units="mm"
     inkscape:current-layer="layer1"
     showgrid="false"
     inkscape:window-width="1366"
     inkscape:window-height="704"
     inkscape:window-x="0"
     inkscape:window-y="27"
     inkscape:window-maximized="1" />
  <metadata
     id="metadata5">
    <rdf:RDF>
      <cc:Work
         rdf:about="">
        <dc:format>image/svg+xml</dc:format>
        <dc:type
           rdf:resource="http://purl.org/dc/dcmitype/StillImage" />
        <dc:title />
        <cc:license
           rdf:resource="http://creativecommons.org/publicdomain/zero/1.0/" />
      </cc:Work>
      <cc:License
         rdf:about="http://creativecommons.org/publicdomain/zero/1.0/">
        <cc:permits
           rdf:resource="http://creativecommons.org/ns#Reproduction" />
        <cc:permits
           rdf:resource="http://creativecommons.org/ns#Distribution" />
        <cc:permits
           rdf:resource="http://creativecommons.org/ns#DerivativeWorks" />
      </cc:License>
    </rdf:RDF>
  </metadata>
  <g
     inkscape:label="Layer 1"
     inkscape:groupmode="layer"
     id="layer1">
    <circle
       style="fill:#ff0000;fill-opacity:1;stroke:none;stroke-width:0.26499999;stroke-linejoin:round;stroke-miterlimit:4;stroke-dasharray:none"
       id="path818"
       cx="70"
       cy="207"
       r="30" />
    <circle
       style="fill:#ffffff;fill-opacity:1;stroke:none;stroke-width:0.26499999;stroke-linejoin:round;stroke-miterlimit:4;stroke-dasharray:none"
       id="path820"
       cx="70"
       cy="207"
       r="24" />
    <path
       style="color:#000000;font-style:normal;font-variant:normal;font-weight:normal;font-stretch:normal;font-size:medium;line-height:normal;font-family:sans-serif;font-variant-ligatures:normal;font-variant-position:normal;font-variant-caps:normal;font-variant-numeric:normal;font-variant-alternates:normal;font-feature-settings:normal;text-indent:0;text-align:start;text-decoration:none;text-decoration-line:none;text-decoration-style:solid;text-decoration-color:#000000;letter-spacing:normal;word-spacing:normal;text-transform:none;writing-mode:lr-tb;direction:ltr;text-orientation:mixed;dominant-baseline:auto;baseline-shift:baseline;text-anchor:start;white-space:normal;shape-padding:0;clip-rule:nonzero;display:inline;overflow:visible;visibility:visible;opacity:1;isolation:auto;mix-blend-mode:normal;color-interpolation:sRGB;color-interpolation-filters:linearRGB;solid-color:#000000;solid-opacity:1;vector-effect:none;fill:#000000;fill-opacity:1;fill-rule:evenodd;stroke:none;stroke-width:0.11226879;stroke-linecap:butt;stroke-linejoin:miter;stroke-miterlimit:10;stroke-dasharray:none;stroke-dashoffset:0;stroke-opacity:1;color-rendering:auto;image-rendering:auto;shape-rendering:auto;text-rendering:auto;enable-background:accumulate"
       d="m 68.531873,200.91695 c -0.498898,0 -0.988475,0.007 -1.47071,0.008 l -0.732255,0.0326 -0.04289,5.2e-4 c -3.138056,0.0592 -6.067004,0.22995 -9.105387,0.48421 l -0.05271,0.004 v 0.62476 c -1.381662,0.83505 -2.435894,1.88199 -3.468523,3.11506 -0.108736,0.10921 -0.150376,0.29632 -0.150376,0.46922 0,0.0864 0.01114,0.1691 0.03669,0.23823 0.02553,0.0691 0.06741,0.1305 0.136943,0.15037 l 0.0078,0.002 h 0.267684 v 1.88671 H 53.25684 v 2.06034 h 0.300757 v 0.49816 0.0527 l 0.05271,0.002 c 0.559863,0.0255 0.875551,0.0873 1.042828,0.23203 0.08364,0.0723 0.137015,0.16656 0.170016,0.30076 0.033,0.1342 0.04496,0.30639 0.04496,0.52555 v 0.0568 h 1.28106 l -0.01913,-0.0703 c -0.07442,-0.27751 -0.125058,-0.56257 -0.125058,-0.87126 0,-1.62748 1.365706,-2.95486 3.074231,-2.95486 1.705049,0 3.087667,1.32776 3.087667,2.95486 0,0.30909 -0.04668,0.59321 -0.130742,0.8692 l -0.0217,0.0723 h 4.627107 10.300663 l -0.02119,-0.0723 c -0.08194,-0.26697 -0.131257,-0.55829 -0.131257,-0.86714 0,-1.62709 1.38209,-2.95486 3.088184,-2.95486 1.706092,0 3.089733,1.32777 3.089733,2.95486 0,0.30885 -0.04859,0.59963 -0.138493,0.87489 l -0.02532,0.0744 h 3.939294 v -0.76946 l -0.351399,-0.0507 v -0.99218 h 0.351399 v -1.31878 l -0.226859,-0.46871 -0.0016,-0.004 c -1.040254,-1.36111 -2.418633,-1.94425 -3.890719,-2.25619 -1.468847,-0.31125 -3.034733,-0.35666 -4.468976,-0.63872 -3.144094,-2.64925 -5.768938,-3.72973 -9.614919,-4.25555 h -0.0041 z m -2.770888,1.07177 h 0.04857 l 0.456819,3.22821 -0.0016,0.0124 c -0.0039,0.0464 -0.0047,0.0927 -0.0083,0.13901 l -10.108943,-0.98288 0.1695,-0.0863 c 1.402421,-0.71629 2.79305,-1.24569 4.418335,-1.64642 h 0.0021 c 1.568087,-0.34923 3.275655,-0.66404 5.023466,-0.66404 z m 0.824238,0.093 c 7.6e-5,1.4e-4 -7.7e-5,2.7e-4 0,5.3e-4 l 0.177249,0.003 c 0.799002,0.0143 1.649281,0.0354 2.355414,0.11162 2.360594,0.43103 3.394337,0.95774 5.308719,2.62103 l 0.0021,0.002 c 0.165754,0.12965 0.248047,0.31951 0.248047,0.4687 0,0.0746 -0.02024,0.1378 -0.05478,0.17984 -0.03416,0.0416 -0.08168,0.0676 -0.156062,0.0682 l -7.44089,-0.32608 -0.521933,-3.11815 z m -7.506002,6.28593 c -1.349515,0 -2.449462,1.05259 -2.449462,2.35179 0,1.30736 1.099947,2.3611 2.449462,2.3611 1.362903,0 2.468584,-1.05365 2.468584,-2.3611 0,-1.2993 -1.105681,-2.35179 -2.468584,-2.35179 z m 20.798732,0.003 c -1.363573,0 -2.467033,1.05252 -2.467033,2.3518 0,1.30742 1.10346,2.36109 2.467033,2.36109 1.355539,0 2.458762,-1.05367 2.458762,-2.36109 0,-1.29928 -1.103223,-2.3518 -2.458762,-2.3518 z"
       id="path836"
       inkscape:connector-curvature="0" />
  </g>
</svg>
