<?xml version="1.0" encoding="UTF-8" standalone="no"?>
<!-- Created with Inkscape (http://www.inkscape.org/) -->

<svg
   xmlns:dc="http://purl.org/dc/elements/1.1/"
   xmlns:cc="http://creativecommons.org/ns#"
   xmlns:rdf="http://www.w3.org/1999/02/22-rdf-syntax-ns#"
   xmlns:svg="http://www.w3.org/2000/svg"
   xmlns="http://www.w3.org/2000/svg"
   xmlns:sodipodi="http://sodipodi.sourceforge.net/DTD/sodipodi-0.dtd"
   xmlns:inkscape="http://www.inkscape.org/namespaces/inkscape"
   width="210mm"
   height="297mm"
   viewBox="0 0 210 297"
   version="1.1"
   id="svg8"
   inkscape:version="0.92.3 (2405546, 2018-03-11)"
   sodipodi:docname="P4G.svg">
  <defs
     id="defs2" />
  <sodipodi:namedview
     id="base"
     pagecolor="#ffffff"
     bordercolor="#666666"
     borderopacity="1.0"
     inkscape:pageopacity="0.0"
     inkscape:pageshadow="2"
     inkscape:zoom="2.2533681"
     inkscape:cx="257.68834"
     inkscape:cy="338.38236"
     inkscape:document-units="mm"
     inkscape:current-layer="layer1"
     showgrid="false"
     inkscape:window-width="1366"
     inkscape:window-height="704"
     inkscape:window-x="0"
     inkscape:window-y="27"
     inkscape:window-maximized="1" />
  <metadata
     id="metadata5">
    <rdf:RDF>
      <cc:Work
         rdf:about="">
        <dc:format>image/svg+xml</dc:format>
        <dc:type
           rdf:resource="http://purl.org/dc/dcmitype/StillImage" />
        <dc:title />
        <cc:license
           rdf:resource="http://creativecommons.org/publicdomain/zero/1.0/" />
      </cc:Work>
      <cc:License
         rdf:about="http://creativecommons.org/publicdomain/zero/1.0/">
        <cc:permits
           rdf:resource="http://creativecommons.org/ns#Reproduction" />
        <cc:permits
           rdf:resource="http://creativecommons.org/ns#Distribution" />
        <cc:permits
           rdf:resource="http://creativecommons.org/ns#DerivativeWorks" />
      </cc:License>
    </rdf:RDF>
  </metadata>
  <g
     inkscape:label="Layer 1"
     inkscape:groupmode="layer"
     id="layer1">
    <circle
       style="fill:#ffffff;fill-opacity:1;stroke:#ff0000;stroke-width:6;stroke-linejoin:round;stroke-miterlimit:4;stroke-dasharray:none"
       id="path834"
       cx="70"
       cy="207"
       r="27" />
    <g
       id="g832"
       transform="matrix(0.88865825,0,0,0.88498762,-3.2765288,23.634993)"
       style="stroke-width:1.1276232">
      <path
         inkscape:connector-curvature="0"
         id="path706"
         style="fill:#000000;fill-opacity:1;fill-rule:evenodd;stroke:#000000;stroke-width:0.1265969;stroke-linecap:butt;stroke-linejoin:miter;stroke-miterlimit:10;stroke-dasharray:none;stroke-opacity:1"
         d="m 70.844438,214.21222 c -1.501939,0 -2.713268,-1.1631 -2.713268,-2.60476 0,-1.43221 1.211329,-2.59531 2.713268,-2.59531 1.4927,0 2.704029,1.1631 2.704029,2.59531 0,1.44166 -1.211329,2.60476 -2.704029,2.60476 z" />
      <path
         inkscape:connector-curvature="0"
         id="path708"
         style="fill:#000000;fill-opacity:1;fill-rule:evenodd;stroke:#000000;stroke-width:0.1265969;stroke-linecap:butt;stroke-linejoin:miter;stroke-miterlimit:10;stroke-dasharray:none;stroke-opacity:1"
         d="m 56.358539,200.60059 c 0.563515,0 1.135884,-0.009 1.718261,-0.009 4.327602,0.59413 7.26643,1.80642 10.805724,4.80542 3.2483,0.6441 7.05973,0.20185 9.378844,3.24887 l 0.244036,0.50915 v 1.41294 h -0.394538 v 1.2402 l 0.394538,0.0575 v 0.74996 h -4.281026 c 0.103155,-0.31715 0.159349,-0.65356 0.159349,-1.00926 0,-1.87448 -1.586621,-3.4027 -3.539296,-3.4027 -1.952675,0 -3.539295,1.52822 -3.539295,3.4027 0,0.3557 0.05619,0.69211 0.150117,0.99941 h -11.45353 c -0.319094,-1.69152 -0.488073,-3.43142 -0.488073,-5.20951 0,-0.66339 0.01886,-1.32637 0.07506,-1.98976 l 9.162907,0.40369 c 0.403776,0 0.403776,-0.60554 0,-0.92267 -2.159374,-1.88393 -3.342218,-2.48947 -6.008526,-2.97778 -0.797929,-0.0865 -1.755599,-0.12582 -2.656684,-0.12582 0.08429,-0.40528 0.168977,-0.79876 0.272134,-1.18436 z" />
      <path
         inkscape:connector-curvature="0"
         id="path710"
         style="fill:#000000;fill-opacity:1;fill-rule:evenodd;stroke:#000000;stroke-width:0.1265969;stroke-linecap:butt;stroke-linejoin:miter;stroke-miterlimit:10;stroke-dasharray:none;stroke-opacity:1"
         d="m 100.45596,214.21222 c -1.485768,0 -2.694403,-1.1631 -2.694403,-2.60476 0,-1.43221 1.208635,-2.59531 2.694403,-2.59531 1.50117,0 2.71366,1.1631 2.71366,2.59531 0,1.44166 -1.21249,2.60476 -2.71366,2.60476 z" />
      <path
         inkscape:connector-curvature="0"
         id="path712"
         style="fill:#000000;fill-opacity:1;fill-rule:evenodd;stroke:#000000;stroke-width:0.1265969;stroke-linecap:butt;stroke-linejoin:miter;stroke-miterlimit:10;stroke-dasharray:none;stroke-opacity:1"
         d="m 94.305018,211.34777 v -0.62482 h -0.338724 v -2.20106 h 0.789076 v -2.2589 h -0.354122 c -0.200156,-0.0574 -0.200156,-0.663 0,-0.86485 1.170142,-1.40349 2.35568,-2.59531 3.922285,-3.53846 v -0.67282 c 3.418047,-0.28723 6.712917,-0.48002 10.242597,-0.54692 0.10392,0.37381 0.18861,0.76727 0.26174,1.15287 l -0.0924,0.012 0.60046,3.59354 v 0 c 0.0385,0.67285 0.0654,1.33582 0.0654,1.99921 0,1.7781 -0.16936,3.518 -0.48884,5.20952 h -5.06933 c 0.0962,-0.31713 0.15012,-0.64371 0.15012,-0.99941 0,-1.87448 -1.58586,-3.4027 -3.53738,-3.4027 -1.955365,0 -3.521972,1.52822 -3.521972,3.4027 0,0.3557 0.05773,0.68228 0.142425,0.99941 H 95.77924 c 0,-0.99941 -0.207855,-1.20126 -1.474227,-1.2591 z m 8.029332,-8.7948 c 1.76291,-0.39424 3.67979,-0.74837 5.63901,-0.74837 l 0.51963,3.68955 -11.116348,-1.08596 c 1.574303,-0.80741 3.133208,-1.40351 4.957708,-1.85522 z" />
    </g>
  </g>
</svg>
