<?xml version="1.0" encoding="UTF-8" standalone="no"?>
<!-- Created with Inkscape (http://www.inkscape.org/) -->

<svg
   xmlns:dc="http://purl.org/dc/elements/1.1/"
   xmlns:cc="http://creativecommons.org/ns#"
   xmlns:rdf="http://www.w3.org/1999/02/22-rdf-syntax-ns#"
   xmlns:svg="http://www.w3.org/2000/svg"
   xmlns="http://www.w3.org/2000/svg"
   xmlns:sodipodi="http://sodipodi.sourceforge.net/DTD/sodipodi-0.dtd"
   xmlns:inkscape="http://www.inkscape.org/namespaces/inkscape"
   width="210mm"
   height="297mm"
   viewBox="0 0 210 297"
   version="1.1"
   id="svg8"
   inkscape:version="0.92.3 (2405546, 2018-03-11)"
   sodipodi:docname="P4G.svg">
  <defs
     id="defs2" />
  <sodipodi:namedview
     id="base"
     pagecolor="#ffffff"
     bordercolor="#666666"
     borderopacity="1.0"
     inkscape:pageopacity="0.0"
     inkscape:pageshadow="2"
     inkscape:zoom="2.2533681"
     inkscape:cx="264.56693"
     inkscape:cy="340.15748"
     inkscape:document-units="mm"
     inkscape:current-layer="layer1"
     showgrid="false"
     inkscape:window-width="1366"
     inkscape:window-height="704"
     inkscape:window-x="0"
     inkscape:window-y="27"
     inkscape:window-maximized="1" />
  <metadata
     id="metadata5">
    <rdf:RDF>
      <cc:Work
         rdf:about="">
        <dc:format>image/svg+xml</dc:format>
        <dc:type
           rdf:resource="http://purl.org/dc/dcmitype/StillImage" />
        <dc:title />
        <cc:license
           rdf:resource="http://creativecommons.org/publicdomain/zero/1.0/" />
      </cc:Work>
      <cc:License
         rdf:about="http://creativecommons.org/publicdomain/zero/1.0/">
        <cc:permits
           rdf:resource="http://creativecommons.org/ns#Reproduction" />
        <cc:permits
           rdf:resource="http://creativecommons.org/ns#Distribution" />
        <cc:permits
           rdf:resource="http://creativecommons.org/ns#DerivativeWorks" />
      </cc:License>
    </rdf:RDF>
  </metadata>
  <g
     inkscape:label="Layer 1"
     inkscape:groupmode="layer"
     id="layer1">
    <circle
       style="fill:#ff0000;fill-opacity:1;stroke:none;stroke-width:0.26499999;stroke-linejoin:round;stroke-miterlimit:4;stroke-dasharray:none"
       id="path818"
       cx="70"
       cy="207"
       r="30" />
    <circle
       style="fill:#ffffff;fill-opacity:1;stroke:none;stroke-width:0.26499999;stroke-linejoin:round;stroke-miterlimit:4;stroke-dasharray:none"
       id="path820"
       cx="70"
       cy="207"
       r="24" />
    <path
       style="color:#000000;font-style:normal;font-variant:normal;font-weight:normal;font-stretch:normal;font-size:medium;line-height:normal;font-family:sans-serif;font-variant-ligatures:normal;font-variant-position:normal;font-variant-caps:normal;font-variant-numeric:normal;font-variant-alternates:normal;font-feature-settings:normal;text-indent:0;text-align:start;text-decoration:none;text-decoration-line:none;text-decoration-style:solid;text-decoration-color:#000000;letter-spacing:normal;word-spacing:normal;text-transform:none;writing-mode:lr-tb;direction:ltr;text-orientation:mixed;dominant-baseline:auto;baseline-shift:baseline;text-anchor:start;white-space:normal;shape-padding:0;clip-rule:nonzero;display:inline;overflow:visible;visibility:visible;opacity:1;isolation:auto;mix-blend-mode:normal;color-interpolation:sRGB;color-interpolation-filters:linearRGB;solid-color:#000000;solid-opacity:1;vector-effect:none;fill:#000000;fill-opacity:1;fill-rule:evenodd;stroke:none;stroke-width:0.11226879;stroke-linecap:butt;stroke-linejoin:miter;stroke-miterlimit:10;stroke-dasharray:none;stroke-dashoffset:0;stroke-opacity:1;color-rendering:auto;image-rendering:auto;shape-rendering:auto;text-rendering:auto;enable-background:accumulate"
       d="m 59.679688,208.55273 c -1.363571,0 -2.466797,1.05229 -2.466797,2.35157 0,1.30742 1.103226,2.36132 2.466797,2.36132 1.35554,0 2.458984,-1.0539 2.458984,-2.36132 0,-1.29928 -1.103444,-2.35157 -2.458984,-2.35157 z"
       id="path836"
       inkscape:connector-curvature="0" />
    <path
       style="color:#000000;font-style:normal;font-variant:normal;font-weight:normal;font-stretch:normal;font-size:medium;line-height:normal;font-family:sans-serif;font-variant-ligatures:normal;font-variant-position:normal;font-variant-caps:normal;font-variant-numeric:normal;font-variant-alternates:normal;font-feature-settings:normal;text-indent:0;text-align:start;text-decoration:none;text-decoration-line:none;text-decoration-style:solid;text-decoration-color:#000000;letter-spacing:normal;word-spacing:normal;text-transform:none;writing-mode:lr-tb;direction:ltr;text-orientation:mixed;dominant-baseline:auto;baseline-shift:baseline;text-anchor:start;white-space:normal;shape-padding:0;clip-rule:nonzero;display:inline;overflow:visible;visibility:visible;opacity:1;isolation:auto;mix-blend-mode:normal;color-interpolation:sRGB;color-interpolation-filters:linearRGB;solid-color:#000000;solid-opacity:1;vector-effect:none;fill:#000000;fill-opacity:1;fill-rule:evenodd;stroke:none;stroke-width:0.11226879;stroke-linecap:butt;stroke-linejoin:miter;stroke-miterlimit:10;stroke-dasharray:none;stroke-dashoffset:0;stroke-opacity:1;color-rendering:auto;image-rendering:auto;shape-rendering:auto;text-rendering:auto;enable-background:accumulate"
       d="m 46.863281,200.74023 -0.111328,0.40821 c -0.09216,0.34305 -0.167235,0.69187 -0.242187,1.05078 l -0.01367,0.0684 h 0.06836 c 0.799128,0 1.649337,0.0351 2.355469,0.11133 2.360595,0.43103 3.394211,0.9578 5.308594,2.62109 l 0.002,0.002 c 0.165753,0.12965 0.248047,0.31956 0.248047,0.46875 0,0.0746 -0.02016,0.13765 -0.05469,0.17969 -0.03416,0.0416 -0.08187,0.0678 -0.15625,0.0684 l -8.195312,-0.35937 -0.0059,0.0527 C 46.016288,206.00129 46,206.58958 46,207.17773 c 0,1.57717 0.151346,3.12076 0.435547,4.6211 l 0.0078,0.0449 h 10.300782 l -0.02148,-0.0723 c -0.08194,-0.26697 -0.130859,-0.55833 -0.130859,-0.86718 0,-1.62709 1.381798,-2.95508 3.087891,-2.95508 1.706093,0 3.089843,1.32799 3.089843,2.95508 0,0.30885 -0.04877,0.59974 -0.138672,0.875 l -0.02539,0.0742 h 3.939453 v -0.76954 l -0.351563,-0.0508 v -0.99218 h 0.351563 v -1.31836 l -0.226563,-0.46875 -0.002,-0.004 c -1.040255,-1.36111 -2.418539,-1.94392 -3.890625,-2.25586 -1.468849,-0.31125 -3.034505,-0.35661 -4.46875,-0.63867 -3.144093,-2.64925 -5.769254,-3.73004 -9.615234,-4.25586 h -0.0039 -0.0039 c -0.498899,0 -0.988469,0.007 -1.470703,0.008 z"
       id="path840"
       inkscape:connector-curvature="0" />
    <path
       style="color:#000000;font-style:normal;font-variant:normal;font-weight:normal;font-stretch:normal;font-size:medium;line-height:normal;font-family:sans-serif;font-variant-ligatures:normal;font-variant-position:normal;font-variant-caps:normal;font-variant-numeric:normal;font-variant-alternates:normal;font-feature-settings:normal;text-indent:0;text-align:start;text-decoration:none;text-decoration-line:none;text-decoration-style:solid;text-decoration-color:#000000;letter-spacing:normal;word-spacing:normal;text-transform:none;writing-mode:lr-tb;direction:ltr;text-orientation:mixed;dominant-baseline:auto;baseline-shift:baseline;text-anchor:start;white-space:normal;shape-padding:0;clip-rule:nonzero;display:inline;overflow:visible;visibility:visible;opacity:1;isolation:auto;mix-blend-mode:normal;color-interpolation:sRGB;color-interpolation-filters:linearRGB;solid-color:#000000;solid-opacity:1;vector-effect:none;fill:#000000;fill-opacity:1;fill-rule:evenodd;stroke:none;stroke-width:0.11226879;stroke-linecap:butt;stroke-linejoin:miter;stroke-miterlimit:10;stroke-dasharray:none;stroke-dashoffset:0;stroke-opacity:1;color-rendering:auto;image-rendering:auto;shape-rendering:auto;text-rendering:auto;enable-background:accumulate"
       d="m 85.994141,208.55273 c -1.349515,0 -2.449219,1.05236 -2.449219,2.35157 0,1.30735 1.099704,2.36132 2.449219,2.36132 1.362902,0 2.46875,-1.05387 2.46875,-2.36132 0,-1.29931 -1.105848,-2.35157 -2.46875,-2.35157 z"
       id="path844"
       inkscape:connector-curvature="0" />
    <path
       style="color:#000000;font-style:normal;font-variant:normal;font-weight:normal;font-stretch:normal;font-size:medium;line-height:normal;font-family:sans-serif;font-variant-ligatures:normal;font-variant-position:normal;font-variant-caps:normal;font-variant-numeric:normal;font-variant-alternates:normal;font-feature-settings:normal;text-indent:0;text-align:start;text-decoration:none;text-decoration-line:none;text-decoration-style:solid;text-decoration-color:#000000;letter-spacing:normal;word-spacing:normal;text-transform:none;writing-mode:lr-tb;direction:ltr;text-orientation:mixed;dominant-baseline:auto;baseline-shift:baseline;text-anchor:start;white-space:normal;shape-padding:0;clip-rule:nonzero;display:inline;overflow:visible;visibility:visible;opacity:1;isolation:auto;mix-blend-mode:normal;color-interpolation:sRGB;color-interpolation-filters:linearRGB;solid-color:#000000;solid-opacity:1;vector-effect:none;fill:#000000;fill-opacity:1;fill-rule:evenodd;stroke:none;stroke-width:0.42432299;stroke-linecap:butt;stroke-linejoin:miter;stroke-miterlimit:10;stroke-dasharray:none;stroke-dashoffset:0;stroke-opacity:1;color-rendering:auto;image-rendering:auto;shape-rendering:auto;text-rendering:auto;enable-background:accumulate"
       d="m 352.41797,760.22266 -0.16211,0.002 c -11.86037,0.22375 -22.93041,0.86909 -34.41406,1.83008 l -0.19922,0.0156 v 2.36133 c -5.22203,3.1561 -9.20653,7.11302 -13.10938,11.77344 -0.41098,0.41276 -0.56836,1.11999 -0.56836,1.77344 0,0.32655 0.0421,0.63911 0.13868,0.90039 0.0965,0.26116 0.25479,0.49329 0.51757,0.56836 l 0.0293,0.008 h 1.01172 v 7.13086 h -2.65039 v 7.78711 h 1.13672 v 1.88281 0.19922 l 0.19922,0.008 c 2.11602,0.0964 3.30916,0.32998 3.9414,0.87695 0.31612,0.27326 0.51785,0.62951 0.64258,1.13672 0.12473,0.50722 0.16992,1.15801 0.16992,1.98633 v 0.21484 h 4.8418 l -0.0723,-0.26562 c -0.28127,-1.04886 -0.47265,-2.12627 -0.47265,-3.29297 0,-6.15114 5.16172,-11.16797 11.61914,-11.16797 6.44428,0 11.66992,5.0183 11.66992,11.16797 0,1.16821 -0.17644,2.24208 -0.49414,3.28516 l -0.082,0.27343 h 17.48828 l 0.0293,-0.16992 c 1.07553,-5.67122 1.64648,-11.50584 1.64648,-17.46679 0,-2.22475 -0.0913,-4.45027 -0.2207,-6.70313 v -0.008 l -1.97852,-11.81836 0.31055,-0.0371 -0.0371,-0.2207 c -0.24631,-1.29328 -0.53534,-2.61826 -0.88672,-3.87696 z m -2.14649,3.89843 h 0.1836 l 1.80859,12.78516 -38.32617,-3.72656 0.64062,-0.32617 c 5.30049,-2.70724 10.55641,-4.70809 16.69922,-6.22266 h 0.008 c 5.92663,-1.31989 12.38042,-2.50977 18.98632,-2.50977 z"
       transform="scale(0.26458333)"
       id="path852"
       inkscape:connector-curvature="0" />
  </g>
</svg>
